<?xml version="1.0" encoding="UTF-8" standalone="no"?><!DOCTYPE svg PUBLIC "-//W3C//DTD SVG 1.1//EN" "http://www.w3.org/Graphics/SVG/1.1/DTD/svg11.dtd"><svg width="100%" height="100%" viewBox="0 0 400 400" version="1.1" xmlns="http://www.w3.org/2000/svg" xmlns:xlink="http://www.w3.org/1999/xlink" xml:space="preserve" xmlns:serif="http://www.serif.com/" style="fill-rule:evenodd;clip-rule:evenodd;stroke-linejoin:round;stroke-miterlimit:2;"><rect x="0" y="0" width="399.999" height="500" style="fill:#d1c3b2;"/><path d="M241.836,499.999c8.964,-9.083 17.006,-19.691 20.729,-33.083c13.701,-49.305 -24.607,-38.407 -23.517,-104.279c1.087,-65.873 84.748,-101.359 143.724,-99.842c6.084,0.156 11.834,0.668 17.228,1.528l-0.001,235.676l-158.163,0Z" style="fill:#7d5a50;"/><path d="M363.087,0c0.012,34.415 -20.395,78.444 -14.111,104.219c9.789,40.153 -16.994,82.15 -71.353,94.65c-54.358,12.501 -19.079,-39.644 -48.465,-68.56c-29.384,-28.916 -44.435,0.656 -94.209,-26.662c-38.068,-20.895 -33.026,-66.347 -11.83,-103.647l239.968,0Z" style="fill:#bd9781;"/><path d="M35.751,36.49c-4.777,5.3 -7.679,15.086 -0.983,19.158c6.696,4.072 8.575,-0.085 12.577,4.14c4.002,4.226 -0.469,11.527 6.681,9.943c7.149,-1.584 10.534,-7.47 9.084,-13.226c-1.451,-5.756 5.505,-17.587 -2.291,-21.129c-7.797,-3.541 -17.626,-7.14 -25.068,1.114Z" style="fill:#bd9763;fill-opacity:0.71;"/><path d="M64.34,235.931c0.884,-4.085 -0.541,-9.962 -5.22,-10.18c-4.679,-0.218 -4.406,2.462 -7.739,1.405c-3.332,-1.055 -3.204,-6.09 -6.426,-3.256c-3.222,2.834 -3.212,6.83 -0.741,9.397c2.47,2.566 2.412,10.642 7.501,10.275c5.089,-0.367 11.246,-1.277 12.625,-7.641Z" style="fill:#7d5a50;fill-opacity:0.71;"/><path d="M358.897,202.906c0.885,-4.085 -0.541,-9.961 -5.22,-10.179c-4.679,-0.218 -4.406,2.462 -7.739,1.405c-3.332,-1.055 -3.204,-6.09 -6.426,-3.256c-3.222,2.834 -3.212,6.83 -0.741,9.397c2.47,2.566 2.412,10.642 7.502,10.275c5.088,-0.367 11.245,-1.277 12.624,-7.642Z" style="fill:#7d5a50;fill-opacity:0.71;"/><path d="M285.706,266.135c11.115,-9.975 18.849,-27.158 4.984,-32.648c-13.865,-5.489 -18.549,1.947 -26.569,-4.369c-8.02,-6.315 2.734,-19.618 -12.956,-15.435c-15.692,4.184 -23.887,14.861 -21.611,24.304c2.277,9.443 -14.524,30.938 1.799,35.298c16.324,4.36 37.035,8.391 54.353,-7.15Z" style="fill:#b28340;fill-opacity:0.71;"/><path d="M47.713,311.853c10.55,27.608 38.049,-17.671 54.784,0c16.733,17.671 -36.867,26.015 -10.906,54.067c18.374,19.855 31.456,13.658 61.082,-6.333c20.956,-14.142 23.021,-73.544 -9.58,-88.351c-32.602,-14.808 -116.75,-15.304 -95.38,40.617Z" style="fill:#a47c70;fill-opacity:0.71;"/><path d="M57.332,131.887c-14.479,16.061 -23.276,45.727 -2.98,58.071c20.296,12.344 25.993,-0.261 38.125,12.548c12.13,12.81 -1.423,34.941 20.25,30.14c21.673,-4.802 31.934,-22.644 27.537,-40.091c-4.397,-17.447 16.688,-53.311 -6.944,-64.045c-23.633,-10.734 -53.431,-21.645 -75.988,3.377Z" style="fill:#808080;"/></svg>