<?xml version="1.0" encoding="UTF-8" standalone="no"?><!DOCTYPE svg PUBLIC "-//W3C//DTD SVG 1.1//EN" "http://www.w3.org/Graphics/SVG/1.1/DTD/svg11.dtd"><svg width="100%" height="100%" viewBox="0 0 380 900" version="1.1" xmlns="http://www.w3.org/2000/svg" xmlns:xlink="http://www.w3.org/1999/xlink" xml:space="preserve" xmlns:serif="http://www.serif.com/" style="fill-rule:evenodd;clip-rule:evenodd;stroke-linejoin:round;stroke-miterlimit:2;"><rect x="0" y="0" width="380" height="415.121" style="fill:#d1c3b2;"/><path d="M245.981,415.121c-7.609,-12.924 -19.482,-25.1 -18.885,-62.304c1.033,-64.452 80.511,-99.173 136.538,-97.689c5.78,0.153 11.243,0.654 16.367,1.495l-0.001,230.594l0,-72.096l-134.019,0Z" style="fill:url(#_Linear1);"/><path d="M380.001,-1.334c-2.038,33.612 -26.799,75.26 -21.518,100.849c8.226,39.862 -23.33,79.104 -83.042,87.714c-59.712,8.61 -18.335,-39.981 -48.488,-70.165c-30.152,-30.185 -48.242,-2.301 -100.607,-32.274c-40.05,-22.926 -31.872,-66.982 -6.657,-102.007l260.312,15.883Z" style="fill:url(#_Linear2);"/><path d="M31.365,357.239c-4.538,5.185 -7.295,14.76 -0.934,18.745c6.361,3.984 8.146,-0.084 11.948,4.05c3.802,4.135 -0.445,11.279 6.347,9.729c6.792,-1.55 10.008,-7.309 8.63,-12.941c-1.378,-5.632 5.23,-17.208 -2.176,-20.673c-7.407,-3.465 -16.745,-6.986 -23.815,1.09Z" style="fill:#bd9763;fill-opacity:0.71;"/><path d="M61.123,230.843c0.84,-3.997 -0.514,-9.747 -4.959,-9.96c-4.445,-0.213 -4.186,2.409 -7.352,1.375c-3.165,-1.033 -3.044,-5.959 -6.105,-3.186c-3.061,2.773 -3.051,6.683 -0.704,9.194c2.347,2.511 2.292,10.413 7.126,10.054c4.835,-0.359 10.684,-1.25 11.994,-7.477Z" style="fill:#7d5a50;fill-opacity:0.71;"/><path d="M329.597,206.516c4.076,0.264 9.575,-1.894 9.154,-6.324c-0.421,-4.431 -2.979,-3.802 -2.406,-7.082c0.573,-3.28 5.466,-3.86 2.287,-6.496c-3.18,-2.636 -7.049,-2.071 -9.201,0.609c-2.152,2.68 -9.982,3.749 -8.939,8.484c1.042,4.734 2.755,10.397 9.105,10.809Z" style="fill:#7d5a50;fill-opacity:0.71;"/><path d="M119.749,415.121c1.666,-2.727 3.512,-5.231 5.468,-7.465c21.43,-24.482 49.737,-13.807 72.189,-3.304c5.201,2.433 8.123,6.186 9.583,10.769l-87.24,0Z" style="fill:url(#_Linear3);"/><path d="M271.421,260.396c10.56,-9.76 17.907,-26.572 4.735,-31.944c-13.172,-5.371 -17.621,1.905 -25.24,-4.275c-7.619,-6.179 2.597,-19.195 -12.309,-15.102c-14.907,4.094 -22.692,14.541 -20.53,23.78c2.163,9.239 -13.798,30.271 1.709,34.537c15.508,4.266 35.183,8.21 51.635,-6.996Z" style="fill:url(#_Linear4);"/><path d="M45.327,305.128c10.023,27.013 36.147,-17.29 52.045,0c15.897,17.29 -35.023,25.454 -10.36,52.901c17.455,19.427 29.883,13.364 58.028,-6.196c19.908,-13.837 21.87,-71.958 -9.101,-86.446c-30.972,-14.489 -110.913,-14.974 -90.612,39.741Z" style="fill:url(#_Linear5);"/><path d="M54.466,129.043c-13.756,15.715 -22.113,44.741 -2.831,56.819c19.281,12.078 24.693,-0.256 36.218,12.277c11.524,12.534 -1.351,34.188 19.238,29.49c20.589,-4.698 30.337,-22.155 26.16,-39.226c-4.177,-17.071 15.854,-52.162 -6.597,-62.664c-22.451,-10.503 -50.759,-21.178 -72.188,3.304Z" style="fill:url(#_Linear6);"/><circle cx="35.333" cy="85.509" r="5.745" style="fill:#bd9781;"/><circle cx="354.667" cy="236.176" r="5.745" style="fill:#bd9781;"/><path d="M229.745,487.217l150.255,0l-150.255,0Z" style="fill:#bd9781;"/><path d="M247.925,459.636c-1.133,3.12 -2.497,6.078 -4.027,8.868l2.168,-4.321l1.859,-4.547Z" style="fill:#bd9781;"/><path d="M247.972,418.709c1.963,3.856 3.435,7.971 3.995,12.961c-0.746,-6.582 -3.054,-11.62 -5.986,-16.549l1.991,3.588Z" style="fill:#bd9781;"/><path d="M251.099,447.673c0.731,-3.861 1.09,-7.292 1.126,-10.363c-0.068,4.89 -0.918,10.605 -2.788,17.537l1.662,-7.174Z" style="fill:#bd9781;"/><defs><linearGradient id="_Linear1" x1="0" y1="0" x2="1" y2="0" gradientUnits="userSpaceOnUse" gradientTransform="matrix(-187.735,-204,204,-187.735,400.667,469.667)"><stop offset="0" style="stop-color:#7d5a50;stop-opacity:1"/><stop offset="1" style="stop-color:#7d5a50;stop-opacity:0"/></linearGradient><linearGradient id="_Linear2" x1="0" y1="0" x2="1" y2="0" gradientUnits="userSpaceOnUse" gradientTransform="matrix(-91.3333,149.333,-149.333,-91.3333,281.333,31.6667)"><stop offset="0" style="stop-color:#bd9781;stop-opacity:1"/><stop offset="1" style="stop-color:#bd9781;stop-opacity:0"/></linearGradient><linearGradient id="_Linear3" x1="0" y1="0" x2="1" y2="0" gradientUnits="userSpaceOnUse" gradientTransform="matrix(-55.5915,-162.667,162.667,-55.5915,208.258,501.667)"><stop offset="0" style="stop-color:#808080;stop-opacity:1"/><stop offset="1" style="stop-color:#808080;stop-opacity:0"/></linearGradient><linearGradient id="_Linear4" x1="0" y1="0" x2="1" y2="0" gradientUnits="userSpaceOnUse" gradientTransform="matrix(-63.0752,-26.7975,26.7975,-63.0752,271.333,255.082)"><stop offset="0" style="stop-color:#b28340;stop-opacity:0.71"/><stop offset="1" style="stop-color:#b28340;stop-opacity:0"/></linearGradient><linearGradient id="_Linear5" x1="0" y1="0" x2="1" y2="0" gradientUnits="userSpaceOnUse" gradientTransform="matrix(50.4676,-37.2505,37.2505,50.4676,100.866,301)"><stop offset="0" style="stop-color:#a47c70;stop-opacity:0.71"/><stop offset="1" style="stop-color:#a47c70;stop-opacity:0"/></linearGradient><linearGradient id="_Linear6" x1="0" y1="0" x2="1" y2="0" gradientUnits="userSpaceOnUse" gradientTransform="matrix(89.5062,94.8692,-94.8692,89.5062,48,114.131)"><stop offset="0" style="stop-color:#808080;stop-opacity:1"/><stop offset="1" style="stop-color:#808080;stop-opacity:0"/></linearGradient></defs></svg>