<?xml version="1.0" encoding="utf-8"?>
<!-- Generator: Adobe Illustrator 25.4.1, SVG Export Plug-In . SVG Version: 6.00 Build 0)  -->
<svg version="1.1" id="Warstwa_1" xmlns="http://www.w3.org/2000/svg" xmlns:xlink="http://www.w3.org/1999/xlink" x="0px" y="0px"
	 viewBox="0 0 138 44.4" style="enable-background:new 0 0 138 44.4;" xml:space="preserve">
<style type="text/css">
	.st0{opacity:0.9;}
	.st1{fill:#DBDBEF;}
	.st2{opacity:0.9;fill:#8B8BC3;enable-background:new    ;}
	.st3{fill:#AAA9D5;}
	.st4{fill:#C7C5E4;}
	.st5{fill:#EAEAF6;}
	.st6{fill:none;}
	.st7{fill:#F8F8FC;}
	.st8{fill:#00C59F;}
</style>
<g id="Warstwa_1_00000148630059678903713880000013065068962867939230_">
</g>
<g>
	<g>
		<g class="st0">
			<g class="st0">
				<path class="st1" d="M32,26.6c0.2,0.6,1.9,1,3.6,1.4c1.6,0.4,3.2,0.8,3.5,1c0.8,0.4,1.8,0.7,3.3,1.1c1.4,0.5,3.2,1.1,5,1.8
					c1.8,0.7,3.6,1.4,4.9,1.9c1.3,0.5,2.2,0.9,2.1,1c-0.2,0.3,0.1,1.5,0.7,2.8c0.6,1.2,1.5,2.5,2.2,2.9c3.4,1.8,7.5,2.4,10.9,2
					c1.7-0.2,1.9-0.5,2.6-0.2c0.3,0.1,1.3-1,3.3-1.5c1.4-0.3,3.2-0.1,4.5-0.6c1.2-0.4,3.7-0.8,6.2-1.6c2.5-0.7,4.9-1.7,6-2.4
					c2.3-1.2,3.8-2.3,5.2-3.2c1.4-0.9,2.8-1.8,4.4-2.9c2.5-1.6,3.8-3.6,5.8-5.3c1-0.9,1.9-1.6,2.8-2.3c0.9-0.6,1.8-1.1,3-1.3
					c1.1-0.2,2.1-0.1,3.3,0.1c1.2,0.2,2.4,0.4,3.8,0.6c0.4,0.1,0.8,0.1,1.1,0s1.1,0.1,1.5,0.2c1.2,0.3,2.4,0.7,3.7,1
					c1.3,0.3,2.7,0.4,4.1,0.1c0.8-0.2,1.9-0.8,1.6-1c-0.8-0.6-1.7-0.9-2.7-1.4c-1-0.5-1.9-1-2.9-1.5c-0.9-0.5-1.9-0.9-3.1-1.2
					c-1.2-0.4-2.4-0.7-3.8-1c-1.9-0.5-3.5-1.1-5.3-1.7c-1.7-0.6-3.4-1-5.1-1.3c-0.6-0.2-1.1-0.3-1.7-0.4c-0.6-0.1-1.2-0.2-1.9-0.2
					c-1.4,0.1-3.1,0.6-4.7,2c-0.9,0.8-1.6,1.7-2.3,2.5c-0.7,0.8-1.2,1.5-1.7,2.2c-0.5,0.7-1,1.3-1.5,1.7c-0.5,0.5-1,0.8-1.6,1.1
					c-1.7,0.7-3.2,1-5,1.5c-0.2,0-0.5,0.1-0.8,0.1c-0.4,0.1-0.7,0.1-0.9,0.2c-1,0.4-2.1,0.7-3.2,0.9c-1.1,0.3-2,0.6-2.8,1.3
					c-0.6,0.2-1.2,0.2-1.7,0.3c-0.5,0-1,0.1-1.4,0.1c-0.5,0-0.9,0.1-1.4,0.1c-0.5,0.1-1,0.2-1.5,0.3c-2.8,0.9-6,1.5-9.5,0.7
					c-2-0.5-3.7-1.2-5.5-2.1c-0.7-0.3-2.3-2.5-2.8-3.2c-0.5-0.7-1.3-1.1-2.2-1.5c-0.9-0.4-1.9-0.6-2.8-0.8c-2.8-0.3-5.7-0.9-9.2-1.3
					c-1.2-0.3-2.2-0.8-3.5-1c-3-0.3-5.1,0.4-7.5,0.6c-4.5-0.1-6.3-0.1-7.3,0.1c-0.9,0.1-0.7,0.3-0.9,0.2c-0.9-0.1-1.1-0.9-2.3-1.2
					c-1.5-0.3-3-0.2-4.1,0.1c-3.1,0.7-6.8,1.3-10.4,0.3c0.2,0.2,0.3,0.4,0.5,0.4c2.6,0.7,4.8,1.6,7.1,2.4c2.3,0.8,4.7,1.5,7.4,1.8
					c0.6-0.1,1.2-0.1,1.9-0.1c1.2,0.2,2.2,0.2,3.3,0.3C28.7,23.6,31.6,25.7,32,26.6z"/>
				<path class="st2" d="M118.7,17.1c1.3,0.4,2.6,0.7,3.8,1c1.2,0.4,2.2,0.7,3.1,1.2c0.5,0.3,1,0.5,1.4,0.8c0.5,0.2,1,0.5,1.4,0.7
					c0.5,0.2,0.9,0.5,1.4,0.7c0.5,0.2,0.9,0.5,1.3,0.7c0.2,0.1-0.1,0.3-0.4,0.5c-0.4,0.2-0.8,0.4-1.2,0.5c-0.4,0.1-0.7,0.1-1.1,0.2
					c-0.4,0-0.7,0-1.1,0c-0.4,0-0.7-0.1-1-0.1c-0.3-0.1-0.7-0.1-1-0.2c-1.3-0.3-2.5-0.7-3.7-1c-0.4-0.1-1.2-0.2-1.5-0.2
					c-0.3,0.1-0.7,0.1-1.1,0c-1.4-0.3-2.7-0.5-3.8-0.6c-1.1-0.1-2.3-0.2-3.3-0.1c-1.1,0.3-2,0.7-2.9,1.3c-0.9,0.6-1.7,1.3-2.8,2.3
					c-2,1.7-3.3,3.7-5.8,5.3c-1.6,1.1-3,1.9-4.4,2.9c-1.4,0.9-3,2-5.3,3.2c-1.2,0.7-3.5,1.6-6,2.4c-2.5,0.8-5,1.2-6.2,1.6
					c-1.3,0.5-3.1,0.3-4.5,0.6c0,0-0.3-0.2-0.8-0.5c-0.5-0.3-1.2-0.7-2.3-1.3c4-0.3,8-1,11.7-2.4c3.6-1.3,7-3.2,9.7-5.5
					c2.1-1,4.1-2.4,5.8-3.9s3.4-3.4,5.3-5.3c0.9-0.9,1.9-1.8,3.1-2.6c1.1-0.8,2.4-1.5,3.8-1.9c1.4-0.4,2.9-0.7,4.2-0.7
					C116,16.8,117.4,16.9,118.7,17.1z"/>
				<path class="st3" d="M74,39.6c0,0-0.2,0-0.5,0.1c-0.3,0.1-0.7,0.1-1.2,0.1c-1,0.1-2.4,0.1-3.6-0.1c-2.6-0.2-4.9-1-4-2.1
					c0,0,2.5-1,5.5-2.2c1.5-0.6,3.1-1.2,4.6-1.7s2.9-0.9,4.1-1c0,0,0.2,0,0.6-0.1c0.4-0.1,0.9-0.1,1.4-0.2c1.1-0.1,2.5-0.4,3.4-0.7
					c0,0,0.2,0,0.6,0.1c0.2,0,0.4,0,0.7,0c0.3,0,0.6-0.1,0.9-0.1c1.3-0.2,3.1-0.7,4.7-1.8c0,0,0.2-0.1,0.6-0.4
					c0.4-0.3,0.9-0.6,1.4-1c1.2-0.8,2.6-2,3.9-3.5c1.3-1.4,2.8-3.2,4.1-4.5c1.4-1.4,2.7-2.3,3.1-2.4c0,0,0.4-0.3,1.2-0.7
					c0.4-0.2,0.8-0.5,1.3-0.7c0.5-0.2,1.1-0.5,1.7-0.7c0.6-0.2,1.3-0.4,1.9-0.5c0.3-0.1,0.7-0.1,1-0.1c0.2,0,0.3-0.1,0.5-0.1
					c0.2,0,0.3,0,0.5,0c1.2,0,2.1,0.2,2.6,0.4c0,0,0.2,0.2,0.5,0.3c0.4,0.2,0.8,0.5,1.3,0.8c1.1,0.6,2.5,1.2,4,1.4
					c0,0,0.6,0.3,1.3,0.6c0.8,0.4,1.7,0.8,2.6,1.1c0.9,0.4,1.6,0.7,1.8,0.9c0.1,0.1,0.1,0.2-0.2,0.3c-0.2,0.1-0.6,0.2-1.3,0.1
					c0,0-0.8,0.1-1.7,0.1s-2-0.1-2.8-0.2c0,0-0.3-0.1-0.9-0.2c-0.6-0.1-1.3-0.3-2.2-0.5c-1.8-0.4-4.2-0.7-6.4-0.1
					c-2.3,0.6-4.4,2.1-5.9,3.4s-2.7,2.3-3.1,2.4c0,0-0.3,0.2-0.8,0.6c-0.5,0.4-1.2,1-2,1.7c-1.7,1.4-4.3,3-7.3,4.4
					c-3,1.4-6.3,2.6-9.6,3.5C79.4,37.5,76.3,38.3,74,39.6z"/>
				<path class="st4" d="M73.6,40.3c0,0-0.5,0.2-1.2,0.3c-0.8,0.2-1.8,0.3-3,0.4c-2.4,0.1-5.2-0.4-6.7-2c0,0-0.6-0.4-1.5-1
					c-0.9-0.6-1.9-1.4-2.9-2.2c-1.8-1.7-3.1-3.5-1.3-3.5c0,0,0.9-0.1,2.3-0.1c1.4-0.1,3.4-0.2,5.7-0.4c2.3-0.2,4.7-0.4,7.2-0.7
					c2.5-0.3,4.9-0.6,7.1-0.8c0,0,0.3,0,0.7-0.2c0.5-0.2,1.1-0.5,1.9-1.1c0,0,1.1-0.4,2.5-0.8c1.3-0.4,2.9-0.8,4.1-0.6
					c0,0,0.4-0.1,1-0.1c0.6-0.1,1.4-0.2,2.3-0.5c1.8-0.5,3.7-1.5,4.6-2.5c0,0,0.6-0.2,1.3-0.6c0.7-0.4,1.6-1.1,2-1.9
					c0,0-0.2,0.2-0.5,0.6c-0.3,0.4-0.7,0.9-1.2,1.5c-0.5,0.6-1,1.3-1.7,1.9c-0.6,0.7-1.4,1.3-2.2,2c-1.6,1.3-3.5,2.4-5.2,3
					c-1.7,0.6-3,0.9-3.6,0.7c0,0-0.5,0-1.2,0.1c-0.8,0.1-1.9,0.2-3.2,0.4c-2.7,0.5-6.2,1.2-10.7,2.9c0,0-0.8,0.8-0.8,1.8
					c0,0.5,0.2,1.1,0.8,1.7C70.7,39.3,71.8,39.9,73.6,40.3z"/>
				<path class="st5" d="M66.9,43c-1.4,0.2-2.9,0.5-4.4,0.4c-0.8-0.1-1.9-0.5-2.9-0.7c-1.2-0.4-2.3-1-3-1.5
					c-1.6-1.2-3.7-2.5-5.7-3.9s-3.5-2.7-4.4-3.9c-0.3-0.4-0.6-0.6-1-0.8c-0.2,0-0.6-0.2-0.8-0.2c-1.2-0.6-2.4-1.2-3.5-1.4
					c-0.9-0.2-1.6-0.5-2.5-0.9c-0.8-0.4-1.7-0.9-2.7-1.3c-1-0.5-2.5-0.9-3.7-1.3c-2.4-0.7-2.3-2.4-4.6-2.9c-3.6-1-7-0.4-10.5-1.3
					c-2-0.7-3.9-1.1-5.7-1.8c-1.3-0.7-2.9-1.1-4.4-1.7c-0.4-0.1-1.2-0.8-1.1-1c0.2-0.2,1.1,0.1,1.6,0c1.5-0.1,2.1,0.8,3.1,1.2
					c1.2,0.5,2.8,0.5,4.2,0.8c0.6,0.2,1.1,0.4,1.6,0.8c0.8,0.5,2,0.4,3.2,0.5c1.5-0.1,3,0.8,4.5,0.9c2,0.3,3.9-0.4,5.6,0.2
					c-1.4-0.5,6.3,0.6,4.7,0.6c0.2-0.1,0.6,0.3,0.6,0.5c-0.1,0.2,0,0.4-0.2,0.4c-1.2,0.4-1.2,1.2-1.6,1.8c0.1,0.1,1.1,0.2,2.3,0.4
					c1.1,0.3,2.4,0.6,3,1c0.9,0.7,1.6,1.4,2.7,1.8c0.3,0.1,0.6-0.2,0.9-0.1c0.2,0.1,0.9,0.2,1.9,0.4c1,0.2,2.4,0.5,3.8,0.9
					c1.4,0.4,2.9,0.8,4.1,1.2c1.2,0.4,2.1,0.7,2.4,0.9c0.6,0.5,1.3,1.3,1,1.5c-0.6,0.8,0.5,1.7,0.7,2.7c0,0.2-0.4,0.3-0.4,0.6
					c0.2,0.7,0.7,1.6,1.6,2.1c1.4,1,3.3,1.7,4.8,2C63.7,42.2,65.3,42.6,66.9,43z"/>
				<path class="st6" d="M97.8,17.9c0,0-0.2,0.3-0.6,0.9c-0.4,0.5-0.9,1.2-1.5,1.9c-0.6,0.7-1.3,1.4-2,1.8c-0.7,0.5-1.6,0.9-2.6,1
					c0,0-0.2,0.1-0.5,0.2c-0.3,0.1-0.7,0.2-1.1,0.4c-0.4,0.2-0.9,0.2-1.3,0.4c-0.4,0.1-0.7,0.2-0.9,0.3c-0.4,0.1-0.7,0.1-1.1,0.1
					c0,0-0.1,0-0.2,0.1c-0.2,0.1-0.3,0.1-0.6,0.2c-0.2,0.1-0.5,0.2-0.8,0.3s-0.6,0.2-1,0.3c-1.3,0.4-2.8,0.8-3.3,1.4
					c0,0-0.6,0.2-1.3,0.3c-0.7,0.1-1.5,0.2-1.7,0.1c0,0-0.2,0-0.4,0c-0.3,0-0.6,0.1-1,0.1c-0.9,0.1-2.1,0.4-3.6,0.9"/>
				<path class="st7" d="M39.6,31c-0.4-0.2-1.5-0.8-3-1.3c-1.4-0.6-3.1-1.1-3.8-1.5c-2.3-1.1-4.5-2.2-6.8-3.4
					c-0.3-0.1-0.6-0.2-0.8-0.1c-1.6,0.4-3.3-0.3-4.8-0.2c-0.6,0-1.2,0.2-1.9,0c-3.5-0.8-6.6-1.9-9.5-3.3c-1.2-0.6-2.2-1.3-3.4-1.9
					c-0.2-0.2-0.6-0.4-0.5-0.6c-0.1-0.2,0.5,0,0.9,0c0.4,0.1,0.6,0.4,1.1,0.5c0.9,0.4,1.9,0.5,2.7,0.9c0.8,0.4,1.5,0.8,2.4,1.2
					c0.6,0.2,1.2,0.4,1.8,0.5c2.4,0.6,4.7,1.1,7.1,1.4c1-0.4,2.5,0.2,3.5,0.4c0.4,0.1,0.7,0.2,1.1,0.4c1,0.2,2.1,0.1,2.8,0.6
					c1.3,1,2.7,1.8,4.2,2.6c0.7,0.3,2.4,0.9,3.8,1.5c1.5,0.6,2.8,1.3,3.3,1.5c0.7,0.4,1.4,0.6,2.1,0.8c0.8,0.3,1.5,0.6,2.3,1
					c0.1,0.1-0.4,0.2-1.2,0.1C42.4,32,41.2,31.7,39.6,31z"/>
			</g>
		</g>
	</g>
</g>
<path class="st8" d="M49,7.2h5.8v10.7h10.3V7.2H71v27.2h-5.8V22.5H54.8v11.9H49V7.2z"/>
<path class="st8" d="M76.2,13.9h5.6v20.5h-5.6V13.9z"/>
<path class="st8" d="M89.1,24.6l-0.6-12.6V7.2h5.9v4.7l-0.6,12.7L89.1,24.6L89.1,24.6z"/>
<ellipse class="st8" cx="79" cy="7.7" rx="5" ry="4.8"/>
<ellipse class="st8" cx="91.5" cy="31.5" rx="5" ry="4.8"/>
</svg>
