<?xml version="1.0" encoding="utf-8"?>
<!-- Generator: Adobe Illustrator 25.4.1, SVG Export Plug-In . SVG Version: 6.00 Build 0)  -->
<svg version="1.1" id="Warstwa_1" xmlns="http://www.w3.org/2000/svg" xmlns:xlink="http://www.w3.org/1999/xlink" x="0px" y="0px"
	 viewBox="0 0 240 80" style="enable-background:new 0 0 240 80;" xml:space="preserve">
<style type="text/css">
	.st0{fill:#7C6DFF;}
	.st1{fill:#FF5CE1;}
	.st2{fill:#FF73E5;}
	.st3{fill:#FFFFFF;}
</style>
<rect width="240" height="80"/>
<path class="st0" d="M227.8,42.2c-1.9-0.1-3.8-0.4-5.7-0.9c3.5-1,7.1-2.4,7.8-4.7c1.1-3.6-7.9-1.8-9.1-1.6c-2,0.3-4.1,0.6-6.1,0.7
	c-0.1,0-0.2-0.1-0.4-0.2c0.9-1,1.1-2-1.2-2.7c-17.1-5.2-34.9-7-52.7-5.8c-17.3,1.1-34.3,6.1-51.7,5c-3.8-0.2-8.3,1-12.1,2.4
	c-5-1.7-10-3.8-15.2-4.5c-5.4-0.8-11.3-0.6-17,0.5c-0.4-1.3-3.2-1.2-4-1.3C54.9,29,48.8,31,44,33.5c-0.3,0.2-0.6,0.3-0.9,0.5
	c-9,0.2-17.9,2.4-26,6.2c-1.1,0.5-5.6,2.2-5,4.2c0,0,0,0.1,0.1,0.1c-2.2,1-4.3,2.3-3.9,3.8c0.6,2.1,5.5,1.4,8,0.9
	c0.1,0.2,0.4,0.3,0.6,0.4c-0.9,0.6-1.9,1.1-2.8,1.7c-1.8,1.1-4,2.6-1.5,4c2.7,1.5,8.5-0.3,11.1-0.9c4.4-1.1,8.7-2.4,13-3.7
	c5.2,0.7,10.6,0.8,15.8,0.2c3.8-0.4,7.9-1.4,11.7-2.5c0.9,0.8,2,2.1,2.4,2.5c1.4,1.2,2.9,2,4.7,2.7c1.8,0.7,3.6,1,5.4,1.2
	c8.2,4.2,18,3.6,27.3,2.1c0.3,0.3,0.8,0.5,1.6,0.5c4.8,0.5,9.8,1.7,14.6,1.8c6.9,0,13.1-3,19.4-5.5c4-1.5,8-2.9,12.1-4.1
	c8-0.4,15.9-1.4,23.6-4.1c12.1,3.5,24.5,5.9,37.3,5.2c5.5-0.3,11.6-1.4,16.4-4.4C232.6,44.2,232.3,42.3,227.8,42.2z"/>
<path class="st1" d="M29.7,38.7c0.2,0.3,13.4-6,34.5-7.7c23.8-1.9,29.3,7.5,54.8,7.7c26.6,0.2,27.4-11.9,54.6-11.7
	c28.8,0.1,40.8,7.2,41.4,6.2c0.6-1-16.6-9.6-42.8-9.7c-16.8,0-38.4,7.2-45.7,8c-18.7,1.9-24.8-4.6-42.8-5.8
	C54.2,23.7,29.3,38.2,29.7,38.7z"/>
<path class="st2" d="M7.3,63.6C7.6,64,22.9,56,47.5,53.9c27.7-2.4,34.2,9.5,63.9,9.7c31,0.2,32-15,63.6-14.9
	c33.6,0.2,55.7,12.9,56.4,11.7c0.7-1.3-27.5-16.1-58.1-16.1c-19.5,0-44.7,9.2-53.3,10.1c-21.8,2.5-28.9-5.8-49.9-7.3
	C35.9,44.6,6.9,63,7.3,63.6z"/>
<g>
	<path class="st3" d="M23.7,49.8c-0.7-0.5-1.1-1.4-1.1-2.5c0-0.5,0.1-1.1,0.3-1.8l2.5-8.9h5.3L28.1,46c-0.1,0.3-0.1,0.6-0.1,0.9
		c0,0.4,0.1,0.6,0.4,0.8s0.6,0.2,1.2,0.2c0.7,0,1.4-0.2,2-0.7c0.6-0.5,1.1-1,1.3-1.8h1.5c-0.9,2-2.1,3.3-3.5,4
		c-1.4,0.7-2.8,1.1-4.2,1.1C25.4,50.6,24.4,50.3,23.7,49.8z M27,34.5c-0.6-0.4-0.9-0.9-0.9-1.5s0.3-1.1,0.9-1.6
		c0.6-0.4,1.2-0.6,2.1-0.6s1.5,0.2,2.1,0.6c0.6,0.4,0.9,1,0.9,1.6s-0.3,1.1-0.9,1.5s-1.3,0.6-2.1,0.6C28.2,35.2,27.6,34.9,27,34.5z"
		/>
	<path class="st3" d="M42.6,49.7c-0.6-0.6-0.9-1.3-0.9-2.2c0-0.4,0.1-0.8,0.2-1.3s0.2-1,0.4-1.4c0.1-0.5,0.2-0.8,0.3-0.9
		c0.2-0.6,0.4-1.3,0.5-1.9c0.2-0.6,0.3-1.1,0.3-1.5c0-0.9-0.4-1.4-1.3-1.4c-0.6,0-1.2,0.2-1.7,0.7s-0.9,1.1-1.2,1.8l-2.5,8.9h-5.3
		l3.9-13.8h5.3l-0.4,1.4c1.2-1,2.7-1.5,4.3-1.5c1.2,0,2.2,0.3,3,0.8c0.7,0.5,1.1,1.3,1.1,2.3c0,0.5-0.1,1.1-0.3,1.8
		c-0.2,0.7-0.4,1.4-0.7,2.4c-0.2,0.6-0.4,1.1-0.5,1.7c-0.2,0.5-0.2,1-0.2,1.3c0,0.4,0.1,0.7,0.3,0.9c0.2,0.2,0.6,0.3,1.1,0.3
		c0.6,0,1-0.1,1.2-0.2c-0.2,0.9-0.6,1.6-1.3,2.1c-0.8,0.5-1.7,0.7-2.7,0.7C44.1,50.6,43.2,50.3,42.6,49.7z"/>
	<path class="st3" d="M60.3,56.7c-0.8-0.5-1.2-1.1-1.2-2c0-1.1,0.6-1.9,1.7-2.5c1.1-0.6,2.6-1.2,4.3-1.6l0.4-1.5
		c-0.7,0.6-1.4,1-2.2,1.2c-0.7,0.2-1.5,0.3-2.2,0.3c-1.2,0-2.1-0.3-2.9-0.8c-0.7-0.5-1.1-1.4-1.1-2.5c0-0.5,0.1-1.1,0.3-1.8l2.5-8.9
		h5.3L62.6,46c-0.1,0.2-0.1,0.5-0.1,0.7c0,0.8,0.4,1.2,1.1,1.2c0.6,0,1.2-0.2,1.7-0.6c0.5-0.4,0.9-1,1.2-1.6l2.6-9h5.3l-3.7,12.8
		c1.2-0.3,2.1-0.7,2.8-1.3c0.7-0.6,1.3-1.5,1.8-2.6H77c-0.7,1.6-1.6,2.8-2.7,3.6c-1.1,0.8-2.4,1.3-3.8,1.6l-0.6,2
		c-0.5,1.8-1.3,3-2.5,3.7c-1.2,0.7-2.6,1-4.1,1C62.1,57.3,61.1,57.1,60.3,56.7z M63.6,54.6c0.4-0.4,0.7-1,0.9-1.8l0.2-0.8
		c-2.4,0.7-3.6,1.4-3.6,2.4c0,0.2,0.1,0.5,0.3,0.6c0.2,0.2,0.5,0.3,0.9,0.3C62.8,55.2,63.2,55,63.6,54.6z"/>
	<path class="st3" d="M76.5,49.5c-1.1-0.7-1.6-1.8-1.6-3.3c0-1.3,0.3-2.6,1-4.2s1.8-2.8,3.3-4c1.5-1.1,3.4-1.7,5.8-1.7
		c3.2,0,4.7,1.5,4.7,4.4v0c0.1,0,0.2,0,0.4,0c0.8,0,1.8-0.2,2.8-0.5c1.1-0.3,2-0.7,2.9-1.2l0.3,0.7c-0.7,0.6-1.6,1.1-2.8,1.4
		c-1.1,0.4-2.4,0.7-3.7,0.8c-0.2,1.7-0.7,3.1-1.5,4.4c-0.8,1.3-1.9,2.2-3.1,2.9c-1.3,0.7-2.7,1-4.2,1C79,50.6,77.5,50.2,76.5,49.5z
		 M84,47.3c0.6-0.5,1.1-1.2,1.6-2.1s0.8-1.8,1-2.9c-0.7-0.1-1-0.5-1-1.2c0-0.8,0.4-1.3,1.1-1.5c-0.1-0.6-0.2-1-0.4-1.3
		c-0.2-0.2-0.5-0.3-1-0.3c-0.8,0-1.6,0.4-2.4,1.3c-0.8,0.9-1.4,1.9-1.8,3.2c-0.5,1.2-0.7,2.3-0.7,3.3c0,0.9,0.1,1.5,0.4,1.8
		c0.3,0.3,0.8,0.5,1.5,0.5C82.9,48.1,83.4,47.8,84,47.3z"/>
	<path class="st3" d="M92.4,49.8c-0.7-0.5-1.1-1.4-1.1-2.5c0-0.5,0.1-1.1,0.3-1.8l2.5-8.9h5.3L96.8,46c-0.1,0.3-0.1,0.5-0.1,0.8
		c0,0.8,0.4,1.1,1.1,1.1c0.7,0,1.3-0.2,1.8-0.6c0.5-0.4,0.9-1,1.2-1.8l2.5-8.9h5.3l-2.7,9.4c-0.1,0.3-0.2,0.6-0.2,0.9
		c0,0.4,0.1,0.6,0.3,0.8c0.2,0.2,0.6,0.2,1.2,0.2c0.7,0,1.3-0.2,1.8-0.7c0.5-0.4,0.9-1,1.2-1.8h1.6c-0.9,2-2,3.3-3.4,4
		c-1.3,0.7-2.7,1.1-4,1.1c-1.1,0-1.9-0.2-2.5-0.7c-0.6-0.4-1-1.1-1.1-2c-0.8,1-1.7,1.7-2.6,2.1c-0.9,0.4-1.9,0.5-2.8,0.5
		C94.1,50.6,93.1,50.3,92.4,49.8z"/>
	<path class="st3" d="M112.7,36.6h5.3l-0.5,1.7c0.8-0.5,1.6-1,2.3-1.3c0.7-0.3,1.4-0.4,2.2-0.4c0.8,0,1.4,0.2,1.9,0.6
		c0.4,0.4,0.7,0.9,0.7,1.5c0,0.5-0.2,1-0.7,1.4c-0.5,0.4-1.1,0.6-2,0.6c-0.5,0-0.9-0.1-1.1-0.3c-0.2-0.2-0.3-0.5-0.4-0.8
		c-0.1-0.2-0.2-0.4-0.2-0.5s-0.2-0.2-0.4-0.2c-0.5,0-0.9,0.1-1.3,0.2s-0.8,0.4-1.4,0.8l-2.9,10.5h-5.3L112.7,36.6z"/>
	<path class="st3" d="M125.7,56.5c-0.9-0.6-1.3-1.3-1.3-2.1c0-0.8,0.3-1.4,0.8-2c0.5-0.5,1.2-0.9,2.1-1.2s2-0.6,3.4-1l4.5-15.8
		c0.5-1.8,1.4-3,2.6-3.7s2.6-1,4.1-1c1.2,0,2.2,0.3,3,0.8c0.9,0.6,1.3,1.3,1.3,2.1c0,0.4,0,0.8-0.1,1.1h-1.7
		c0.1-0.4,0.1-0.7,0.1-0.7c0-0.3-0.1-0.5-0.4-0.7c-0.3-0.2-0.6-0.2-1-0.2c-0.5,0-1,0.2-1.5,0.5c-0.5,0.3-0.9,0.9-1.1,1.8l-0.6,2.2
		h2.7l-0.3,1.1h-2.7l-4.2,14.9c-0.5,1.8-1.3,3-2.5,3.7c-1.2,0.7-2.6,1-4.1,1C127.6,57.3,126.6,57.1,125.7,56.5z M130,52.7l0.5-1.6
		c-1.3,0.3-2.3,0.7-3,1.1c-0.7,0.4-1.1,1-1.1,1.7c0,0.2,0.2,0.4,0.4,0.6c0.3,0.2,0.6,0.3,1,0.3C128.9,54.9,129.6,54.2,130,52.7z"/>
	<path class="st3" d="M144.4,36.6h5.3l-0.5,1.7c0.8-0.5,1.6-1,2.3-1.3c0.7-0.3,1.4-0.4,2.2-0.4s1.4,0.2,1.9,0.6
		c0.4,0.4,0.7,0.9,0.7,1.5c0,0.5-0.2,1-0.7,1.4c-0.5,0.4-1.1,0.6-2,0.6c-0.5,0-0.9-0.1-1.1-0.3c-0.2-0.2-0.3-0.5-0.4-0.8
		c-0.1-0.2-0.1-0.4-0.2-0.5s-0.2-0.2-0.4-0.2c-0.5,0-0.9,0.1-1.3,0.2s-0.8,0.4-1.4,0.8l-2.9,10.5h-5.3L144.4,36.6z"/>
	<path class="st3" d="M156.6,49.8c-0.7-0.5-1.1-1.4-1.1-2.5c0-0.5,0.1-1.1,0.3-1.8l2.5-8.9h5.3L161,46c-0.1,0.3-0.1,0.6-0.1,0.9
		c0,0.4,0.1,0.6,0.4,0.8c0.2,0.2,0.6,0.2,1.2,0.2c0.7,0,1.4-0.2,2-0.7c0.6-0.5,1.1-1,1.3-1.8h1.6c-0.9,2-2.1,3.3-3.5,4
		c-1.4,0.7-2.8,1.1-4.2,1.1C158.3,50.6,157.3,50.3,156.6,49.8z M159.9,34.5c-0.6-0.4-0.9-0.9-0.9-1.5s0.3-1.1,0.9-1.6
		c0.6-0.4,1.2-0.6,2.1-0.6c0.8,0,1.5,0.2,2.1,0.6c0.6,0.4,0.9,1,0.9,1.6s-0.3,1.1-0.9,1.5s-1.3,0.6-2.1,0.6
		C161.1,35.2,160.5,34.9,159.9,34.5z"/>
	<path class="st3" d="M166.6,49.5c-0.9-0.7-1.4-1.8-1.4-3.4c0-1.4,0.4-2.8,1.1-4.3s1.8-2.8,3.2-3.8c1.4-1,3.1-1.6,5.1-1.6
		c1,0,1.8,0.1,2.2,0.4s0.7,0.6,0.7,1V38l1.8-6.3l5.5-0.5L180.7,46c-0.1,0.3-0.1,0.6-0.1,0.9c0,0.4,0.1,0.6,0.4,0.8
		c0.2,0.2,0.6,0.2,1.2,0.2c0.7,0,1.3-0.2,1.8-0.7c0.5-0.4,0.9-1,1.2-1.8h1.6c-1.5,3.3-4,4.9-7.4,4.9c-1,0-1.8-0.2-2.4-0.6
		c-0.6-0.4-1-1-1.2-1.8c-0.6,0.7-1.4,1.3-2.3,1.8s-1.9,0.7-3.1,0.7C168.7,50.6,167.5,50.3,166.6,49.5z M174.3,47.3
		c0.6-0.4,1-1,1.2-1.7v-0.1l1.8-6.3c-0.2-0.6-0.7-1-1.5-1c-1,0-1.9,0.4-2.7,1.3c-0.8,0.9-1.4,1.9-1.8,3.1c-0.4,1.2-0.7,2.3-0.7,3.2
		s0.2,1.5,0.5,1.8s0.8,0.4,1.3,0.4C173.1,47.9,173.7,47.7,174.3,47.3z"/>
	<path class="st3" d="M188.6,56.7c-0.8-0.5-1.2-1.1-1.2-2c0-1.1,0.6-1.9,1.7-2.5c1.1-0.6,2.6-1.2,4.3-1.6l0.4-1.5
		c-1.2,1-2.7,1.5-4.4,1.5c-1.4,0-2.6-0.4-3.5-1.1c-0.9-0.7-1.4-1.8-1.4-3.4c0-1.4,0.4-2.8,1.1-4.3s1.8-2.8,3.2-3.8
		c1.4-1,3.1-1.6,5.1-1.6c1,0,1.8,0.1,2.2,0.4s0.7,0.6,0.7,1v0.2l0.4-1.4h5.3l-3.6,12.8c1.2-0.3,2.1-0.7,2.8-1.3
		c0.7-0.6,1.3-1.5,1.8-2.6h1.6c-0.7,1.6-1.6,2.8-2.7,3.6c-1.1,0.8-2.4,1.3-3.8,1.6l-0.6,2c-0.5,1.8-1.3,3-2.5,3.7
		c-1.2,0.7-2.6,1-4.1,1C190.4,57.3,189.4,57.1,188.6,56.7z M191.9,54.6c0.4-0.4,0.7-1,0.9-1.8l0.2-0.8c-2.4,0.7-3.6,1.4-3.6,2.4
		c0,0.2,0.1,0.5,0.3,0.6c0.2,0.2,0.5,0.3,0.9,0.3C191.1,55.2,191.5,55,191.9,54.6z M193.6,47.4c0.6-0.4,1-0.9,1.2-1.6l1.9-6.5
		c0-0.2-0.1-0.4-0.4-0.7c-0.2-0.2-0.6-0.3-1.1-0.3c-1,0-1.9,0.4-2.7,1.3c-0.8,0.9-1.4,1.9-1.8,3.1c-0.4,1.2-0.7,2.3-0.7,3.2
		s0.2,1.5,0.5,1.8s0.8,0.4,1.3,0.4C192.4,47.9,193,47.7,193.6,47.4z"/>
	<path class="st3" d="M204.7,49.5c-1-0.7-1.5-1.8-1.5-3.3c0-1.3,0.3-2.7,1-4.2c0.7-1.5,1.8-2.8,3.2-4s3.4-1.7,5.7-1.7
		c2.7,0,4.1,0.9,4.1,2.7c0,1-0.4,2-1.2,2.8c-0.8,0.9-1.8,1.6-3.1,2.1c-1.3,0.5-2.7,0.8-4.2,0.9c-0.1,0.4-0.1,0.7-0.1,0.8
		c0,1.5,0.8,2.3,2.3,2.3c0.7,0,1.4-0.1,2.2-0.4c0.8-0.3,1.5-0.6,2.1-1.1c-0.7,2.7-2.8,4.1-6.4,4.1C207.1,50.6,205.7,50.3,204.7,49.5
		z M211.6,42.9c0.8-0.4,1.5-1,2-1.7c0.5-0.7,0.8-1.4,0.8-2.2c0-0.8-0.3-1.1-0.9-1.1c-0.9,0-1.7,0.6-2.6,1.8
		c-0.8,1.2-1.5,2.5-1.9,3.9C209.9,43.5,210.8,43.3,211.6,42.9z"/>
</g>
</svg>
