<?xml version="1.0" encoding="utf-8"?>
<!-- Generator: Adobe Illustrator 25.4.1, SVG Export Plug-In . SVG Version: 6.00 Build 0)  -->
<svg version="1.1" id="Warstwa_1" xmlns="http://www.w3.org/2000/svg" xmlns:xlink="http://www.w3.org/1999/xlink" x="0px" y="0px"
	 viewBox="0 0 240 80" style="enable-background:new 0 0 240 80;" xml:space="preserve">
<style type="text/css">
	.st0{fill:url(#SVGID_1_);}
	.st1{fill:url(#SVGID_00000065062627822816050250000000301625033412798864_);}
	.st2{fill:url(#SVGID_00000165227181748509957020000012348348844762991238_);}
	.st3{clip-path:url(#SVGID_00000029748331680824588260000006157473373707077817_);}
	.st4{clip-path:url(#SVGID_00000083054543840787733330000016812590485628647594_);}
	.st5{clip-path:url(#SVGID_00000085231439165316520180000004624912995546833562_);}
	.st6{clip-path:url(#SVGID_00000057831379467640489620000010386262381234860943_);}
	.st7{clip-path:url(#SVGID_00000169527844537104715430000012389577654403326121_);}
	.st8{clip-path:url(#SVGID_00000045602674596552010220000008457759679783765638_);}
	.st9{clip-path:url(#SVGID_00000080188492133598849550000012423451543687539372_);}
	.st10{clip-path:url(#SVGID_00000124122910316897507110000000817183369835563933_);}
	.st11{clip-path:url(#SVGID_00000141429310975013705090000017264376914575035286_);}
	.st12{clip-path:url(#SVGID_00000073695997875720722330000007120541654793094079_);}
	.st13{clip-path:url(#SVGID_00000023974071972358609010000009331534913883654047_);}
	.st14{clip-path:url(#SVGID_00000108281715214661772930000012003828351346873480_);}
	.st15{clip-path:url(#SVGID_00000142142113880364536230000014330997355380818863_);}
	.st16{clip-path:url(#SVGID_00000161611034830498903290000017165061158628525488_);}
	.st17{clip-path:url(#SVGID_00000152983592099499792190000007597551118080742039_);}
	.st18{clip-path:url(#SVGID_00000039836375801770042340000011030612652909502136_);}
	.st19{clip-path:url(#SVGID_00000114774303221623309550000011994104450757796256_);}
	.st20{clip-path:url(#SVGID_00000139290407168202859170000016157787040103914928_);}
	.st21{clip-path:url(#SVGID_00000020356593184626378890000018111411441031017871_);}
	.st22{clip-path:url(#SVGID_00000139255261032808387400000010601490477063619759_);}
</style>
<linearGradient id="SVGID_1_" gradientUnits="userSpaceOnUse" x1="119.8571" y1="26.6431" x2="119.8571" y2="59.2">
	<stop  offset="0" style="stop-color:#FFFFFF"/>
	<stop  offset="0.4112" style="stop-color:#21FFD7"/>
	<stop  offset="0.4893" style="stop-color:#26EFC2"/>
	<stop  offset="0.6149" style="stop-color:#2DD9A6"/>
	<stop  offset="0.7418" style="stop-color:#32CA93"/>
	<stop  offset="0.8697" style="stop-color:#35C187"/>
	<stop  offset="1" style="stop-color:#36BE83"/>
</linearGradient>
<path class="st0" d="M227.8,42.2c-1.9-0.1-3.8-0.4-5.7-0.9c3.5-1,7.1-2.4,7.8-4.7c1.1-3.6-7.9-1.8-9.1-1.6c-2,0.3-4.1,0.6-6.1,0.7
	c-0.1,0-0.2-0.1-0.4-0.2c0.9-1,1.1-2-1.2-2.7c-17.1-5.2-34.9-7-52.7-5.8c-17.3,1.1-34.3,6.1-51.7,5c-3.8-0.2-8.3,1-12.1,2.4
	c-5-1.7-10-3.8-15.2-4.5c-5.4-0.8-11.3-0.6-17,0.5c-0.4-1.3-3.2-1.2-4-1.3C54.9,29,48.8,31,44,33.5c-0.3,0.2-0.6,0.3-0.9,0.5
	c-9,0.2-17.9,2.4-26,6.2c-1.1,0.5-5.6,2.2-5,4.2c0,0,0,0.1,0.1,0.1c-2.2,1-4.3,2.3-3.9,3.8c0.6,2.1,5.5,1.4,8,0.9
	c0.1,0.2,0.4,0.3,0.6,0.4c-0.9,0.6-1.9,1.1-2.8,1.7c-1.8,1.1-4,2.6-1.5,4c2.7,1.5,8.5-0.3,11.1-0.9c4.4-1.1,8.7-2.4,13-3.7
	c5.2,0.7,10.6,0.8,15.8,0.2c3.8-0.4,7.9-1.4,11.7-2.5c0.9,0.8,2,2.1,2.4,2.5c1.4,1.2,2.9,2,4.7,2.7c1.8,0.7,3.6,1,5.4,1.2
	c8.2,4.2,18,3.6,27.3,2.1c0.3,0.3,0.8,0.5,1.6,0.5c4.8,0.5,9.8,1.7,14.6,1.8c6.9,0,13.1-3,19.4-5.5c4-1.5,8-2.9,12.1-4.1
	c8-0.4,15.9-1.4,23.6-4.1c12.1,3.5,24.5,5.9,37.3,5.2c5.5-0.3,11.6-1.4,16.4-4.4C232.6,44.2,232.3,42.3,227.8,42.2z"/>
<linearGradient id="SVGID_00000138562035885705565760000008126285342124849286_" gradientUnits="userSpaceOnUse" x1="122.3552" y1="38.7104" x2="122.3552" y2="23.5">
	<stop  offset="0" style="stop-color:#FFCCF3"/>
	<stop  offset="7.952106e-02" style="stop-color:#FFB6F1"/>
	<stop  offset="0.2443" style="stop-color:#FF7DED"/>
	<stop  offset="0.3622" style="stop-color:#FF51EA"/>
	<stop  offset="0.4655" style="stop-color:#E33CD3"/>
	<stop  offset="0.619" style="stop-color:#C022B7"/>
	<stop  offset="0.7637" style="stop-color:#A70FA3"/>
	<stop  offset="0.8947" style="stop-color:#970496"/>
	<stop  offset="1" style="stop-color:#920092"/>
</linearGradient>
<path style="fill:url(#SVGID_00000138562035885705565760000008126285342124849286_);" d="M29.7,38.7c0.2,0.3,13.4-6,34.5-7.7
	c23.8-1.9,29.3,7.5,54.8,7.7c26.6,0.2,27.4-11.9,54.6-11.7c28.8,0.1,40.8,7.2,41.4,6.2c0.6-1-16.6-9.6-42.8-9.7
	c-16.8,0-38.4,7.2-45.7,8c-18.7,1.9-24.8-4.6-42.8-5.8C54.2,23.7,29.3,38.2,29.7,38.7z"/>
<linearGradient id="SVGID_00000179631760123421864300000006304426436393852068_" gradientUnits="userSpaceOnUse" x1="119.3543" y1="63.6145" x2="119.3543" y2="44.3">
	<stop  offset="0" style="stop-color:#FFCCF3"/>
	<stop  offset="7.952106e-02" style="stop-color:#FFB6F1"/>
	<stop  offset="0.2443" style="stop-color:#FF7DED"/>
	<stop  offset="0.3622" style="stop-color:#FF51EA"/>
	<stop  offset="0.4655" style="stop-color:#E33CD3"/>
	<stop  offset="0.619" style="stop-color:#C022B7"/>
	<stop  offset="0.7637" style="stop-color:#A70FA3"/>
	<stop  offset="0.8947" style="stop-color:#970496"/>
	<stop  offset="1" style="stop-color:#920092"/>
</linearGradient>
<path style="fill:url(#SVGID_00000179631760123421864300000006304426436393852068_);" d="M7.3,63.6C7.6,64,22.9,56,47.5,53.9
	c27.7-2.4,34.2,9.5,63.9,9.7c31,0.2,32-15,63.6-14.9c33.6,0.2,55.7,12.9,56.4,11.7c0.7-1.3-27.5-16.1-58.1-16.1
	c-19.5,0-44.7,9.2-53.3,10.1c-21.8,2.5-28.9-5.8-49.9-7.3C35.9,44.6,6.9,63,7.3,63.6z"/>
<g>
	<path d="M23.7,49.8c-0.7-0.5-1.1-1.4-1.1-2.5c0-0.5,0.1-1.1,0.3-1.8l2.5-8.9h5.3L28.1,46C28,46.3,28,46.6,28,46.9
		c0,0.4,0.1,0.6,0.4,0.8s0.6,0.2,1.2,0.2c0.7,0,1.4-0.2,2-0.7s1.1-1,1.3-1.8h1.5c-0.9,2-2.1,3.3-3.5,4c-1.4,0.7-2.8,1.1-4.2,1.1
		C25.4,50.6,24.4,50.3,23.7,49.8z M27,34.5c-0.6-0.4-0.9-0.9-0.9-1.5s0.3-1.1,0.9-1.6c0.6-0.4,1.2-0.6,2.1-0.6s1.5,0.2,2.1,0.6
		s0.9,1,0.9,1.6s-0.3,1.1-0.9,1.5s-1.3,0.6-2.1,0.6C28.2,35.2,27.6,34.9,27,34.5z"/>
	<path d="M42.6,49.7c-0.6-0.6-0.9-1.3-0.9-2.2c0-0.4,0.1-0.8,0.2-1.3s0.2-1,0.4-1.4c0.1-0.5,0.2-0.8,0.3-0.9
		c0.2-0.6,0.4-1.3,0.5-1.9c0.2-0.6,0.3-1.1,0.3-1.5c0-0.9-0.4-1.4-1.3-1.4c-0.6,0-1.2,0.2-1.7,0.7s-0.9,1.1-1.2,1.8l-2.5,8.9h-5.3
		l3.9-13.8h5.3l-0.4,1.4c1.2-1,2.7-1.5,4.3-1.5c1.2,0,2.2,0.3,3,0.8c0.7,0.5,1.1,1.3,1.1,2.3c0,0.5-0.1,1.1-0.3,1.8
		s-0.4,1.4-0.7,2.4c-0.2,0.6-0.4,1.1-0.5,1.7c-0.2,0.5-0.2,1-0.2,1.3c0,0.4,0.1,0.7,0.3,0.9s0.6,0.3,1.1,0.3c0.6,0,1-0.1,1.2-0.2
		c-0.2,0.9-0.6,1.6-1.3,2.1c-0.8,0.5-1.7,0.7-2.7,0.7C44.1,50.6,43.2,50.3,42.6,49.7z"/>
	<path d="M60.3,56.7c-0.8-0.5-1.2-1.1-1.2-2c0-1.1,0.6-1.9,1.7-2.5c1.1-0.6,2.6-1.2,4.3-1.6l0.4-1.5c-0.7,0.6-1.4,1-2.2,1.2
		c-0.7,0.2-1.5,0.3-2.2,0.3c-1.2,0-2.1-0.3-2.9-0.8c-0.7-0.5-1.1-1.4-1.1-2.5c0-0.5,0.1-1.1,0.3-1.8l2.5-8.9h5.3L62.6,46
		c-0.1,0.2-0.1,0.5-0.1,0.7c0,0.8,0.4,1.2,1.1,1.2c0.6,0,1.2-0.2,1.7-0.6c0.5-0.4,0.9-1,1.2-1.6l2.6-9h5.3l-3.7,12.8
		c1.2-0.3,2.1-0.7,2.8-1.3c0.7-0.6,1.3-1.5,1.8-2.6H77c-0.7,1.6-1.6,2.8-2.7,3.6s-2.4,1.3-3.8,1.6l-0.6,2c-0.5,1.8-1.3,3-2.5,3.7
		s-2.6,1-4.1,1C62.1,57.3,61.1,57.1,60.3,56.7z M63.6,54.6c0.4-0.4,0.7-1,0.9-1.8l0.2-0.8c-2.4,0.7-3.6,1.4-3.6,2.4
		c0,0.2,0.1,0.5,0.3,0.6c0.2,0.2,0.5,0.3,0.9,0.3C62.8,55.2,63.2,55,63.6,54.6z"/>
	<path d="M76.5,49.5c-1.1-0.7-1.6-1.8-1.6-3.3c0-1.3,0.3-2.6,1-4.2s1.8-2.8,3.3-4c1.5-1.1,3.4-1.7,5.8-1.7c3.2,0,4.7,1.5,4.7,4.4
		l0,0c0.1,0,0.2,0,0.4,0c0.8,0,1.8-0.2,2.8-0.5c1.1-0.3,2-0.7,2.9-1.2l0.3,0.7c-0.7,0.6-1.6,1.1-2.8,1.4c-1.1,0.4-2.4,0.7-3.7,0.8
		c-0.2,1.7-0.7,3.1-1.5,4.4c-0.8,1.3-1.9,2.2-3.1,2.9c-1.3,0.7-2.7,1-4.2,1C79,50.6,77.5,50.2,76.5,49.5z M84,47.3
		c0.6-0.5,1.1-1.2,1.6-2.1s0.8-1.8,1-2.9c-0.7-0.1-1-0.5-1-1.2c0-0.8,0.4-1.3,1.1-1.5c-0.1-0.6-0.2-1-0.4-1.3
		c-0.2-0.2-0.5-0.3-1-0.3c-0.8,0-1.6,0.4-2.4,1.3c-0.8,0.9-1.4,1.9-1.8,3.2c-0.5,1.2-0.7,2.3-0.7,3.3c0,0.9,0.1,1.5,0.4,1.8
		s0.8,0.5,1.5,0.5C82.9,48.1,83.4,47.8,84,47.3z"/>
	<path d="M92.4,49.8c-0.7-0.5-1.1-1.4-1.1-2.5c0-0.5,0.1-1.1,0.3-1.8l2.5-8.9h5.3L96.8,46c-0.1,0.3-0.1,0.5-0.1,0.8
		c0,0.8,0.4,1.1,1.1,1.1s1.3-0.2,1.8-0.6c0.5-0.4,0.9-1,1.2-1.8l2.5-8.9h5.3l-2.7,9.4c-0.1,0.3-0.2,0.6-0.2,0.9
		c0,0.4,0.1,0.6,0.3,0.8c0.2,0.2,0.6,0.2,1.2,0.2c0.7,0,1.3-0.2,1.8-0.7c0.5-0.4,0.9-1,1.2-1.8h1.6c-0.9,2-2,3.3-3.4,4
		c-1.3,0.7-2.7,1.1-4,1.1c-1.1,0-1.9-0.2-2.5-0.7c-0.6-0.4-1-1.1-1.1-2c-0.8,1-1.7,1.7-2.6,2.1c-0.9,0.4-1.9,0.5-2.8,0.5
		C94.1,50.6,93.1,50.3,92.4,49.8z"/>
	<path d="M112.7,36.6h5.3l-0.5,1.7c0.8-0.5,1.6-1,2.3-1.3c0.7-0.3,1.4-0.4,2.2-0.4c0.8,0,1.4,0.2,1.9,0.6c0.4,0.4,0.7,0.9,0.7,1.5
		c0,0.5-0.2,1-0.7,1.4s-1.1,0.6-2,0.6c-0.5,0-0.9-0.1-1.1-0.3s-0.3-0.5-0.4-0.8c-0.1-0.2-0.2-0.4-0.2-0.5s-0.2-0.2-0.4-0.2
		c-0.5,0-0.9,0.1-1.3,0.2s-0.8,0.4-1.4,0.8l-2.9,10.5h-5.3L112.7,36.6z"/>
	<path d="M125.7,56.5c-0.9-0.6-1.3-1.3-1.3-2.1s0.3-1.4,0.8-2c0.5-0.5,1.2-0.9,2.1-1.2s2-0.6,3.4-1l4.5-15.8c0.5-1.8,1.4-3,2.6-3.7
		s2.6-1,4.1-1c1.2,0,2.2,0.3,3,0.8c0.9,0.6,1.3,1.3,1.3,2.1c0,0.4,0,0.8-0.1,1.1h-1.7c0.1-0.4,0.1-0.7,0.1-0.7
		c0-0.3-0.1-0.5-0.4-0.7c-0.3-0.2-0.6-0.2-1-0.2c-0.5,0-1,0.2-1.5,0.5s-0.9,0.9-1.1,1.8l-0.6,2.2h2.7l-0.3,1.1h-2.7l-4.2,14.9
		c-0.5,1.8-1.3,3-2.5,3.7s-2.6,1-4.1,1C127.6,57.3,126.6,57.1,125.7,56.5z M130,52.7l0.5-1.6c-1.3,0.3-2.3,0.7-3,1.1
		c-0.7,0.4-1.1,1-1.1,1.7c0,0.2,0.2,0.4,0.4,0.6c0.3,0.2,0.6,0.3,1,0.3C128.9,54.9,129.6,54.2,130,52.7z"/>
	<path d="M144.4,36.6h5.3l-0.5,1.7c0.8-0.5,1.6-1,2.3-1.3s1.4-0.4,2.2-0.4s1.4,0.2,1.9,0.6c0.4,0.4,0.7,0.9,0.7,1.5
		c0,0.5-0.2,1-0.7,1.4s-1.1,0.6-2,0.6c-0.5,0-0.9-0.1-1.1-0.3c-0.2-0.2-0.3-0.5-0.4-0.8c-0.1-0.2-0.1-0.4-0.2-0.5s-0.2-0.2-0.4-0.2
		c-0.5,0-0.9,0.1-1.3,0.2s-0.8,0.4-1.4,0.8l-2.9,10.5h-5.3L144.4,36.6z"/>
	<path d="M156.6,49.8c-0.7-0.5-1.1-1.4-1.1-2.5c0-0.5,0.1-1.1,0.3-1.8l2.5-8.9h5.3L161,46c-0.1,0.3-0.1,0.6-0.1,0.9
		c0,0.4,0.1,0.6,0.4,0.8c0.2,0.2,0.6,0.2,1.2,0.2c0.7,0,1.4-0.2,2-0.7s1.1-1,1.3-1.8h1.6c-0.9,2-2.1,3.3-3.5,4s-2.8,1.1-4.2,1.1
		C158.3,50.6,157.3,50.3,156.6,49.8z M159.9,34.5c-0.6-0.4-0.9-0.9-0.9-1.5s0.3-1.1,0.9-1.6c0.6-0.4,1.2-0.6,2.1-0.6
		c0.8,0,1.5,0.2,2.1,0.6s0.9,1,0.9,1.6s-0.3,1.1-0.9,1.5s-1.3,0.6-2.1,0.6C161.1,35.2,160.5,34.9,159.9,34.5z"/>
	<path d="M166.6,49.5c-0.9-0.7-1.4-1.8-1.4-3.4c0-1.4,0.4-2.8,1.1-4.3s1.8-2.8,3.2-3.8s3.1-1.6,5.1-1.6c1,0,1.8,0.1,2.2,0.4
		s0.7,0.6,0.7,1V38l1.8-6.3l5.5-0.5L180.7,46c-0.1,0.3-0.1,0.6-0.1,0.9c0,0.4,0.1,0.6,0.4,0.8c0.2,0.2,0.6,0.2,1.2,0.2
		c0.7,0,1.3-0.2,1.8-0.7c0.5-0.4,0.9-1,1.2-1.8h1.6c-1.5,3.3-4,4.9-7.4,4.9c-1,0-1.8-0.2-2.4-0.6c-0.6-0.4-1-1-1.2-1.8
		c-0.6,0.7-1.4,1.3-2.3,1.8s-1.9,0.7-3.1,0.7C168.7,50.6,167.5,50.3,166.6,49.5z M174.3,47.3c0.6-0.4,1-1,1.2-1.7v-0.1l1.8-6.3
		c-0.2-0.6-0.7-1-1.5-1c-1,0-1.9,0.4-2.7,1.3c-0.8,0.9-1.4,1.9-1.8,3.1c-0.4,1.2-0.7,2.3-0.7,3.2s0.2,1.5,0.5,1.8s0.8,0.4,1.3,0.4
		C173.1,47.9,173.7,47.7,174.3,47.3z"/>
	<path d="M188.6,56.7c-0.8-0.5-1.2-1.1-1.2-2c0-1.1,0.6-1.9,1.7-2.5c1.1-0.6,2.6-1.2,4.3-1.6l0.4-1.5c-1.2,1-2.7,1.5-4.4,1.5
		c-1.4,0-2.6-0.4-3.5-1.1c-0.9-0.7-1.4-1.8-1.4-3.4c0-1.4,0.4-2.8,1.1-4.3s1.8-2.8,3.2-3.8s3.1-1.6,5.1-1.6c1,0,1.8,0.1,2.2,0.4
		s0.7,0.6,0.7,1V38l0.4-1.4h5.3l-3.6,12.8c1.2-0.3,2.1-0.7,2.8-1.3s1.3-1.5,1.8-2.6h1.6c-0.7,1.6-1.6,2.8-2.7,3.6
		c-1.1,0.8-2.4,1.3-3.8,1.6l-0.6,2c-0.5,1.8-1.3,3-2.5,3.7s-2.6,1-4.1,1C190.4,57.3,189.4,57.1,188.6,56.7z M191.9,54.6
		c0.4-0.4,0.7-1,0.9-1.8L193,52c-2.4,0.7-3.6,1.4-3.6,2.4c0,0.2,0.1,0.5,0.3,0.6c0.2,0.2,0.5,0.3,0.9,0.3
		C191.1,55.2,191.5,55,191.9,54.6z M193.6,47.4c0.6-0.4,1-0.9,1.2-1.6l1.9-6.5c0-0.2-0.1-0.4-0.4-0.7c-0.2-0.2-0.6-0.3-1.1-0.3
		c-1,0-1.9,0.4-2.7,1.3c-0.8,0.9-1.4,1.9-1.8,3.1c-0.4,1.2-0.7,2.3-0.7,3.2s0.2,1.5,0.5,1.8s0.8,0.4,1.3,0.4
		C192.4,47.9,193,47.7,193.6,47.4z"/>
	<path d="M204.7,49.5c-1-0.7-1.5-1.8-1.5-3.3c0-1.3,0.3-2.7,1-4.2s1.8-2.8,3.2-4s3.4-1.7,5.7-1.7c2.7,0,4.1,0.9,4.1,2.7
		c0,1-0.4,2-1.2,2.8c-0.8,0.9-1.8,1.6-3.1,2.1s-2.7,0.8-4.2,0.9c-0.1,0.4-0.1,0.7-0.1,0.8c0,1.5,0.8,2.3,2.3,2.3
		c0.7,0,1.4-0.1,2.2-0.4c0.8-0.3,1.5-0.6,2.1-1.1c-0.7,2.7-2.8,4.1-6.4,4.1C207.1,50.6,205.7,50.3,204.7,49.5z M211.6,42.9
		c0.8-0.4,1.5-1,2-1.7s0.8-1.4,0.8-2.2s-0.3-1.1-0.9-1.1c-0.9,0-1.7,0.6-2.6,1.8c-0.8,1.2-1.5,2.5-1.9,3.9
		C209.9,43.5,210.8,43.3,211.6,42.9z"/>
</g>
<g>
	<g>
		<defs>
			<path id="SVGID_00000142858265921760060100000017909322470169074078_" d="M24,45.8c-0.3-0.4-0.5,2.8,1.2,3.5
				c0.9,0.4,3.6-0.2,3.2-0.3C25.3,48.7,25.3,48.1,24,45.8z"/>
		</defs>
		<clipPath id="SVGID_00000021106194325094262370000012968222104100582587_">
			<use xlink:href="#SVGID_00000142858265921760060100000017909322470169074078_"  style="overflow:visible;"/>
		</clipPath>
		<g style="clip-path:url(#SVGID_00000021106194325094262370000012968222104100582587_);">
		</g>
	</g>
</g>
<g>
	<g>
		<defs>
			<path id="SVGID_00000182490492221202242250000000697884715200989091_" d="M43,45.8c-0.3-0.4-0.5,2.8,1.2,3.5
				c0.9,0.4,3.6-0.2,3.2-0.3C44.3,48.7,44.3,48.1,43,45.8z"/>
		</defs>
		<clipPath id="SVGID_00000122683855752962128220000012121144995451842990_">
			<use xlink:href="#SVGID_00000182490492221202242250000000697884715200989091_"  style="overflow:visible;"/>
		</clipPath>
		<g style="clip-path:url(#SVGID_00000122683855752962128220000012121144995451842990_);">
		</g>
	</g>
</g>
<g>
	<g>
		<defs>
			<path id="SVGID_00000163793925042781637030000016361901803068820115_" d="M58,45.8c-0.3-0.4-0.5,2.8,1.2,3.5
				c0.9,0.4,3.6-0.2,3.2-0.3C59.3,48.7,59.3,48.1,58,45.8z"/>
		</defs>
		<clipPath id="SVGID_00000060710940580332428340000008244853364715338933_">
			<use xlink:href="#SVGID_00000163793925042781637030000016361901803068820115_"  style="overflow:visible;"/>
		</clipPath>
		<g style="clip-path:url(#SVGID_00000060710940580332428340000008244853364715338933_);">
		</g>
	</g>
</g>
<g>
	<g>
		<defs>
			<path id="SVGID_00000050629909420907085550000009525958032899910068_" d="M76,45.8c-0.3-0.4-0.5,2.8,1.2,3.5
				c0.9,0.4,3.6-0.2,3.2-0.3C77.3,48.7,77.3,48.1,76,45.8z"/>
		</defs>
		<clipPath id="SVGID_00000147189939268020626970000015970508114901726116_">
			<use xlink:href="#SVGID_00000050629909420907085550000009525958032899910068_"  style="overflow:visible;"/>
		</clipPath>
		<g style="clip-path:url(#SVGID_00000147189939268020626970000015970508114901726116_);">
		</g>
	</g>
</g>
<g>
	<g>
		<defs>
			<path id="SVGID_00000011025683140169835960000009948768186967108248_" d="M93,45.8c-0.3-0.4-0.5,2.8,1.2,3.5
				c0.9,0.4,3.6-0.2,3.2-0.3C94.3,48.7,94.3,48.1,93,45.8z"/>
		</defs>
		<clipPath id="SVGID_00000072263334006067422650000011675287926937084301_">
			<use xlink:href="#SVGID_00000011025683140169835960000009948768186967108248_"  style="overflow:visible;"/>
		</clipPath>
		<g style="clip-path:url(#SVGID_00000072263334006067422650000011675287926937084301_);">
		</g>
	</g>
</g>
<g>
	<g>
		<defs>
			<path id="SVGID_00000063606167878798260590000011249281336079840147_" d="M103,45.8c-0.3-0.4-0.5,2.8,1.2,3.5
				c0.9,0.4,3.6-0.2,3.2-0.3C104.3,48.7,104.3,48.1,103,45.8z"/>
		</defs>
		<clipPath id="SVGID_00000134964253992736052920000009798622062001185686_">
			<use xlink:href="#SVGID_00000063606167878798260590000011249281336079840147_"  style="overflow:visible;"/>
		</clipPath>
		<g style="clip-path:url(#SVGID_00000134964253992736052920000009798622062001185686_);">
		</g>
	</g>
</g>
<g>
	<g>
		<defs>
			<path id="SVGID_00000004523146951411010810000017750426393442680744_" d="M157,45.8c-0.3-0.4-0.5,2.8,1.2,3.5
				c0.9,0.4,3.6-0.2,3.2-0.3C158.3,48.7,158.3,48.1,157,45.8z"/>
		</defs>
		<clipPath id="SVGID_00000044866312123059809200000004384171766998967175_">
			<use xlink:href="#SVGID_00000004523146951411010810000017750426393442680744_"  style="overflow:visible;"/>
		</clipPath>
		<g style="clip-path:url(#SVGID_00000044866312123059809200000004384171766998967175_);">
		</g>
	</g>
</g>
<g>
	<g>
		<defs>
			<path id="SVGID_00000183951156088650524420000001604465951253085854_" d="M167,45.8c-0.3-0.4-0.5,2.8,1.2,3.5
				c0.9,0.4,3.6-0.2,3.2-0.3C168.3,48.7,168.3,48.1,167,45.8z"/>
		</defs>
		<clipPath id="SVGID_00000056423252823478028520000006069248107481096093_">
			<use xlink:href="#SVGID_00000183951156088650524420000001604465951253085854_"  style="overflow:visible;"/>
		</clipPath>
		<g style="clip-path:url(#SVGID_00000056423252823478028520000006069248107481096093_);">
		</g>
	</g>
</g>
<g>
	<g>
		<defs>
			<path id="SVGID_00000022553502620548498070000010038713778708469379_" d="M177,45.8c-0.3-0.4-0.5,2.8,1.2,3.5
				c0.9,0.4,3.6-0.2,3.2-0.3C178.3,48.7,178.3,48.1,177,45.8z"/>
		</defs>
		<clipPath id="SVGID_00000129192348942686135560000006101558398565269145_">
			<use xlink:href="#SVGID_00000022553502620548498070000010038713778708469379_"  style="overflow:visible;"/>
		</clipPath>
		<g style="clip-path:url(#SVGID_00000129192348942686135560000006101558398565269145_);">
		</g>
	</g>
</g>
<g>
	<g>
		<defs>
			<path id="SVGID_00000072248209033869679560000016525120737147777167_" d="M187,45.8c-0.3-0.4-0.5,2.8,1.2,3.5
				c0.9,0.4,3.6-0.2,3.2-0.3C188.3,48.7,188.3,48.1,187,45.8z"/>
		</defs>
		<clipPath id="SVGID_00000057136542120574510950000006846506711708549537_">
			<use xlink:href="#SVGID_00000072248209033869679560000016525120737147777167_"  style="overflow:visible;"/>
		</clipPath>
		<g style="clip-path:url(#SVGID_00000057136542120574510950000006846506711708549537_);">
		</g>
	</g>
</g>
<g>
	<g>
		<defs>
			<path id="SVGID_00000013899084004908095920000009646070964080841135_" d="M206,45.8c-0.3-0.4-0.5,2.8,1.2,3.5
				c0.9,0.4,3.6-0.2,3.2-0.3C207.3,48.7,207.3,48.1,206,45.8z"/>
		</defs>
		<clipPath id="SVGID_00000156579464841071221610000004432913750671678624_">
			<use xlink:href="#SVGID_00000013899084004908095920000009646070964080841135_"  style="overflow:visible;"/>
		</clipPath>
		<g style="clip-path:url(#SVGID_00000156579464841071221610000004432913750671678624_);">
		</g>
	</g>
</g>
<g>
	<g>
		<defs>
			<path id="SVGID_00000100371491280336400350000001757122444863041159_" d="M193.1,55.5c-0.5,0.5,2.6,1.5,3.9-2.1
				c0.7-1.9,1-8.1,0.8-7.1C196.3,53.1,195.8,53,193.1,55.5z"/>
		</defs>
		<clipPath id="SVGID_00000070117888832319675010000014102975320197843593_">
			<use xlink:href="#SVGID_00000100371491280336400350000001757122444863041159_"  style="overflow:visible;"/>
		</clipPath>
		<g style="clip-path:url(#SVGID_00000070117888832319675010000014102975320197843593_);">
		</g>
	</g>
	<path d="M193.1,55.5c-0.5,0.5,2.6,1.5,3.9-2.1c0.7-1.9,1-8.1,0.8-7.1C196.3,53.1,195.8,53,193.1,55.5z"/>
	<path d="M193.1,55.5c-0.5,0.5,2.6,1.5,3.9-2.1c0.7-1.9,1-8.1,0.8-7.1C196.3,53.1,195.8,53,193.1,55.5z"/>
	<path d="M193.1,55.5c-0.5,0.5,2.6,1.5,3.9-2.1c0.7-1.9,1-8.1,0.8-7.1C196.3,53.1,195.8,53,193.1,55.5z"/>
	<g>
		<defs>
			<path id="SVGID_00000069397688254285464760000015763428582188868750_" d="M193.1,55.5c-0.5,0.5,2.6,1.5,3.9-2.1
				c0.7-1.9,1-8.1,0.8-7.1C196.3,53.1,195.8,53,193.1,55.5z"/>
		</defs>
		<clipPath id="SVGID_00000127759147478567526840000016786883840622559122_">
			<use xlink:href="#SVGID_00000069397688254285464760000015763428582188868750_"  style="overflow:visible;"/>
		</clipPath>
		<g style="clip-path:url(#SVGID_00000127759147478567526840000016786883840622559122_);">
		</g>
	</g>
</g>
<g>
	<g>
		<defs>
			<path id="SVGID_00000061447926144354027900000004650607468593010595_" d="M64.7,54.8c-0.5,0.5,2.6,1.5,3.9-2.1
				c0.7-1.9,1-8.1,0.8-7.1C68,52.3,67.4,52.2,64.7,54.8z"/>
		</defs>
		<clipPath id="SVGID_00000101816295044593270190000006717732071584930997_">
			<use xlink:href="#SVGID_00000061447926144354027900000004650607468593010595_"  style="overflow:visible;"/>
		</clipPath>
		<g style="clip-path:url(#SVGID_00000101816295044593270190000006717732071584930997_);">
		</g>
	</g>
	<path d="M64.7,54.8c-0.5,0.5,2.6,1.5,3.9-2.1c0.7-1.9,1-8.1,0.8-7.1C68,52.3,67.4,52.2,64.7,54.8z"/>
	<path d="M64.7,54.8c-0.5,0.5,2.6,1.5,3.9-2.1c0.7-1.9,1-8.1,0.8-7.1C68,52.3,67.4,52.2,64.7,54.8z"/>
	<path d="M64.7,54.8c-0.5,0.5,2.6,1.5,3.9-2.1c0.7-1.9,1-8.1,0.8-7.1C68,52.3,67.4,52.2,64.7,54.8z"/>
	<g>
		<defs>
			<path id="SVGID_00000093897084420795819780000005584208606757650605_" d="M64.7,54.8c-0.5,0.5,2.6,1.5,3.9-2.1
				c0.7-1.9,1-8.1,0.8-7.1C68,52.3,67.4,52.2,64.7,54.8z"/>
		</defs>
		<clipPath id="SVGID_00000019676319744392149770000008887862237894753447_">
			<use xlink:href="#SVGID_00000093897084420795819780000005584208606757650605_"  style="overflow:visible;"/>
		</clipPath>
		<g style="clip-path:url(#SVGID_00000019676319744392149770000008887862237894753447_);">
		</g>
	</g>
</g>
<g>
	<g>
		<defs>
			<path id="SVGID_00000098197281434808875330000010019702653530775178_" d="M130.9,54c-0.6,0.7,1.6,3.7,3.6-1.4
				c1.1-2.7,4.4-15.9,4-14.5C135.7,47.7,134.1,50.5,130.9,54z"/>
		</defs>
		<clipPath id="SVGID_00000124874375200848683760000014998696656315631527_">
			<use xlink:href="#SVGID_00000098197281434808875330000010019702653530775178_"  style="overflow:visible;"/>
		</clipPath>
		<g style="clip-path:url(#SVGID_00000124874375200848683760000014998696656315631527_);">
		</g>
	</g>
	<path d="M130.9,54c-0.6,0.7,1.6,3.7,3.6-1.4c1.1-2.7,4.4-15.9,4-14.5C135.7,47.7,134.1,50.5,130.9,54z"/>
	<path d="M130.9,54c-0.6,0.7,1.6,3.7,3.6-1.4c1.1-2.7,4.4-15.9,4-14.5C135.7,47.7,134.1,50.5,130.9,54z"/>
	<path d="M130.9,54c-0.6,0.7,1.6,3.7,3.6-1.4c1.1-2.7,4.4-15.9,4-14.5C135.7,47.7,134.1,50.5,130.9,54z"/>
	<g>
		<defs>
			<path id="SVGID_00000085243096796153076100000002337366501198858884_" d="M130.9,54c-0.6,0.7,1.6,3.7,3.6-1.4
				c1.1-2.7,4.4-15.9,4-14.5C135.7,47.7,134.1,50.5,130.9,54z"/>
		</defs>
		<clipPath id="SVGID_00000178886138615702144320000016164602396734405547_">
			<use xlink:href="#SVGID_00000085243096796153076100000002337366501198858884_"  style="overflow:visible;"/>
		</clipPath>
		<g style="clip-path:url(#SVGID_00000178886138615702144320000016164602396734405547_);">
		</g>
	</g>
</g>
<g>
	<g>
		<defs>
			<ellipse id="SVGID_00000157294637728597631550000003374739053483460739_" cx="162" cy="33.5" rx="1.6" ry="0.8"/>
		</defs>
		<clipPath id="SVGID_00000110456519478453384130000004512828792366392743_">
			<use xlink:href="#SVGID_00000157294637728597631550000003374739053483460739_"  style="overflow:visible;"/>
		</clipPath>
		<g style="clip-path:url(#SVGID_00000110456519478453384130000004512828792366392743_);">
		</g>
	</g>
</g>
<g>
	<g>
		<defs>
			<ellipse id="SVGID_00000152246439502308470370000001270353971290663068_" cx="29.1" cy="33.5" rx="1.6" ry="0.8"/>
		</defs>
		<clipPath id="SVGID_00000031195069139355946030000007486701597293771666_">
			<use xlink:href="#SVGID_00000152246439502308470370000001270353971290663068_"  style="overflow:visible;"/>
		</clipPath>
		<g style="clip-path:url(#SVGID_00000031195069139355946030000007486701597293771666_);">
		</g>
	</g>
</g>
<g>
	<g>
		<defs>
			<ellipse id="SVGID_00000147196375690915959820000008306518583846641038_" cx="122.3" cy="38.7" rx="1" ry="0.8"/>
		</defs>
		<clipPath id="SVGID_00000068636859327576836090000011346511609489336759_">
			<use xlink:href="#SVGID_00000147196375690915959820000008306518583846641038_"  style="overflow:visible;"/>
		</clipPath>
		<g style="clip-path:url(#SVGID_00000068636859327576836090000011346511609489336759_);">
		</g>
	</g>
</g>
</svg>
