<svg fill="none" xmlns="http://www.w3.org/2000/svg">
<path d="M145.652 25.4778L140.103 31.3769V47.0653H134.118V0.637742H140.103V23.5964L160.273 0.637742H167.506L149.643 21.1411L168.909 47.0653H161.738L145.652 25.4778Z" fill="#808080"/>
<path d="M194.066 47.0653C193.734 46.3851 193.464 45.1734 193.256 43.4302C190.575 46.2788 187.374 47.7031 183.654 47.7031C180.329 47.7031 177.596 46.7465 175.455 44.8332C173.335 42.8988 172.275 40.4541 172.275 37.4992C172.275 33.9066 173.605 31.1218 176.266 29.1448C178.947 27.1465 182.708 26.1474 187.551 26.1474H193.162V23.437C193.162 21.375 192.559 19.7381 191.354 18.5264C190.149 17.2934 188.372 16.6769 186.023 16.6769C183.966 16.6769 182.241 17.2084 180.848 18.2713C179.456 19.3342 178.76 20.6203 178.76 22.1296H172.961C172.961 20.4077 173.553 18.7496 174.738 17.1553C175.944 15.5396 177.565 14.2642 179.601 13.3288C181.659 12.3934 183.914 11.9258 186.366 11.9258C190.253 11.9258 193.297 12.9249 195.5 14.9232C197.703 16.9002 198.846 19.6318 198.929 23.1181V38.9979C198.929 42.1654 199.324 44.6844 200.114 46.5551V47.0653H194.066ZM184.496 42.5693C186.304 42.5693 188.018 42.091 189.639 41.1343C191.261 40.1777 192.435 38.9341 193.162 37.4036V30.3246H188.642C181.576 30.3246 178.043 32.4398 178.043 36.6702C178.043 38.5196 178.645 39.9651 179.851 41.0068C181.056 42.0484 182.604 42.5693 184.496 42.5693Z" fill="#808080"/>
<path d="M213.924 12.5635V51.0512C213.924 57.6837 210.984 61 205.102 61C203.834 61 202.66 60.8087 201.579 60.426V55.7067C202.244 55.8768 203.117 55.9618 204.198 55.9618C205.486 55.9618 206.463 55.6005 207.128 54.8777C207.814 54.1762 208.157 52.9432 208.157 51.1788V12.5635H213.924ZM207.565 3.41192C207.565 2.47656 207.845 1.67939 208.406 1.02039C208.988 0.340129 209.83 0 210.932 0C212.054 0 212.906 0.3295 213.488 0.9885C214.07 1.6475 214.361 2.45531 214.361 3.41192C214.361 4.36853 214.07 5.16571 213.488 5.80345C212.906 6.44119 212.054 6.76006 210.932 6.76006C209.809 6.76006 208.968 6.44119 208.406 5.80345C207.845 5.16571 207.565 4.36853 207.565 3.41192Z" fill="#808080"/>
<path d="M244.07 47.0653C243.737 46.3851 243.467 45.1734 243.259 43.4302C240.578 46.2788 237.378 47.7031 233.658 47.7031C230.332 47.7031 227.6 46.7465 225.459 44.8332C223.339 42.8988 222.279 40.4541 222.279 37.4992C222.279 33.9066 223.609 31.1218 226.269 29.1448C228.95 27.1465 232.712 26.1474 237.555 26.1474H243.166V23.437C243.166 21.375 242.563 19.7381 241.358 18.5264C240.152 17.2934 238.375 16.6769 236.027 16.6769C233.97 16.6769 232.245 17.2084 230.852 18.2713C229.46 19.3342 228.763 20.6203 228.763 22.1296H222.965C222.965 20.4077 223.557 18.7496 224.742 17.1553C225.947 15.5396 227.568 14.2642 229.605 13.3288C231.663 12.3934 233.918 11.9258 236.37 11.9258C240.256 11.9258 243.301 12.9249 245.504 14.9232C247.707 16.9002 248.85 19.6318 248.933 23.1181V38.9979C248.933 42.1654 249.328 44.6844 250.118 46.5551V47.0653H244.07ZM234.499 42.5693C236.308 42.5693 238.022 42.091 239.643 41.1343C241.264 40.1777 242.439 38.9341 243.166 37.4036V30.3246H238.646C231.579 30.3246 228.046 32.4398 228.046 36.6702C228.046 38.5196 228.649 39.9651 229.854 41.0068C231.06 42.0484 232.608 42.5693 234.499 42.5693Z" fill="#808080"/>
<path d="M22.3833 98.6234C15.3053 96.6157 10.1473 94.1555 6.90924 91.2429C3.69981 88.3021 2.0951 84.6825 2.0951 80.3843C2.0951 75.5206 4.05801 71.5051 7.98383 68.338C11.9383 65.1427 17.0677 63.545 23.3719 63.545C27.6702 63.545 31.4958 64.365 34.8485 66.0051C38.2298 67.6452 40.8375 69.9075 42.6715 72.7918C44.5341 75.6761 45.4654 78.8291 45.4654 82.2506H37.1696C37.1696 78.518 35.966 75.5913 33.559 73.4704C31.1519 71.3213 27.7562 70.2468 23.3719 70.2468C19.3028 70.2468 16.122 71.1375 13.8296 72.919C11.5658 74.6722 10.4339 77.1183 10.4339 80.2571C10.4339 82.7738 11.5085 84.9087 13.6576 86.662C15.8355 88.3869 19.5177 89.9704 24.7044 91.4126C29.9197 92.8548 33.9888 94.4524 36.9117 96.2057C39.8632 97.9306 42.041 99.9524 43.4452 102.271C44.8779 104.59 45.5943 107.319 45.5943 110.458C45.5943 115.463 43.6171 119.478 39.6626 122.504C35.7081 125.501 30.4212 127 23.8017 127C19.5034 127 15.4916 126.194 11.7664 124.582C8.04114 122.942 5.16125 120.708 3.1267 117.88C1.12081 115.053 0.117859 111.843 0.117859 108.252H8.41366C8.41366 111.985 9.80346 114.94 12.5831 117.117C15.3913 119.266 19.1309 120.341 23.8017 120.341C28.1574 120.341 31.4958 119.464 33.8169 117.711C36.138 115.958 37.2985 113.568 37.2985 110.542C37.2985 107.517 36.2239 105.184 34.0748 103.544C31.9256 101.875 28.0284 100.235 22.3833 98.6234Z" fill="#7C391C"/>
<path d="M62.4438 119.747H89.6523V126.152H52.7296V120.383L78.3907 86.7468H53.1164V80.2571H88.3628V85.8136L62.4438 119.747Z" fill="#7C391C"/>
<path d="M95.8419 102.78C95.8419 98.2841 96.7303 94.2404 98.5069 90.6491C100.312 87.0578 102.805 84.2866 105.986 82.3355C109.195 80.3843 112.849 79.4087 116.947 79.4087C123.28 79.4087 128.395 81.572 132.292 85.8985C136.218 90.2249 138.181 95.9794 138.181 103.162V103.713C138.181 108.181 137.307 112.197 135.559 115.76C133.839 119.294 131.361 122.051 128.122 124.031C124.913 126.01 121.216 127 117.033 127C110.729 127 105.614 124.837 101.688 120.51C97.7905 116.184 95.8419 110.458 95.8419 103.332V102.78ZM103.837 103.713C103.837 108.803 105.026 112.889 107.404 115.972C109.812 119.054 113.021 120.595 117.033 120.595C121.073 120.595 124.283 119.04 126.661 115.929C129.039 112.79 130.229 108.407 130.229 102.78C130.229 97.7468 129.011 93.6748 126.575 90.5643C124.168 87.4255 120.959 85.856 116.947 85.856C113.021 85.856 109.855 87.3972 107.447 90.4794C105.04 93.5617 103.837 97.973 103.837 103.713Z" fill="#7C391C"/>
<path d="M161.134 104.901L156.148 110.033V126.152H148.196V61H156.148V100.405L160.403 95.3573L174.888 80.2571H184.56L166.464 99.4293L186.666 126.152H177.339L161.134 104.901Z" fill="#7C391C"/>
<path d="M221.482 126.152C221.024 125.247 220.651 123.635 220.365 121.316C216.668 125.105 212.255 127 207.126 127C202.541 127 198.773 125.728 195.821 123.183C192.899 120.609 191.437 117.357 191.437 113.427C191.437 108.648 193.271 104.943 196.939 102.314C200.636 99.6555 205.822 98.3265 212.499 98.3265H220.236V94.7211C220.236 91.9781 219.405 89.8008 217.743 88.1889C216.081 86.5488 213.631 85.7288 210.393 85.7288C207.556 85.7288 205.177 86.4357 203.258 87.8496C201.338 89.2635 200.378 90.9743 200.378 92.982H192.383C192.383 90.6915 193.199 88.4859 194.833 86.365C196.495 84.2159 198.73 82.5193 201.538 81.2751C204.375 80.0308 207.484 79.4087 210.866 79.4087C216.224 79.4087 220.422 80.7378 223.46 83.3959C226.497 86.0257 228.073 89.6594 228.188 94.2969V115.42C228.188 119.634 228.732 122.985 229.821 125.473V126.152H221.482ZM208.287 120.171C210.78 120.171 213.144 119.535 215.379 118.262C217.614 116.99 219.233 115.335 220.236 113.299V103.883H214.003C204.26 103.883 199.389 106.697 199.389 112.324C199.389 114.784 200.22 116.707 201.882 118.093C203.544 119.478 205.679 120.171 208.287 120.171Z" fill="#7C391C"/>
<path d="M249.293 126.152H241.341V61H249.293V126.152Z" fill="#7C391C"/>
<path d="M289.138 113.978C289.138 111.857 288.322 110.217 286.688 109.058C285.084 107.87 282.261 106.852 278.221 106.004C274.209 105.156 271.014 104.138 268.635 102.95C266.286 101.762 264.538 100.348 263.391 98.7082C262.274 97.0681 261.715 95.117 261.715 92.8548C261.715 89.0938 263.32 85.9126 266.529 83.3111C269.767 80.7095 273.894 79.4087 278.908 79.4087C284.181 79.4087 288.451 80.7519 291.717 83.4383C295.013 86.1247 296.661 89.5604 296.661 93.7455H288.666C288.666 91.5964 287.734 89.7442 285.872 88.1889C284.038 86.6337 281.717 85.856 278.908 85.856C276.014 85.856 273.75 86.4781 272.117 87.7224C270.484 88.9666 269.667 90.5925 269.667 92.6003C269.667 94.4949 270.426 95.9229 271.945 96.8843C273.464 97.8458 276.2 98.7648 280.155 99.6414C284.138 100.518 287.362 101.564 289.826 102.78C292.291 103.996 294.11 105.467 295.285 107.192C296.489 108.888 297.09 110.967 297.09 113.427C297.09 117.527 295.428 120.821 292.104 123.31C288.78 125.77 284.468 127 279.166 127C275.441 127 272.146 126.35 269.28 125.049C266.415 123.748 264.165 121.938 262.532 119.62C260.927 117.272 260.125 114.742 260.125 112.027H268.077C268.22 114.657 269.28 116.749 271.257 118.305C273.263 119.832 275.9 120.595 279.166 120.595C282.175 120.595 284.582 120.001 286.387 118.814C288.221 117.598 289.138 115.986 289.138 113.978Z" fill="#7C391C"/>
<path d="M320.43 104.901L315.444 110.033V126.152H307.492V61H315.444V100.405L319.7 95.3573L334.185 80.2571H343.856L325.76 99.4293L345.962 126.152H336.635L320.43 104.901Z" fill="#7C391C"/>
<path d="M380.779 126.152C380.321 125.247 379.948 123.635 379.661 121.316C375.965 125.105 371.552 127 366.423 127C361.838 127 358.07 125.728 355.118 123.183C352.195 120.609 350.734 117.357 350.734 113.427C350.734 108.648 352.568 104.943 356.236 102.314C359.932 99.6555 365.119 98.3265 371.796 98.3265H379.533V94.7211C379.533 91.9781 378.702 89.8008 377.04 88.1889C375.378 86.5488 372.927 85.7288 369.689 85.7288C366.852 85.7288 364.474 86.4357 362.554 87.8496C360.634 89.2635 359.674 90.9743 359.674 92.982H351.679C351.679 90.6915 352.496 88.4859 354.129 86.365C355.791 84.2159 358.027 82.5193 360.835 81.2751C363.672 80.0308 366.781 79.4087 370.162 79.4087C375.521 79.4087 379.719 80.7378 382.756 83.3959C385.794 86.0257 387.37 89.6594 387.484 94.2969V115.42C387.484 119.634 388.029 122.985 389.118 125.473V126.152H380.779ZM367.583 120.171C370.076 120.171 372.44 119.535 374.675 118.262C376.911 116.99 378.53 115.335 379.533 113.299V103.883H373.3C363.557 103.883 358.686 106.697 358.686 112.324C358.686 114.784 359.517 116.707 361.179 118.093C362.841 119.478 364.975 120.171 367.583 120.171Z" fill="#7C391C"/>
<path d="M130.047 143.676L145.267 183.417L160.486 143.676H168.448V192.382H162.309V173.415L162.884 152.942L147.601 192.382H142.901L127.649 153.043L128.257 173.415V192.382H122.118V143.676H130.047Z" fill="#808080"/>
<path d="M199.718 192.382C199.377 191.668 199.099 190.397 198.886 188.568C196.137 191.557 192.854 193.051 189.038 193.051C185.628 193.051 182.825 192.047 180.629 190.04C178.455 188.011 177.368 185.446 177.368 182.346C177.368 178.577 178.732 175.656 181.461 173.582C184.21 171.486 188.069 170.437 193.035 170.437H198.79V167.594C198.79 165.431 198.172 163.714 196.936 162.442C195.7 161.149 193.877 160.502 191.468 160.502C189.358 160.502 187.589 161.06 186.161 162.175C184.733 163.29 184.019 164.639 184.019 166.223H178.072C178.072 164.416 178.679 162.677 179.894 161.004C181.13 159.309 182.793 157.971 184.882 156.99C186.992 156.009 189.305 155.518 191.82 155.518C195.806 155.518 198.929 156.566 201.188 158.662C203.448 160.736 204.62 163.602 204.706 167.26V183.918C204.706 187.241 205.111 189.884 205.921 191.846V192.382H199.718ZM189.902 187.665C191.756 187.665 193.515 187.163 195.177 186.16C196.84 185.156 198.044 183.851 198.79 182.246V174.82H194.154C186.907 174.82 183.283 177.039 183.283 181.476C183.283 183.417 183.901 184.933 185.138 186.026C186.374 187.119 187.962 187.665 189.902 187.665Z" fill="#808080"/>
<path d="M234.121 182.781C234.121 181.108 233.514 179.815 232.299 178.901C231.105 177.964 229.005 177.161 226 176.492C223.016 175.823 220.639 175.02 218.87 174.084C217.122 173.147 215.822 172.032 214.969 170.738C214.138 169.445 213.722 167.906 213.722 166.122C213.722 163.156 214.916 160.647 217.303 158.596C219.712 156.544 222.781 155.518 226.511 155.518C230.434 155.518 233.61 156.577 236.04 158.696C238.491 160.814 239.717 163.524 239.717 166.825H233.769C233.769 165.13 233.077 163.669 231.691 162.442C230.327 161.216 228.6 160.603 226.511 160.603C224.359 160.603 222.675 161.093 221.46 162.075C220.245 163.056 219.637 164.338 219.637 165.921C219.637 167.416 220.202 168.542 221.332 169.3C222.461 170.058 224.497 170.783 227.439 171.474C230.402 172.166 232.8 172.991 234.633 173.95C236.466 174.909 237.819 176.068 238.693 177.429C239.589 178.767 240.036 180.406 240.036 182.346C240.036 185.58 238.8 188.178 236.327 190.14C233.855 192.081 230.647 193.051 226.703 193.051C223.932 193.051 221.481 192.538 219.349 191.512C217.218 190.486 215.545 189.059 214.33 187.23C213.136 185.379 212.539 183.383 212.539 181.242H218.454C218.561 183.316 219.349 184.967 220.82 186.193C222.312 187.397 224.273 187.999 226.703 187.999C228.941 187.999 230.732 187.531 232.075 186.595C233.439 185.636 234.121 184.364 234.121 182.781Z" fill="#808080"/>
<path d="M254.904 163.312L259.956 161.272V165.386L254.904 167.427V192.382H248.957V169.802L244.353 171.642V167.527L248.957 165.687V141H254.904V163.312Z" fill="#808080"/>
<path d="M276.774 183.316L284.831 156.187H291.162L277.253 197.968C275.101 203.989 271.679 207 266.99 207L265.871 206.9L263.665 206.465V201.447L265.263 201.581C267.267 201.581 268.823 201.157 269.932 200.31C271.061 199.462 271.988 197.912 272.713 195.66L274.024 191.98L261.682 156.187H268.141L276.774 183.316Z" fill="#808080"/>
<path d="M306.126 175.622L302.417 179.67V192.382H296.502V141H302.417V172.077L305.582 168.096L316.357 156.187H323.551L310.09 171.307L325.118 192.382H318.18L306.126 175.622Z" fill="#808080"/>
</svg>