<?xml version="1.0" encoding="utf-8"?>
<!-- Generator: Adobe Illustrator 25.4.1, SVG Export Plug-In . SVG Version: 6.00 Build 0)  -->
<svg version="1.1" id="Warstwa_1" xmlns="http://www.w3.org/2000/svg" xmlns:xlink="http://www.w3.org/1999/xlink" x="0px" y="0px"
	 viewBox="0 0 240 80" style="enable-background:new 0 0 240 80;" xml:space="preserve">
<g>
	<path fill="#D49A89" d="M91.29,53.03c-0.69-0.2-1.04-0.58-1.04-1.15l0.55-21.23h-0.27l-9.36,19.47c-0.56,1-1.35,2.08-2.38,3.22
		s-2.21,2.17-3.55,3.07c-1.34,0.9-2.53,1.35-3.55,1.35c-0.61,0-0.92-0.89-0.92-2.68c0-0.79,0.59-1.43,1.76-1.89
		c1.38-0.53,2.52-1,3.42-1.41c1.77-0.79,3.05-1.88,3.83-3.26c1.05-2.28,2.91-6.2,5.58-11.78c2.66-5.57,4.44-9.32,5.34-11.23
		c0.53-0.98,1.32-1.77,2.35-2.39c1.04-0.62,2.12-0.93,3.25-0.93c0,0.01,0.08,0.06,0.23,0.14c-0.46,3.46-0.8,7.48-1.03,12.06
		c-0.23,4.58-0.38,7.52-0.46,8.82h0.29c0.23-0.51,0.61-1.25,1.13-2.23c2.27-4.32,5.01-9.75,8.22-16.27l-0.04,0.04
		c0.35-0.57,1.21-1.19,2.57-1.87c1.36-0.67,2.41-1.02,3.15-1.04l0.16,0.08c-1.78,9.26-2.92,15.54-3.42,18.84
		c-0.5,3.3-0.74,5.65-0.74,7.06s0.31,2.11,0.92,2.11c0.94,0,3.38-1.93,7.32-5.8v2.23c-5.08,4.93-8.65,7.4-10.72,7.4
		c-1.47,0-2.21-1.36-2.21-4.08c0-1.98,0.2-4.15,0.59-6.52c0.56-3.37,1.02-6.07,1.39-8.11c0.36-2.03,0.65-3.52,0.85-4.47
		c0.2-0.95,0.3-1.51,0.3-1.68c0-0.17-0.08-0.25-0.23-0.25s-0.26,0.08-0.31,0.23C96.25,44.64,91.93,52.7,91.29,53.03z"/>
	<path fill="#D49A89" d="M128.89,44.13v2.15c-2.07,2.28-3.92,4.01-5.55,5.2c-1.63,1.18-3.18,1.78-4.65,1.78
		c-2.94,0-4.78-0.96-5.51-2.87c-0.27-0.75-0.41-1.67-0.41-2.73c0-1.9,0.4-3.71,1.19-5.44c0.79-1.73,1.94-3.14,3.43-4.26
		c1.49-1.11,3.15-1.67,4.97-1.67c3.07,0,4.61,1.15,4.61,3.44c0,1.48-0.6,2.78-1.8,3.88c-1.2,1.1-2.55,1.65-4.04,1.65
		c-0.6,0-1.22-0.18-1.88-0.53c-0.65-0.35-1.21-0.88-1.66-1.58c-0.56,1.17-0.84,2.32-0.84,3.44c0,3.01,1.09,4.51,3.28,4.51
		c0.57,0,1.28-0.27,2.12-0.82s1.58-1.12,2.23-1.73s1.46-1.41,2.45-2.4C127.83,45.13,128.51,44.47,128.89,44.13z M118.17,41.65
		c0.99,1.28,2.08,1.91,3.28,1.91c0.75,0,1.41-0.37,1.96-1.11c0.55-0.74,0.83-1.52,0.83-2.34s-0.15-1.37-0.46-1.65
		c-0.31-0.28-0.75-0.42-1.33-0.42c-0.58,0-1.12,0.13-1.62,0.39c-0.5,0.26-0.93,0.59-1.28,0.98
		C118.88,40.17,118.42,40.92,118.17,41.65z"/>
	<path fill="#D49A89" d="M165.65,32.23v0.37v0.12c1.28-0.18,2.79-0.78,4.53-1.8c0.66-0.38,1.29-0.81,1.88-1.29v2.25
		c-2.25,1.55-4.4,2.51-6.45,2.87c-0.2,3.06-1.3,6.33-3.3,9.8c-2.19,3.75-4.61,6.4-7.27,7.95c-1.48,0.86-2.95,1.29-4.39,1.29
		c-1.77,0-3.22-0.7-4.36-2.09c-0.43-0.53-0.76-1.11-0.99-1.72c-0.23-0.61-0.38-1.11-0.46-1.5c-0.96,1.32-2.29,2.52-3.96,3.62
		s-3.1,1.65-4.26,1.65c-1.16,0-2.16-0.29-3-0.86s-1.5-1.32-1.98-2.23c-0.94-1.81-1.41-3.86-1.41-6.14s0.4-4.77,1.2-7.46
		c0.8-2.69,1.9-4.98,3.29-6.87c0.3-0.43,0.65-1.01,1.04-1.73c0.4-0.72,0.6-1.15,0.6-1.28c0-0.13-0.02-0.2-0.05-0.2
		c-0.03,0-0.11,0.04-0.24,0.12l-2.23,1.72c-0.21,0.12-0.78,0.47-1.72,1.05c-2.5,1.56-4.85,3-7.05,4.32v-2.17
		c1.46-0.83,3.55-2.09,6.27-3.77c5.87-3.65,9.09-5.47,9.65-5.47c0.35,0,0.53,0.14,0.53,0.41c0,0.51-0.66,2.34-1.99,5.51
		c-2.51,6.02-3.77,10.4-3.77,13.16c0,4.83,1.44,7.25,4.32,7.25c0.68,0,1.5-0.29,2.47-0.87c0.97-0.58,1.67-1.23,2.1-1.94
		c-0.1-0.52-0.16-1.33-0.16-2.43s0.06-2.25,0.18-3.45c0.12-1.2,0.32-2.44,0.62-3.74c0.29-1.3,0.65-2.45,1.08-3.46
		c0.43-1.01,0.99-1.84,1.69-2.5c0.7-0.66,1.47-0.99,2.31-0.99c1.07,0,1.6,0.75,1.6,2.25c0,1.9-0.8,5.06-2.4,9.47
		c-0.35,0.99-0.65,1.8-0.9,2.42l-0.39,0.96c0,0.75,0.23,1.41,0.68,1.97c0.88,1.08,2.21,1.62,3.96,1.62c1.29,0,2.58-0.49,3.87-1.46
		s2.38-2.17,3.28-3.59s1.63-2.92,2.2-4.5s0.85-2.98,0.85-4.21c-0.75-0.12-1.5-0.42-2.23-0.92c-0.73-0.49-1.3-0.97-1.72-1.43
		c-1-1.09-1.5-2.42-1.5-3.96c0-1.24,0.31-2.4,0.94-3.5c0.7-1.22,1.79-1.84,3.26-1.84C164.39,23.03,165.65,26.1,165.65,32.23z
		 M163.33,32.6l0.04-0.76c0-1.86-0.33-3.35-1-4.47c-0.34-0.56-0.72-0.84-1.15-0.84c-0.73,0-1.09,0.54-1.09,1.63
		c0,1.09,0.31,2.05,0.94,2.89S162.44,32.41,163.33,32.6z"/>
	<path fill="#D49A89" d="M168.09,53.25c-1.56,0-2.53-1.1-2.89-3.3c-0.08-0.53-0.12-1.09-0.12-1.66c0-1.42,0.35-2.85,1.05-4.3
		s1.63-2.73,2.78-3.87s2.53-2.06,4.14-2.77c1.61-0.72,3.25-1.07,4.93-1.07c0.82,0,1.91,0.21,3.28,0.64
		c-0.01,0.09-0.14,0.69-0.39,1.79c-0.25,1.1-0.5,2.22-0.74,3.37c-0.68,3.14-1.02,5.08-1.02,5.84s0.2,1.13,0.59,1.13
		c0.86,0,2.85-1.65,5.98-4.96v2.19c-1.98,2.04-3.86,3.72-5.65,5.02s-2.99,1.95-3.58,1.95c-0.99,0-1.48-0.85-1.48-2.56
		c0-0.56,0.05-1.19,0.16-1.89c-0.94,1.22-2.03,2.27-3.27,3.14S169.35,53.25,168.09,53.25z M169.24,47.19c0,1.95,0.64,2.93,1.91,2.93
		c0.55,0,1.22-0.29,2.02-0.86s1.53-1.2,2.18-1.89l2.25-9.61c-1.41,0-2.77,0.5-4.08,1.5c-1.32,1-2.36,2.23-3.12,3.69
		S169.24,45.83,169.24,47.19z"/>
	<path fill="#D49A89" d="M202,44.17v2.19c-2.07,2.11-3.9,3.79-5.5,5.03s-2.66,1.87-3.19,1.87c-0.98,0-1.46-0.55-1.46-1.64
		s0.24-2.4,0.73-3.92s0.98-2.89,1.46-4.12s0.73-2.05,0.73-2.47c0-0.42-0.08-0.72-0.22-0.92s-0.33-0.29-0.54-0.29
		c-0.74,0-1.54,0.52-2.4,1.55s-1.63,2.29-2.3,3.76c-1.41,3.05-2.33,5.54-2.77,7.48h-3.73c0.01-1.41,0.41-3.74,1.19-6.99
		s1.48-5.66,2.09-7.21c0.25-0.62,0.6-1.04,1.06-1.25c0.46-0.21,1.08-0.31,1.87-0.31h1.31c-0.95,3.28-1.65,5.64-2.11,7.09
		c0.87-1.63,2.14-3.28,3.79-4.96c0.81-0.81,1.69-1.47,2.64-1.99c0.95-0.52,1.85-0.78,2.7-0.78c1.28,0,1.91,0.76,1.91,2.29
		c0,0.73-0.46,2.46-1.38,5.19s-1.38,4.23-1.38,4.51s0.08,0.42,0.24,0.42s0.38-0.09,0.64-0.26s1.04-0.87,2.31-2.09
		S201.74,44.39,202,44.17z"/>
	<path fill="#D49A89" d="M202.7,38.33c-0.18,0-0.33,0-0.46,0s-0.24,0-0.36-0.01c-0.12-0.01-0.21-0.02-0.27-0.03
		c-0.07-0.01-0.14-0.03-0.22-0.06c-0.08-0.03-0.15-0.06-0.21-0.1s-0.1-0.08-0.16-0.14c-0.09-0.1-0.14-0.24-0.14-0.42
		s0.01-0.29,0.02-0.34c0.05-0.13,0.29-0.22,0.7-0.27l1.64-0.16c0.61-2.03,1.04-3.32,1.29-3.88c0.25-0.55,0.49-1.05,0.71-1.49
		c0.23-0.44,0.45-0.79,0.66-1.04c0.21-0.25,0.47-0.51,0.75-0.8c0.29-0.29,0.59-0.5,0.9-0.64c0.74-0.34,1.5-0.51,2.29-0.51l0.08,0.08
		c0,0.05-0.17,0.56-0.51,1.52c-1.12,3.2-1.87,5.46-2.25,6.76l5.96-0.27l-0.43,0.7c-0.33,0.6-2.27,0.9-5.84,0.9
		c-0.01,0-0.21,0.72-0.61,2.17c-1.17,4.31-1.76,6.92-1.76,7.83c0,0.92,0.1,1.46,0.31,1.59s0.42,0.21,0.64,0.21
		c0.7,0,3.18-2.02,7.44-6.05v2.21c-0.44,0.4-1.05,0.97-1.84,1.7s-1.4,1.3-1.85,1.71s-1.01,0.89-1.68,1.44s-1.24,0.96-1.71,1.25
		c-1.2,0.72-2.25,1.07-3.16,1.07c-1.55,0-2.32-1.08-2.32-3.24c0-1.18,0.19-2.58,0.56-4.19s0.69-2.92,0.95-3.95
		C202.1,40.85,202.39,39.67,202.7,38.33z"/>
	<path fill="#D49A89" d="M217.99,50.37c0,0.58-0.34,1.2-1.02,1.88s-1.37,1.01-2.07,1.01c-1.2,0-1.8-0.51-1.8-1.52
		c0-0.72,0.27-1.41,0.8-2.08s1.17-1.01,1.9-1.01s1.28,0.14,1.64,0.43S217.99,49.79,217.99,50.37z M217.54,45.28
		c-0.33,0.13-0.68,0.2-1.05,0.2c-0.29,0-0.43-0.17-0.43-0.52s0.01-0.6,0.04-0.75l2.97-16.84c0.29-2.1,0.56-3.34,0.81-3.74
		c0.25-0.4,0.49-0.6,0.69-0.6h3.57c0.42,0,0.62,0.35,0.62,1.05s-0.82,3.35-2.46,7.93c-1.64,4.58-2.84,7.93-3.6,10.04
		S217.56,45.24,217.54,45.28z"/>
</g>
<g>
	<path fill="#D49A89" d="M59.53,57.26H19.9c-1.66,0-3-1.34-3-3V22.29c0-1.66,1.34-3,3-3h39.63c1.66,0,3,1.34,3,3v31.98
		C62.53,55.92,61.18,57.26,59.53,57.26z"/>
	<g>
		<path fill="#FFFFFF" d="M57.2,32.23v0.37v0.12c1.28-0.18,2.79-0.78,4.53-1.8c0.66-0.38,1.29-0.81,1.88-1.29v2.25
			c-2.25,1.55-4.4,2.51-6.45,2.87c-0.2,3.06-1.3,6.33-3.3,9.8c-2.19,3.75-4.61,6.4-7.27,7.95c-1.48,0.86-2.95,1.29-4.39,1.29
			c-1.77,0-3.22-0.7-4.36-2.09c-0.43-0.53-0.76-1.11-0.99-1.72c-0.23-0.61-0.38-1.11-0.46-1.5c-0.96,1.32-2.29,2.52-3.96,3.62
			s-3.1,1.65-4.26,1.65c-1.16,0-2.16-0.29-3-0.86s-1.5-1.32-1.98-2.23c-0.94-1.81-1.41-3.86-1.41-6.14s0.4-4.77,1.2-7.46
			c0.8-2.69,1.9-4.98,3.29-6.87c0.3-0.43,0.65-1.01,1.04-1.73c0.4-0.72,0.6-1.15,0.6-1.28c0-0.13-0.02-0.2-0.05-0.2
			c-0.03,0-0.11,0.04-0.24,0.12l-2.23,1.72c-0.21,0.12-0.78,0.47-1.72,1.05c-2.5,1.56-4.85,3-7.05,4.32v-2.17
			c1.46-0.83,3.55-2.09,6.27-3.77c5.87-3.65,9.09-5.47,9.65-5.47c0.35,0,0.53,0.14,0.53,0.41c0,0.51-0.66,2.34-1.99,5.51
			c-2.51,6.02-3.77,10.4-3.77,13.16c0,4.83,1.44,7.25,4.32,7.25c0.68,0,1.5-0.29,2.47-0.87c0.97-0.58,1.67-1.23,2.1-1.94
			c-0.1-0.52-0.16-1.33-0.16-2.43c0-1.1,0.06-2.25,0.18-3.45c0.12-1.2,0.32-2.44,0.62-3.74c0.29-1.3,0.65-2.45,1.08-3.46
			c0.43-1.01,0.99-1.84,1.69-2.5c0.7-0.66,1.47-0.99,2.31-0.99c1.07,0,1.6,0.75,1.6,2.25c0,1.9-0.8,5.06-2.4,9.47
			c-0.35,0.99-0.65,1.8-0.9,2.42l-0.39,0.96c0,0.76,0.23,1.41,0.68,1.97c0.89,1.08,2.21,1.62,3.96,1.62c1.29,0,2.58-0.49,3.87-1.46
			s2.38-2.17,3.28-3.59c0.9-1.42,1.63-2.92,2.2-4.5s0.85-2.98,0.85-4.21c-0.76-0.12-1.5-0.42-2.23-0.92
			c-0.73-0.49-1.3-0.97-1.72-1.43c-1-1.09-1.5-2.42-1.5-3.96c0-1.24,0.31-2.4,0.94-3.5c0.7-1.22,1.79-1.84,3.26-1.84
			C55.94,23.03,57.2,26.1,57.2,32.23z M54.87,32.6l0.04-0.76c0-1.86-0.33-3.35-1-4.47c-0.34-0.56-0.72-0.84-1.15-0.84
			c-0.73,0-1.09,0.54-1.09,1.63c0,1.09,0.31,2.05,0.94,2.89S53.99,32.41,54.87,32.6z"/>
	</g>
</g>
</svg>
