<?xml version="1.0" encoding="utf-8"?>
<!-- Generator: Adobe Illustrator 25.4.1, SVG Export Plug-In . SVG Version: 6.00 Build 0)  -->
<svg version="1.1" id="Warstwa_1" xmlns="http://www.w3.org/2000/svg" xmlns:xlink="http://www.w3.org/1999/xlink" x="0px" y="0px"
	 viewBox="0 0 240 80" style="enable-background:new 0 0 240 80;" xml:space="preserve">
<style type="text/css">
	.st0{fill:#17A280;}
</style>
<path d="M64.25,59.39H17.14c-1.1,0-2-0.9-2-2v-27.7c0-0.63,0.3-1.23,0.81-1.61l23.52-17.39c0.7-0.52,1.65-0.52,2.35-0.02
	l23.59,16.88c0.52,0.38,0.84,0.98,0.84,1.63v28.2C66.25,58.49,65.36,59.39,64.25,59.39z M19.14,55.39h43.11V30.21L40.68,14.78
	L19.14,30.7V55.39z"/>
<g>
	<path class="st0" d="M82.23,29.25l8.87,23.2l8.87-23.2h4.64v28.44h-3.58V46.61l0.34-11.95l-8.9,23.03h-2.74l-8.88-22.97l0.35,11.89
		v11.07h-3.58V29.25H82.23z"/>
	<path class="st0" d="M116.97,52.39l4.69-15.84h3.69l-8.1,24.39c-1.25,3.52-3.25,5.27-5.98,5.27l-0.65-0.06l-1.29-0.25v-2.93
		l0.93,0.08c1.17,0,2.08-0.25,2.73-0.74c0.65-0.5,1.19-1.4,1.61-2.71l0.76-2.15l-7.19-20.9h3.76L116.97,52.39z"/>
	<path class="st0" d="M149.81,57.68h-3.59V44.54h-13.67v13.14h-3.58V29.25h3.58v12.23h13.67V29.25h3.59V57.68z"/>
	<path class="st0" d="M154.7,46.92c0-2.07,0.39-3.93,1.16-5.59c0.78-1.65,1.86-2.93,3.24-3.83s2.96-1.35,4.74-1.35
		c2.74,0,4.96,1,6.66,2.99c1.7,1.99,2.54,4.64,2.54,7.95v0.25c0,2.06-0.38,3.9-1.13,5.54c-0.75,1.63-1.83,2.91-3.22,3.82
		c-1.4,0.91-3,1.37-4.81,1.37c-2.73,0-4.95-1-6.64-2.99c-1.7-1.99-2.54-4.63-2.54-7.91V46.92z M158.17,47.35
		c0,2.34,0.52,4.23,1.56,5.64c1.04,1.42,2.42,2.13,4.16,2.13c1.75,0,3.14-0.72,4.17-2.16c1.03-1.44,1.55-3.45,1.55-6.04
		c0-2.32-0.52-4.2-1.57-5.63c-1.05-1.44-2.44-2.16-4.18-2.16c-1.7,0-3.07,0.71-4.12,2.13S158.17,44.71,158.17,47.35z"/>
	<path class="st0" d="M180.61,36.55l0.09,2.34c1.48-1.82,3.47-2.73,5.98-2.73c2.82,0,4.74,1.13,5.76,3.4
		c0.67-1.02,1.54-1.84,2.62-2.46s2.34-0.94,3.81-0.94c4.42,0,6.67,2.45,6.74,7.36v14.16h-3.45V43.74c0-1.51-0.33-2.64-0.99-3.39
		c-0.66-0.75-1.76-1.12-3.31-1.12c-1.28,0-2.34,0.4-3.19,1.2s-1.33,1.88-1.47,3.23v14.02h-3.46V43.83c0-3.07-1.43-4.61-4.3-4.61
		c-2.26,0-3.81,1.01-4.64,3.03v15.43h-3.45V36.55H180.61z"/>
	<path class="st0" d="M219.17,58.07c-2.73,0-4.96-0.94-6.67-2.82c-1.71-1.88-2.57-4.4-2.57-7.55v-0.66c0-2.1,0.38-3.97,1.15-5.62
		c0.76-1.65,1.83-2.94,3.2-3.87c1.37-0.93,2.86-1.4,4.46-1.4c2.62,0,4.66,0.91,6.11,2.71c1.45,1.81,2.18,4.4,2.18,7.77v1.5h-13.65
		c0.05,2.08,0.63,3.77,1.74,5.05s2.52,1.92,4.24,1.92c1.22,0,2.25-0.26,3.09-0.78s1.58-1.21,2.22-2.07l2.1,1.72
		C225.08,56.71,222.54,58.07,219.17,58.07z M218.74,39.13c-1.39,0-2.56,0.53-3.5,1.59c-0.94,1.06-1.53,2.55-1.75,4.46h10.09v-0.27
		c-0.1-1.84-0.57-3.26-1.42-4.27S220.18,39.13,218.74,39.13z"/>
</g>
</svg>
