<svg id="Warstwa_1" data-name="Warstwa 1" xmlns="http://www.w3.org/2000/svg" viewBox="0 0 240 80">
  <defs>
    <style>
      .cls-1 {
        fill: #6f4129;
      }
    </style>
  </defs>
  <g>
    <path class="cls-1" d="M76.924,43.212l-4.218-8.4-.153,2.824q-.07,1.23-.123,2.443t-.193,2.309a11.477,11.477,0,0,1-.44,2.033,4.785,4.785,0,0,1-.867,1.623,3.828,3.828,0,0,1-1.476,1.072,5.808,5.808,0,0,1-2.268.387,6.386,6.386,0,0,1-1.148-.1,4.686,4.686,0,0,1-.973-.275,2.187,2.187,0,0,1-.674-.416.713.713,0,0,1-.252-.522,1.633,1.633,0,0,1,.059-.427,1.378,1.378,0,0,1,.176-.4.979.979,0,0,1,.287-.293.68.68,0,0,1,.381-.111.286.286,0,0,1,.228.129,2.453,2.453,0,0,1,.2.322q.105.193.24.416a1.812,1.812,0,0,0,.352.416,1.838,1.838,0,0,0,.521.322,1.965,1.965,0,0,0,.762.129,3.346,3.346,0,0,0,1.518-.31,2.653,2.653,0,0,0,1.013-.9,4.435,4.435,0,0,0,.61-1.418,13,13,0,0,0,.316-1.886q.046-.587.094-1.131c.031-.363.062-.725.094-1.084s.06-.725.088-1.1.056-.764.087-1.177q.058-.9.106-1.717t.076-1.518q.03-.7.047-1.265c.012-.375.021-.7.029-.973q-.2-.41-.351-.662a1.5,1.5,0,0,0-.317-.387.888.888,0,0,0-.363-.181,2.083,2.083,0,0,0-.48-.047,2.418,2.418,0,0,0-.581.088,4.376,4.376,0,0,0-.714.252,5.234,5.234,0,0,0-.739.4,3.441,3.441,0,0,0-.656.551,2.815,2.815,0,0,0-.469.685,1.833,1.833,0,0,0-.181.809,1.5,1.5,0,0,0,.1.6.919.919,0,0,0,.235.334.629.629,0,0,0,.269.14,1,1,0,0,0,.194.029,1.024,1.024,0,0,0,.48-.1,2.954,2.954,0,0,0,.34-.211l.287-.211a.511.511,0,0,1,.311-.1.791.791,0,0,1,.3.065.845.845,0,0,1,.293.2,1.18,1.18,0,0,1,.229.369,1.477,1.477,0,0,1,.094.557,1.691,1.691,0,0,1-.182.808,1.8,1.8,0,0,1-.469.569,1.96,1.96,0,0,1-.656.34,2.624,2.624,0,0,1-1.746-.083,2.221,2.221,0,0,1-.768-.533,2.276,2.276,0,0,1-.48-.8,2.838,2.838,0,0,1-.164-.972,3.954,3.954,0,0,1,.562-2.127A4.914,4.914,0,0,1,67.28,31.1a6.743,6.743,0,0,1,2.068-.908,9.353,9.353,0,0,1,2.35-.3,5.663,5.663,0,0,1,1.605.194,3.431,3.431,0,0,1,1.078.515,2.911,2.911,0,0,1,.715.756,8.526,8.526,0,0,1,.516.914l3.094,6.281q1.206-2.379,2.2-4.259t1.834-3.311q.843-1.43,1.576-2.437a11.459,11.459,0,0,1,1.418-1.647,4.9,4.9,0,0,1,1.359-.932,3.485,3.485,0,0,1,1.4-.293,1.755,1.755,0,0,1,1.008.264.9.9,0,0,1,.386.791,1.738,1.738,0,0,1-.152.774.466.466,0,0,1-.422.3.386.386,0,0,1-.34-.17q-.117-.17-.228-.369a1.777,1.777,0,0,0-.276-.369.637.637,0,0,0-.48-.17,1.283,1.283,0,0,0-.457.106,2.452,2.452,0,0,0-.557.316,3.707,3.707,0,0,0-.568.527,3.325,3.325,0,0,0-.492.739,4.092,4.092,0,0,0-.329.961,4.157,4.157,0,0,0-.07,1.183q.047.738.129,1.729t.182,2.121q.1,1.131.211,2.338t.228,2.378q.117,1.171.229,2.25t.2,1.951q.093.873.176,1.477c.054.4.1.678.128.826a1.882,1.882,0,0,0,.188.545.443.443,0,0,0,.422.2,1.608,1.608,0,0,0,.6-.111,5.291,5.291,0,0,0,.5-.229l.188.434c-.141.1-.318.217-.533.345a5.979,5.979,0,0,1-.739.37,5.8,5.8,0,0,1-.914.293,4.678,4.678,0,0,1-1.072.117,3.262,3.262,0,0,1-1.277-.2,1.942,1.942,0,0,1-.721-.5,1.621,1.621,0,0,1-.34-.633q-.087-.334-.135-.6-.105-.6-.222-1.441T82.719,42.4q-.111-.966-.217-1.992t-.193-2q-.088-.977-.158-1.845t-.117-1.512c-.235.383-.451.752-.651,1.108s-.392.719-.58,1.09-.379.759-.574,1.165-.4.848-.615,1.324-.449,1-.7,1.571-.534,1.207-.838,1.91Z"/>
    <path class="cls-1" d="M99.5,37.083a20.3,20.3,0,0,1-.416,4.143,20.646,20.646,0,0,1-1.149,3.75,17.134,17.134,0,0,1-1.74,3.2A13.457,13.457,0,0,1,94,50.653a9.738,9.738,0,0,1-2.5,1.606,6.62,6.62,0,0,1-2.666.574,3.05,3.05,0,0,1-1.594-.346,1.052,1.052,0,0,1-.563-.931,1.361,1.361,0,0,1,.071-.434,1.4,1.4,0,0,1,.187-.375.966.966,0,0,1,.281-.264.672.672,0,0,1,.352-.1.433.433,0,0,1,.369.222c.1.149.2.311.311.487a2.441,2.441,0,0,0,.4.486.9.9,0,0,0,.645.223,3.653,3.653,0,0,0,1.1-.182,5.671,5.671,0,0,0,1.154-.521,8.493,8.493,0,0,0,1.161-.827,13.342,13.342,0,0,0,1.142-1.084Q93.517,48,93.09,46.6t-.9-2.818q-.474-1.418-.973-2.736t-.972-2.338a10.457,10.457,0,0,0-.914-1.634q-.439-.617-.78-.616a.7.7,0,0,0-.345.071,2.421,2.421,0,0,0-.287.2l-.235-.293q.234-.2.492-.41a3.225,3.225,0,0,1,.61-.387,3.794,3.794,0,0,1,.82-.287,4.951,4.951,0,0,1,1.125-.111,2.82,2.82,0,0,1,1.33.322,2.966,2.966,0,0,1,1.119,1.189q.363.645.756,1.547t.791,2.015q.4,1.114.8,2.409t.814,2.712a18.043,18.043,0,0,0,1.172-3.228,13.83,13.83,0,0,0,.445-3.51,6.313,6.313,0,0,0-.082-1.1,5.822,5.822,0,0,0-.187-.779q-.1-.323-.188-.551a1.233,1.233,0,0,1-.082-.4.383.383,0,0,1,.141-.3,1.016,1.016,0,0,1,.34-.193,2.057,2.057,0,0,1,.4-.1,2.44,2.44,0,0,1,.346-.029.79.79,0,0,1,.486.129.753.753,0,0,1,.252.369,2.014,2.014,0,0,1,.094.58Q99.5,36.661,99.5,37.083Z"/>
    <path class="cls-1" d="M110.006,44.747a2.255,2.255,0,0,0,.123.815,1.1,1.1,0,0,0,.358.486,1.378,1.378,0,0,0,.592.24,4.763,4.763,0,0,0,.838.065,5.629,5.629,0,0,0,1.394-.159,8.107,8.107,0,0,0,1.09-.351q.468-.194.791-.358a1.23,1.23,0,0,1,.5-.164.454.454,0,0,1,.352.141.591.591,0,0,1,.128.41,1.762,1.762,0,0,1-.093.674.628.628,0,0,1-.387.31,12.209,12.209,0,0,1-2.4.557,22.642,22.642,0,0,1-3.024.182,15.21,15.21,0,0,1-2.051-.112,3.281,3.281,0,0,1-1.254-.392,1.442,1.442,0,0,1-.626-.768,3.826,3.826,0,0,1-.17-1.248V31.763a1.171,1.171,0,0,0-.059-.41.567.567,0,0,0-.164-.24.544.544,0,0,0-.252-.117,1.61,1.61,0,0,0-.322-.03,3.183,3.183,0,0,0-.639.082,5.414,5.414,0,0,0-.8.246,6.8,6.8,0,0,0-.849.405,4.13,4.13,0,0,0-.762.545,2.723,2.723,0,0,0-.545.679,1.62,1.62,0,0,0-.211.809,1.479,1.479,0,0,0,.1.6.948.948,0,0,0,.228.334.6.6,0,0,0,.264.14,1,1,0,0,0,.193.029,1.026,1.026,0,0,0,.481-.1,2.954,2.954,0,0,0,.34-.211l.287-.211a.511.511,0,0,1,.31-.1.792.792,0,0,1,.3.065.845.845,0,0,1,.293.2,1.18,1.18,0,0,1,.229.369,1.478,1.478,0,0,1,.093.557,1.691,1.691,0,0,1-.181.808,1.812,1.812,0,0,1-.469.569,1.96,1.96,0,0,1-.656.34,2.624,2.624,0,0,1-1.746-.083,2.221,2.221,0,0,1-.768-.533,2.276,2.276,0,0,1-.48-.8,2.839,2.839,0,0,1-.165-.972,3.689,3.689,0,0,1,.293-1.483,4.2,4.2,0,0,1,.8-1.213A5.451,5.451,0,0,1,102.5,31.1a7.972,7.972,0,0,1,1.483-.674,10.034,10.034,0,0,1,1.664-.4,11.254,11.254,0,0,1,1.734-.135,4.823,4.823,0,0,1,1.494.182,1.983,1.983,0,0,1,.786.439,1.014,1.014,0,0,1,.3.539,2.871,2.871,0,0,1,.047.469Z"/>
    <path class="cls-1" d="M121.128,46.353a1.622,1.622,0,0,1-.053.369.877.877,0,0,1-.246.41,1.528,1.528,0,0,1-.557.328,2.9,2.9,0,0,1-.984.135,2.591,2.591,0,0,1-.973-.147,1.422,1.422,0,0,1-.527-.345.868.868,0,0,1-.217-.411,1.808,1.808,0,0,1-.041-.339V37.306a1.1,1.1,0,0,0-.158-.592.582.582,0,0,0-.534-.252.748.748,0,0,0-.339.071,1.8,1.8,0,0,0-.3.2l-.246-.293a6.5,6.5,0,0,1,.6-.439,4.609,4.609,0,0,1,.721-.381,5.1,5.1,0,0,1,.832-.27,4.073,4.073,0,0,1,.938-.1,2.767,2.767,0,0,1,1.184.2,1.511,1.511,0,0,1,.621.5,1.457,1.457,0,0,1,.24.638,5.146,5.146,0,0,1,.041.6Zm-3.961-13.781a1.4,1.4,0,0,1,.146-.627,1.61,1.61,0,0,1,.41-.522,2.049,2.049,0,0,1,.61-.351,2.141,2.141,0,0,1,.755-.129,2.117,2.117,0,0,1,.745.129,1.981,1.981,0,0,1,.6.351,1.661,1.661,0,0,1,.4.522,1.432,1.432,0,0,1,0,1.26,1.6,1.6,0,0,1-.4.509,2.032,2.032,0,0,1-.6.346,2.117,2.117,0,0,1-.745.129,2.141,2.141,0,0,1-.755-.129,2.1,2.1,0,0,1-.61-.346,1.553,1.553,0,0,1-.41-.509A1.4,1.4,0,0,1,117.167,32.572Z"/>
    <path class="cls-1" d="M123.694,31.236a1.085,1.085,0,0,0-.158-.592.579.579,0,0,0-.533-.252.854.854,0,0,0-.346.065,1.473,1.473,0,0,0-.31.193l-.235-.281a6.518,6.518,0,0,1,.6-.44,4.736,4.736,0,0,1,.721-.381,5.164,5.164,0,0,1,.832-.269,4.01,4.01,0,0,1,.937-.106,2.506,2.506,0,0,1,1.1.205,1.688,1.688,0,0,1,.633.5,1.66,1.66,0,0,1,.287.645,3.2,3.2,0,0,1,.07.639v5.226q.141-.129.363-.322a3.269,3.269,0,0,1,.563-.381,3.638,3.638,0,0,1,.814-.316,4.3,4.3,0,0,1,1.119-.129,3.563,3.563,0,0,1,1.5.345A3.776,3.776,0,0,1,133,36.673a5.87,5.87,0,0,1,.973,1.9,9.129,9.129,0,0,1,.375,2.789A8.263,8.263,0,0,1,134,43.774a5.882,5.882,0,0,1-1.025,1.987,4.856,4.856,0,0,1-1.7,1.342,5.382,5.382,0,0,1-2.367.492,5.734,5.734,0,0,1-2.467-.475,4.273,4.273,0,0,1-1.611-1.277,5.065,5.065,0,0,1-.873-1.869,9.334,9.334,0,0,1-.264-2.25Zm6.985,10.335a16.286,16.286,0,0,0-.106-1.916,7.389,7.389,0,0,0-.34-1.57,3.005,3.005,0,0,0-.6-1.066,1.214,1.214,0,0,0-1.553-.2,1.851,1.851,0,0,0-.451.439,1.9,1.9,0,0,0-.258.487,1.265,1.265,0,0,0-.082.321v3.5a11.661,11.661,0,0,0,.428,3.715q.427,1.161,1.259,1.16.879,0,1.29-1.183A12.18,12.18,0,0,0,130.679,41.571Z"/>
    <path class="cls-1" d="M140.347,37.716a9.656,9.656,0,0,1,.949-1.23,6.355,6.355,0,0,1,.457-.457,4.4,4.4,0,0,1,.51-.4,2.634,2.634,0,0,1,.545-.281,1.6,1.6,0,0,1,.562-.1,1.234,1.234,0,0,1,.938.357,1.4,1.4,0,0,1,.339,1,4.455,4.455,0,0,1-.064.768,5.67,5.67,0,0,1-.252.9H144a1.079,1.079,0,0,0-.328-.6,1.058,1.058,0,0,0-.75-.241,1.979,1.979,0,0,0-.715.135,4.471,4.471,0,0,0-.686.334,5.971,5.971,0,0,0-.632.433c-.2.156-.381.3-.545.446v7.6a1.719,1.719,0,0,1-.047.363.834.834,0,0,1-.229.4,1.454,1.454,0,0,1-.539.322,2.848,2.848,0,0,1-.978.135,2.64,2.64,0,0,1-.979-.147,1.546,1.546,0,0,1-.545-.345.883.883,0,0,1-.234-.411,1.663,1.663,0,0,1-.047-.339V37.306a1.1,1.1,0,0,0-.158-.592.58.58,0,0,0-.533-.252.752.752,0,0,0-.34.071,1.8,1.8,0,0,0-.3.2l-.246-.293a6.516,6.516,0,0,1,.6-.439,4.554,4.554,0,0,1,.72-.381,5.1,5.1,0,0,1,.832-.27,4.079,4.079,0,0,1,.938-.1,2.464,2.464,0,0,1,.861.134,1.717,1.717,0,0,1,.586.352,1.667,1.667,0,0,1,.357.486,2.694,2.694,0,0,1,.194.545,2.934,2.934,0,0,1,.076.528C140.343,37.457,140.347,37.6,140.347,37.716Z"/>
    <path class="cls-1" d="M149.312,36.205a2.8,2.8,0,0,0-.739.093,2.565,2.565,0,0,0-.586.235,1.366,1.366,0,0,0-.386.31.519.519,0,0,0-.141.323.259.259,0,0,0,.182.251c.121.051.255.11.4.176a1.347,1.347,0,0,1,.4.282.756.756,0,0,1,.182.556,1.011,1.011,0,0,1-.1.451,1.217,1.217,0,0,1-.668.609,1.3,1.3,0,0,1-.474.088,1.365,1.365,0,0,1-1.061-.445,1.7,1.7,0,0,1-.4-1.183,2.01,2.01,0,0,1,.375-1.225,2.933,2.933,0,0,1,.978-.838,4.936,4.936,0,0,1,1.366-.486,7.6,7.6,0,0,1,3.269.041,4.433,4.433,0,0,1,1.471.633,3.274,3.274,0,0,1,1.019,1.1,3.216,3.216,0,0,1,.381,1.617v6.621q0,.1.012.234a.758.758,0,0,0,.058.235.456.456,0,0,0,.141.176.45.45,0,0,0,.27.07.589.589,0,0,0,.392-.158,3.063,3.063,0,0,0,.322-.323l.293.247c-.117.164-.257.343-.421.539a3.43,3.43,0,0,1-.6.55,3.383,3.383,0,0,1-.82.434,3.03,3.03,0,0,1-1.067.176,2.1,2.1,0,0,1-1.312-.44,2.13,2.13,0,0,1-.75-1.353,4.972,4.972,0,0,1-.78.844,4.207,4.207,0,0,1-.826.55,3.641,3.641,0,0,1-.849.3,4.057,4.057,0,0,1-.862.094,3.432,3.432,0,0,1-1.09-.176,2.6,2.6,0,0,1-.943-.557,2.739,2.739,0,0,1-.668-.99,3.9,3.9,0,0,1-.252-1.488,3.267,3.267,0,0,1,.422-1.746,3.767,3.767,0,0,1,1.107-1.143,7.538,7.538,0,0,1,1.559-.791q.873-.328,1.787-.691a1.913,1.913,0,0,0,.99-.8,2.154,2.154,0,0,0,.311-1.1,1.9,1.9,0,0,0-.51-1.388A1.851,1.851,0,0,0,149.312,36.205Zm1.863,5.132a.54.54,0,0,0-.188-.445.735.735,0,0,0-.48-.153,1.7,1.7,0,0,0-.779.188,1.914,1.914,0,0,0-.651.551,2.793,2.793,0,0,0-.445.9,4.191,4.191,0,0,0-.164,1.236,5.315,5.315,0,0,0,.1,1.125,2.216,2.216,0,0,0,.27.709.97.97,0,0,0,.392.369,1.076,1.076,0,0,0,.469.106,1.118,1.118,0,0,0,.574-.158,1.712,1.712,0,0,0,.469-.405,2.04,2.04,0,0,0,.317-.55,1.693,1.693,0,0,0,.117-.61Z"/>
    <path class="cls-1" d="M161.593,37.716a9.656,9.656,0,0,1,.949-1.23,6.355,6.355,0,0,1,.457-.457,4.4,4.4,0,0,1,.51-.4,2.66,2.66,0,0,1,.545-.281,1.6,1.6,0,0,1,.562-.1,1.234,1.234,0,0,1,.938.357,1.4,1.4,0,0,1,.34,1,4.454,4.454,0,0,1-.065.768,5.67,5.67,0,0,1-.252.9h-.328a1.079,1.079,0,0,0-.328-.6,1.058,1.058,0,0,0-.75-.241,1.979,1.979,0,0,0-.715.135,4.417,4.417,0,0,0-.685.334,5.883,5.883,0,0,0-.633.433c-.2.156-.381.3-.545.446v7.6a1.719,1.719,0,0,1-.047.363.834.834,0,0,1-.229.4,1.454,1.454,0,0,1-.539.322,2.848,2.848,0,0,1-.978.135,2.644,2.644,0,0,1-.979-.147,1.546,1.546,0,0,1-.545-.345.883.883,0,0,1-.234-.411,1.663,1.663,0,0,1-.047-.339V37.306a1.1,1.1,0,0,0-.158-.592.58.58,0,0,0-.533-.252.752.752,0,0,0-.34.071,1.843,1.843,0,0,0-.305.2l-.246-.293a6.516,6.516,0,0,1,.6-.439,4.554,4.554,0,0,1,.72-.381,5.1,5.1,0,0,1,.832-.27,4.079,4.079,0,0,1,.938-.1,2.464,2.464,0,0,1,.861.134,1.717,1.717,0,0,1,.586.352,1.67,1.67,0,0,1,.358.486,2.752,2.752,0,0,1,.193.545,2.934,2.934,0,0,1,.076.528C161.589,37.457,161.593,37.6,161.593,37.716Z"/>
    <path class="cls-1" d="M176.722,37.083a20.3,20.3,0,0,1-.416,4.143,20.568,20.568,0,0,1-1.149,3.75,17.134,17.134,0,0,1-1.74,3.2,13.457,13.457,0,0,1-2.191,2.478,9.7,9.7,0,0,1-2.5,1.606,6.62,6.62,0,0,1-2.666.574,3.05,3.05,0,0,1-1.594-.346,1.052,1.052,0,0,1-.563-.931,1.361,1.361,0,0,1,.071-.434,1.4,1.4,0,0,1,.187-.375.966.966,0,0,1,.281-.264.672.672,0,0,1,.352-.1.433.433,0,0,1,.369.222c.1.149.2.311.311.487a2.441,2.441,0,0,0,.4.486.9.9,0,0,0,.645.223,3.653,3.653,0,0,0,1.1-.182,5.7,5.7,0,0,0,1.155-.521,8.547,8.547,0,0,0,1.16-.827,13.342,13.342,0,0,0,1.142-1.084q-.328-1.184-.756-2.584t-.9-2.818q-.474-1.418-.973-2.736t-.972-2.338a10.457,10.457,0,0,0-.914-1.634q-.44-.617-.78-.616a.7.7,0,0,0-.345.071,2.421,2.421,0,0,0-.287.2l-.235-.293q.234-.2.492-.41a3.225,3.225,0,0,1,.61-.387,3.794,3.794,0,0,1,.82-.287,4.951,4.951,0,0,1,1.125-.111,2.82,2.82,0,0,1,1.33.322,2.966,2.966,0,0,1,1.119,1.189q.363.645.756,1.547t.791,2.015q.4,1.114.8,2.409t.814,2.712a18.043,18.043,0,0,0,1.172-3.228,13.831,13.831,0,0,0,.446-3.51,6.3,6.3,0,0,0-.083-1.1,5.822,5.822,0,0,0-.187-.779q-.1-.323-.188-.551a1.233,1.233,0,0,1-.082-.4.383.383,0,0,1,.141-.3,1.016,1.016,0,0,1,.34-.193,2.075,2.075,0,0,1,.4-.1,2.44,2.44,0,0,1,.346-.029.79.79,0,0,1,.486.129.74.74,0,0,1,.252.369,2.014,2.014,0,0,1,.094.58Q176.722,36.661,176.722,37.083Z"/>
  </g>
  <path class="cls-1" d="M47.593,7.842a12.514,12.514,0,0,0-12.5,12.5V70.324H192.56a12.514,12.514,0,0,0,12.5-12.5V7.842Zm0,1H204.06V19.169H36.153A11.516,11.516,0,0,1,47.593,8.842ZM203.974,59.169H36.093V20.342c0-.058.008-.115.009-.173H204.06V57.824A11.48,11.48,0,0,1,203.974,59.169ZM192.56,69.324H36.093V60.169H203.818A11.519,11.519,0,0,1,192.56,69.324Z"/>
</svg>
