<?xml version="1.0" encoding="UTF-8" standalone="no"?><!DOCTYPE svg PUBLIC "-//W3C//DTD SVG 1.1//EN" "http://www.w3.org/Graphics/SVG/1.1/DTD/svg11.dtd"><svg width="100%" height="100%" viewBox="0 0 437 647" version="1.1" xmlns="http://www.w3.org/2000/svg" xmlns:xlink="http://www.w3.org/1999/xlink" xml:space="preserve" xmlns:serif="http://www.serif.com/" style="fill-rule:evenodd;clip-rule:evenodd;stroke-linejoin:round;stroke-miterlimit:2;"><path d="M18.915,166.246c-18.392,21.011 -29.564,59.818 -3.785,75.966c25.779,16.147 33.015,-0.342 48.423,16.415c15.407,16.757 -1.806,45.708 25.721,39.427c27.528,-6.281 40.561,-29.621 34.976,-52.445c-5.585,-22.823 21.197,-69.739 -8.82,-83.781c-30.017,-14.042 -67.864,-28.315 -96.515,4.418Z" style="fill:#808080;"/><path d="M253.955,646.302c11.308,-11.882 21.523,-25.759 26.25,-43.279c17.403,-64.498 -31.251,-50.241 -29.87,-136.412c1.382,-86.172 107.643,-132.594 182.551,-130.61l3.826,0.157l0,310.144l-182.757,0Z" style="fill:#7d5a50;"/><path d="M20.754,510.01c-6.067,6.932 -9.753,19.734 -1.248,25.061c8.504,5.327 10.891,-0.112 15.974,5.416c5.083,5.528 -0.595,15.079 8.486,13.007c9.081,-2.073 13.381,-9.772 11.538,-17.302c-1.842,-7.529 6.993,-23.007 -2.91,-27.639c-9.902,-4.633 -22.388,-9.341 -31.84,1.457Z" style="fill:#bd9763;fill-opacity:0.71;"/><path d="M436.712,0c-2.126,31.575 -53.477,50.305 -34.936,101.383c3.957,10.9 6.246,18.353 8.595,27.176c13.983,52.527 -17.866,107.465 -95.514,123.817c-77.648,16.353 -27.256,-51.861 -69.228,-89.687c-41.973,-37.826 -63.473,0.858 -134.572,-34.879c-51.525,-25.898 -47.761,-80.642 -21.567,-127.81l347.222,0Z" style="fill:#bd9781;"/><path d="M28.432,300.859c1.124,-5.344 -0.687,-13.032 -6.63,-13.316c-5.942,-0.285 -5.597,3.22 -9.829,1.838c-4.232,-1.382 -4.07,-7.967 -8.162,-4.26c-4.093,3.707 -4.08,8.936 -0.942,12.293c3.138,3.357 3.065,13.922 9.528,13.442c6.464,-0.481 14.284,-1.671 16.035,-9.997Z" style="fill:#7d5a50;fill-opacity:0.71;"/><path d="M402.562,257.657c1.124,-5.344 -0.688,-13.032 -6.63,-13.316c-5.943,-0.285 -5.597,3.22 -9.83,1.838c-4.232,-1.382 -4.069,-7.967 -8.162,-4.26c-4.092,3.707 -4.079,8.936 -0.941,12.293c3.138,3.357 3.064,13.922 9.528,13.442c6.463,-0.481 14.284,-1.671 16.035,-9.997Z" style="fill:#7d5a50;fill-opacity:0.71;"/><path d="M165.824,646.302c-0.832,-5.801 -2.546,-11.757 -7.06,-16.666c-15.408,-16.757 -22.644,-0.268 -48.423,-16.415c-25.779,-16.148 -14.607,-54.955 3.785,-75.967c28.651,-32.732 66.498,-18.459 96.514,-4.417c30.017,14.041 3.236,60.957 8.821,83.781c2.531,10.344 1.238,20.793 -3.525,29.684l-50.112,0Z" style="fill:#808080;fill-opacity:0.71;"/><path d="M309.598,340.37c14.119,-13.05 23.941,-35.526 6.33,-42.708c-17.611,-7.182 -23.559,2.546 -33.745,-5.716c-10.186,-8.262 3.473,-25.664 -16.457,-20.191c-19.93,5.473 -30.339,19.441 -27.448,31.793c2.892,12.352 -18.448,40.472 2.285,46.175c20.734,5.703 47.04,10.977 69.035,-9.353Z" style="fill:#b28340;fill-opacity:0.71;"/><path d="M7.314,400.176c13.4,36.115 48.327,-23.116 69.582,0c21.255,23.116 -46.825,34.031 -13.85,70.728c23.338,25.973 39.953,17.867 77.582,-8.285c26.618,-18.499 29.241,-96.206 -12.168,-115.577c-41.408,-19.371 -148.289,-20.02 -121.146,53.134Z" style="fill:#a47c70;fill-opacity:0.71;"/></svg>