<svg id="Warstwa_1" data-name="Warstwa 1" xmlns="http://www.w3.org/2000/svg" xmlns:xlink="http://www.w3.org/1999/xlink" viewBox="0 0 240 80">
  <defs>
    <style>
      .cls-1 {
        fill: #5a5a5a;
      }

      .cls-2 {
        fill: url(#Gradient_bez_nazwy_112);
      }
    </style>
    <linearGradient id="Gradient_bez_nazwy_112" data-name="Gradient bez nazwy 112" x1="482.082" y1="405.454" x2="465.48" y2="388.967" gradientTransform="matrix(0.834, -0.584, -0.63, -0.621, -97.976, 560.359)" gradientUnits="userSpaceOnUse">
      <stop offset="0.005" stop-color="#fff"/>
      <stop offset="0.016" stop-color="#f0fffe"/>
      <stop offset="0.049" stop-color="#cbfffc"/>
      <stop offset="0.081" stop-color="#aefffa"/>
      <stop offset="0.113" stop-color="#99fff8"/>
      <stop offset="0.144" stop-color="#8cfff7"/>
      <stop offset="0.173" stop-color="#88fff7"/>
      <stop offset="0.205" stop-color="#71f4e8"/>
      <stop offset="0.269" stop-color="#49e2ce"/>
      <stop offset="0.332" stop-color="#29d3ba"/>
      <stop offset="0.392" stop-color="#12c9ab"/>
      <stop offset="0.45" stop-color="#05c2a2"/>
      <stop offset="0.5" stop-color="#00c09f"/>
      <stop offset="0.595" stop-color="#0cb396"/>
      <stop offset="0.771" stop-color="#2a907f"/>
      <stop offset="1" stop-color="#5a5a5a"/>
    </linearGradient>
  </defs>
  <g>
    <path class="cls-1" d="M80.068,40.556v6.3H77.946V30.765H83.88a5.961,5.961,0,0,1,4.139,1.348,4.571,4.571,0,0,1,1.5,3.569,4.51,4.51,0,0,1-1.465,3.608,6.226,6.226,0,0,1-4.194,1.266Zm0-1.736H83.88a3.816,3.816,0,0,0,2.609-.8A2.935,2.935,0,0,0,87.4,35.7a3.033,3.033,0,0,0-.906-2.3A3.567,3.567,0,0,0,84,32.5H80.068Z"/>
    <path class="cls-1" d="M90.653,40.766a7.069,7.069,0,0,1,.69-3.161,5.149,5.149,0,0,1,1.923-2.166,5.237,5.237,0,0,1,2.813-.763,5.043,5.043,0,0,1,3.95,1.691,6.506,6.506,0,0,1,1.509,4.5v.144a7.122,7.122,0,0,1-.669,3.133,5.086,5.086,0,0,1-1.911,2.16,5.306,5.306,0,0,1-2.857.773,5.031,5.031,0,0,1-3.94-1.69,6.47,6.47,0,0,1-1.508-4.476Zm2.055.243a5.114,5.114,0,0,0,.923,3.193,3.126,3.126,0,0,0,4.945-.016,5.592,5.592,0,0,0,.917-3.42,5.113,5.113,0,0,0-.933-3.189,2.97,2.97,0,0,0-2.481-1.221,2.937,2.937,0,0,0-2.443,1.2A5.559,5.559,0,0,0,92.708,41.009Z"/>
    <path class="cls-1" d="M109.315,36.732a6.193,6.193,0,0,0-1-.078,2.7,2.7,0,0,0-2.73,1.713v8.487h-2.044V34.9h1.988l.034,1.382a3.181,3.181,0,0,1,2.851-1.6,2.088,2.088,0,0,1,.906.155Z"/>
    <path class="cls-1" d="M113.954,32V34.9h2.233v1.581h-2.233V43.9a1.665,1.665,0,0,0,.3,1.079,1.257,1.257,0,0,0,1.017.36,4.993,4.993,0,0,0,.973-.133v1.647a5.942,5.942,0,0,1-1.57.22,2.547,2.547,0,0,1-2.066-.828,3.564,3.564,0,0,1-.7-2.354V36.478h-2.177V34.9h2.177V32Z"/>
    <path class="cls-1" d="M119.014,46.854V36.478h-1.89V34.9h1.89V33.671a4.069,4.069,0,0,1,1.028-2.973,3.879,3.879,0,0,1,2.905-1.05,5.382,5.382,0,0,1,1.405.187l-.112,1.648a5.886,5.886,0,0,0-1.1-.1,2,2,0,0,0-1.536.582,2.359,2.359,0,0,0-.541,1.669V34.9h2.552v1.581h-2.552V46.854Z"/>
    <path class="cls-1" d="M124.758,40.766a7.069,7.069,0,0,1,.69-3.161,5.149,5.149,0,0,1,1.923-2.166,5.237,5.237,0,0,1,2.813-.763,5.041,5.041,0,0,1,3.95,1.691,6.506,6.506,0,0,1,1.509,4.5v.144a7.136,7.136,0,0,1-.668,3.133,5.084,5.084,0,0,1-1.913,2.16,5.3,5.3,0,0,1-2.856.773,5.03,5.03,0,0,1-3.94-1.69,6.47,6.47,0,0,1-1.508-4.476Zm2.055.243a5.114,5.114,0,0,0,.922,3.193,3.127,3.127,0,0,0,4.946-.016,5.591,5.591,0,0,0,.918-3.42,5.107,5.107,0,0,0-.935-3.189,2.967,2.967,0,0,0-2.48-1.221,2.937,2.937,0,0,0-2.443,1.2A5.553,5.553,0,0,0,126.813,41.009Z"/>
    <path class="cls-1" d="M139.862,46.854h-2.045V29.88h2.045Z"/>
    <path class="cls-1" d="M142.579,31.726a1.219,1.219,0,0,1,.3-.84,1.141,1.141,0,0,1,.9-.343,1.159,1.159,0,0,1,.906.343,1.205,1.205,0,0,1,.31.84,1.266,1.266,0,0,1-2.116.829A1.181,1.181,0,0,1,142.579,31.726Zm2.21,15.128h-2.045V34.9h2.045Z"/>
    <path class="cls-1" d="M146.952,40.766a7.056,7.056,0,0,1,.691-3.161,5.146,5.146,0,0,1,1.922-2.166,5.24,5.24,0,0,1,2.813-.763,5.041,5.041,0,0,1,3.95,1.691,6.506,6.506,0,0,1,1.509,4.5v.144a7.136,7.136,0,0,1-.668,3.133,5.082,5.082,0,0,1-1.912,2.16,5.3,5.3,0,0,1-2.857.773,5.031,5.031,0,0,1-3.94-1.69,6.475,6.475,0,0,1-1.508-4.476Zm2.056.243a5.108,5.108,0,0,0,.922,3.193,3.126,3.126,0,0,0,4.945-.016,5.591,5.591,0,0,0,.918-3.42,5.107,5.107,0,0,0-.935-3.189,2.967,2.967,0,0,0-2.48-1.221,2.935,2.935,0,0,0-2.442,1.2A5.546,5.546,0,0,0,149.008,41.009Z"/>
    <path class="cls-1" d="M174.973,41.009a7.156,7.156,0,0,1-1.249,4.4,4,4,0,0,1-3.381,1.668,4.383,4.383,0,0,1-3.426-1.381v5.757h-2.045V34.9h1.868l.1,1.327a4.208,4.208,0,0,1,3.47-1.548,4.079,4.079,0,0,1,3.409,1.625,7.239,7.239,0,0,1,1.254,4.519Zm-2.044-.233a5.279,5.279,0,0,0-.863-3.193,2.776,2.776,0,0,0-2.365-1.171,3,3,0,0,0-2.784,1.646v5.713a3.012,3.012,0,0,0,2.807,1.636,2.763,2.763,0,0,0,2.337-1.166A5.762,5.762,0,0,0,172.929,40.776Z"/>
    <path class="cls-1" d="M184.386,46.854A4.324,4.324,0,0,1,184.1,45.6a4.563,4.563,0,0,1-3.4,1.48,4.223,4.223,0,0,1-2.9-1,3.235,3.235,0,0,1-1.133-2.536,3.378,3.378,0,0,1,1.421-2.9,6.681,6.681,0,0,1,3.994-1.034h1.989v-.939a2.3,2.3,0,0,0-.64-1.708,2.581,2.581,0,0,0-1.89-.635,2.986,2.986,0,0,0-1.835.552,1.63,1.63,0,0,0-.74,1.338H176.9a2.822,2.822,0,0,1,.636-1.73,4.337,4.337,0,0,1,1.724-1.32,5.783,5.783,0,0,1,2.392-.487,4.735,4.735,0,0,1,3.239,1.033,3.73,3.73,0,0,1,1.215,2.846v5.5a6.732,6.732,0,0,0,.42,2.619v.176ZM180.993,45.3a3.588,3.588,0,0,0,1.824-.5,3,3,0,0,0,1.248-1.293V41.053h-1.6q-3.757,0-3.757,2.2a1.862,1.862,0,0,0,.641,1.5A2.462,2.462,0,0,0,180.993,45.3Z"/>
    <path class="cls-1" d="M188.263,40.776a7.025,7.025,0,0,1,1.293-4.447,4.455,4.455,0,0,1,6.84-.105l.1-1.327h1.867v11.67a4.861,4.861,0,0,1-1.376,3.658,5.078,5.078,0,0,1-3.7,1.337,6.155,6.155,0,0,1-2.53-.552,4.357,4.357,0,0,1-1.89-1.514l1.061-1.227a4,4,0,0,0,3.215,1.625,3.137,3.137,0,0,0,2.327-.84,3.215,3.215,0,0,0,.834-2.366V45.661a4.2,4.2,0,0,1-3.348,1.414,4.083,4.083,0,0,1-3.4-1.69A7.38,7.38,0,0,1,188.263,40.776Zm2.055.233a5.368,5.368,0,0,0,.829,3.177,2.7,2.7,0,0,0,2.321,1.155,3,3,0,0,0,2.84-1.758V38.125a3.028,3.028,0,0,0-2.818-1.713,2.716,2.716,0,0,0-2.332,1.16A5.845,5.845,0,0,0,190.318,41.009Z"/>
    <path class="cls-1" d="M205.842,47.075a5.224,5.224,0,0,1-3.956-1.6,5.929,5.929,0,0,1-1.526-4.272v-.375a7.176,7.176,0,0,1,.68-3.177,5.3,5.3,0,0,1,1.9-2.188,4.78,4.78,0,0,1,2.647-.791,4.478,4.478,0,0,1,3.625,1.536,6.659,6.659,0,0,1,1.293,4.4v.852h-8.1a4.251,4.251,0,0,0,1.033,2.856,3.249,3.249,0,0,0,2.514,1.089,3.557,3.557,0,0,0,1.835-.442,4.609,4.609,0,0,0,1.315-1.172l1.249.973A5.02,5.02,0,0,1,205.842,47.075Zm-.254-10.719a2.727,2.727,0,0,0-2.078.9,4.371,4.371,0,0,0-1.038,2.524h5.989v-.154a3.9,3.9,0,0,0-.84-2.415A2.57,2.57,0,0,0,205.588,36.356Z"/>
  </g>
  <path class="cls-2" d="M29.343,35.5a12.074,12.074,0,0,0,2.193,8.076,7.93,7.93,0,0,0,7.984,3.149,13.422,13.422,0,0,0,6.468-2.6,6.692,6.692,0,0,1,5.073-1.495c2.66.169,4.21,1.847,5.634,2.913s2.722,1.522,4.879-.755,3.013-4.666,2.791-6.8a6.955,6.955,0,0,0-3.687-5.262,50.06,50.06,0,0,0-7.935-3.482,41.767,41.767,0,0,0-7.73-2.016c-3.781-.481-7.513-.518-10.393.618S29.714,31.293,29.343,35.5Z"/>
</svg>
