<svg id="Warstwa_1" data-name="Warstwa 1" xmlns="http://www.w3.org/2000/svg" xmlns:xlink="http://www.w3.org/1999/xlink" viewBox="0 0 872 703.57">
  <defs>
    <style>
      .cls-1 {
        fill: url(#Gradient_bez_nazwy_34);
      }

      .cls-2 {
        fill: url(#Gradient_bez_nazwy_38);
      }

      .cls-3 {
        fill: url(#Gradient_bez_nazwy_38-2);
      }

      .cls-4 {
        fill: url(#Gradient_bez_nazwy_38-3);
      }

      .cls-5 {
        fill: url(#Gradient_bez_nazwy_38-4);
      }

      .cls-6 {
        fill: url(#Gradient_bez_nazwy_38-5);
      }

      .cls-7 {
        fill: url(#Gradient_bez_nazwy_38-6);
      }

      .cls-8 {
        fill: url(#Gradient_bez_nazwy_38-7);
      }

      .cls-9 {
        fill: url(#Gradient_bez_nazwy_38-8);
      }

      .cls-10 {
        fill: url(#Gradient_bez_nazwy_38-9);
      }

      .cls-11 {
        fill: url(#Gradient_bez_nazwy_38-10);
      }

      .cls-12 {
        fill: url(#Gradient_bez_nazwy_25);
      }

      .cls-13 {
        fill: url(#Gradient_bez_nazwy_25-2);
      }

      .cls-14 {
        fill: url(#Gradient_bez_nazwy_25-3);
      }

      .cls-15 {
        fill: url(#Gradient_bez_nazwy_25-4);
      }

      .cls-16 {
        fill: url(#Gradient_bez_nazwy_25-5);
      }

      .cls-17 {
        fill: url(#Gradient_bez_nazwy_25-6);
      }

      .cls-18 {
        fill: url(#Gradient_bez_nazwy_25-7);
      }

      .cls-19 {
        fill: url(#Gradient_bez_nazwy_25-8);
      }

      .cls-20 {
        fill: url(#Gradient_bez_nazwy_25-9);
      }

      .cls-21 {
        fill: url(#Gradient_bez_nazwy_25-10);
      }

      .cls-22 {
        fill: url(#Gradient_bez_nazwy_25-11);
      }

      .cls-23 {
        fill: url(#Gradient_bez_nazwy_25-12);
      }

      .cls-24 {
        fill: url(#Gradient_bez_nazwy_25-13);
      }

      .cls-25 {
        fill: url(#Gradient_bez_nazwy_25-14);
      }

      .cls-26 {
        fill: url(#Gradient_bez_nazwy_25-15);
      }
    </style>
    <linearGradient id="Gradient_bez_nazwy_34" data-name="Gradient bez nazwy 34" x1="436.005" y1="452.77" x2="436.005" y2="-254.57" gradientTransform="matrix(1, 0, 0, -1, 0, 452.21)" gradientUnits="userSpaceOnUse">
      <stop offset="0" stop-color="#00c09f"/>
      <stop offset="0.378" stop-color="#88fff7"/>
      <stop offset="0.415" stop-color="#8bfff7"/>
      <stop offset="0.448" stop-color="#96fff8"/>
      <stop offset="0.479" stop-color="#a8fff9"/>
      <stop offset="0.509" stop-color="#c2fffb"/>
      <stop offset="0.538" stop-color="#e2fffd"/>
      <stop offset="0.559" stop-color="#fff"/>
      <stop offset="0.603" stop-color="#d1f4ee"/>
      <stop offset="0.662" stop-color="#9ae6d9"/>
      <stop offset="0.721" stop-color="#6bdac7"/>
      <stop offset="0.78" stop-color="#45d1b9"/>
      <stop offset="0.837" stop-color="#27caae"/>
      <stop offset="0.894" stop-color="#11c4a5"/>
      <stop offset="0.949" stop-color="#04c1a1"/>
      <stop offset="1" stop-color="#00c09f"/>
    </linearGradient>
    <linearGradient id="Gradient_bez_nazwy_38" data-name="Gradient bez nazwy 38" x1="1144.762" y1="-126.954" x2="853.692" y2="16.276" gradientTransform="matrix(-0.47, -0.64, -0.63, 0.4, 889.29, 834.01)" gradientUnits="userSpaceOnUse">
      <stop offset="0" stop-color="#88fff7"/>
      <stop offset="0.156" stop-color="#83fdf4"/>
      <stop offset="0.331" stop-color="#76f7eb"/>
      <stop offset="0.515" stop-color="#5fecdd"/>
      <stop offset="0.705" stop-color="#40dec8"/>
      <stop offset="0.898" stop-color="#18cbaf"/>
      <stop offset="1" stop-color="#00c09f"/>
    </linearGradient>
    <linearGradient id="Gradient_bez_nazwy_38-2" x1="1100.182" y1="-383.607" x2="1364.342" y2="-383.607" gradientTransform="matrix(-0.94, 0.31, 0.68, 0.66, 1647.9, 454.77)" xlink:href="#Gradient_bez_nazwy_38"/>
    <linearGradient id="Gradient_bez_nazwy_38-3" x1="765.459" y1="-167.231" x2="765.459" y2="-50.631" gradientTransform="translate(0 730.38)" xlink:href="#Gradient_bez_nazwy_38"/>
    <linearGradient id="Gradient_bez_nazwy_38-4" x1="571.662" y1="508.067" x2="361.733" y2="611.371" gradientTransform="matrix(-0.73, 0.71, -0.72, -0.51, 1387.4, 457.5)" xlink:href="#Gradient_bez_nazwy_38"/>
    <linearGradient id="Gradient_bez_nazwy_38-5" x1="135.535" y1="879.042" x2="185.895" y2="732.192" gradientTransform="translate(880.21 1059.9) rotate(161.384)" xlink:href="#Gradient_bez_nazwy_38"/>
    <linearGradient id="Gradient_bez_nazwy_38-6" x1="-48.613" y1="-1224.913" x2="292.177" y2="-1211.823" gradientTransform="matrix(-0.22, 0.96, 0.91, 0.26, 1367.38, 421.45)" xlink:href="#Gradient_bez_nazwy_38"/>
    <linearGradient id="Gradient_bez_nazwy_38-7" x1="-745.644" y1="343.436" x2="-404.854" y2="356.516" gradientTransform="matrix(0.5, 0.82, -0.56, 0.56, 1158.96, 461.72)" xlink:href="#Gradient_bez_nazwy_38"/>
    <linearGradient id="Gradient_bez_nazwy_38-8" x1="256.046" y1="71.074" x2="509.476" y2="71.074" gradientTransform="matrix(-0.44, 0.5, -0.44, -0.49, 960.14, 258.77)" xlink:href="#Gradient_bez_nazwy_38"/>
    <linearGradient id="Gradient_bez_nazwy_38-9" x1="448.588" y1="954.064" x2="509.518" y2="776.394" gradientTransform="translate(880.21 1059.9) rotate(161.384)" xlink:href="#Gradient_bez_nazwy_38"/>
    <linearGradient id="Gradient_bez_nazwy_38-10" x1="397.569" y1="-349.781" x2="397.569" y2="-81.741" gradientTransform="translate(0 730.38)" xlink:href="#Gradient_bez_nazwy_38"/>
    <linearGradient id="Gradient_bez_nazwy_25" data-name="Gradient bez nazwy 25" x1="605.695" y1="-166.712" x2="605.695" y2="-76.172" gradientTransform="translate(0 730.38)" gradientUnits="userSpaceOnUse">
      <stop offset="0.005" stop-color="#fff"/>
      <stop offset="0.525" stop-color="#88fff7"/>
      <stop offset="1" stop-color="#00c09f"/>
    </linearGradient>
    <linearGradient id="Gradient_bez_nazwy_25-2" x1="630.085" y1="-391.212" x2="630.085" y2="-349.362" xlink:href="#Gradient_bez_nazwy_25"/>
    <linearGradient id="Gradient_bez_nazwy_25-3" x1="236.145" y1="-169.642" x2="236.145" y2="-127.802" xlink:href="#Gradient_bez_nazwy_25"/>
    <linearGradient id="Gradient_bez_nazwy_25-4" x1="806.695" y1="-241.442" x2="806.695" y2="-168.272" xlink:href="#Gradient_bez_nazwy_25"/>
    <linearGradient id="Gradient_bez_nazwy_25-5" x1="647.315" y1="-270.082" x2="647.315" y2="-242.362" xlink:href="#Gradient_bez_nazwy_25"/>
    <linearGradient id="Gradient_bez_nazwy_25-6" x1="146.405" y1="-506.902" x2="146.405" y2="-477.312" xlink:href="#Gradient_bez_nazwy_25"/>
    <linearGradient id="Gradient_bez_nazwy_25-7" x1="43.475" y1="-300.952" x2="43.475" y2="-271.362" xlink:href="#Gradient_bez_nazwy_25"/>
    <linearGradient id="Gradient_bez_nazwy_25-8" x1="759.935" y1="-500.312" x2="759.935" y2="-432.282" xlink:href="#Gradient_bez_nazwy_25"/>
    <linearGradient id="Gradient_bez_nazwy_25-9" x1="87.545" y1="-671.642" x2="87.545" y2="-554.052" xlink:href="#Gradient_bez_nazwy_25"/>
    <linearGradient id="Gradient_bez_nazwy_25-10" x1="794.005" y1="-671.642" x2="794.005" y2="-554.052" xlink:href="#Gradient_bez_nazwy_25"/>
    <linearGradient id="Gradient_bez_nazwy_25-11" x1="257.095" y1="-592.182" x2="257.095" y2="-515.693" xlink:href="#Gradient_bez_nazwy_25"/>
    <linearGradient id="Gradient_bez_nazwy_25-12" x1="326.721" y1="-460.458" x2="326.721" y2="-383.969" xlink:href="#Gradient_bez_nazwy_25"/>
    <linearGradient id="Gradient_bez_nazwy_25-13" x1="474.305" y1="-592.182" x2="474.305" y2="-515.693" xlink:href="#Gradient_bez_nazwy_25"/>
    <linearGradient id="Gradient_bez_nazwy_25-14" x1="28.665" y1="118.042" x2="138.165" y2="118.042" gradientTransform="matrix(1, 0, 0, -1, 0, 704)" xlink:href="#Gradient_bez_nazwy_25"/>
    <linearGradient id="Gradient_bez_nazwy_25-15" x1="665.185" y1="-542.402" x2="665.185" y2="-462.352" xlink:href="#Gradient_bez_nazwy_25"/>
  </defs>
  <g id="bggradient">
    <rect class="cls-1" x="-0.32" y="-0.56" width="872.65" height="707.34"/>
  </g>
  <g id="big-blobs">
    <path class="cls-2" d="M504.229,49.319c-42.58-4.24-125.12,5.84-177.33,22.81-52.43,17.36-79.05,71.16-51.69,132.85s58.76-7.54,113.57,1.85,33.49,43.92,101.81,74.47c68.75,30.79,128.06-38.62,142.27-100.53C655.179,84.619,583.839,57.259,504.229,49.319Z"/>
    <path class="cls-3" d="M401.539,621.4c18.37-41.34-38.42-54.75-62.66-19.66-22.6,32.71-50.17,18.09-74.69,9.22-92.54-42.31,51.39-43.21,37.75-68.16-8.43-35.91-59.14-67-102.55-68.52-46.61-.47-40.6,25-18.6,48,56.92,39.45-157.68,85.74-22.72,145.54C276.279,720.2,374.7,660.8,401.539,621.4Z"/>
    <circle class="cls-4" cx="765.459" cy="621.529" r="58.38"/>
    <path class="cls-5" d="M808.139,506.189c-3.76-52.79-47.771-114.29-115.391-91.88-67.19,22.23-52.8,52.38-104.45,57.49s-70.09-54.76-104.38-4.24-17.94,97.17,27.521,114.46c45.32,16.94,119.51,29.65,159.14,28.25C744.729,607.639,814.219,588.259,808.139,506.189Z"/>
    <path class="cls-6" d="M544.058,325.6c-26-31.58-40.54,39.94-70,24s35.331-50.35-10.549-75.88c-32.46-18-46.36-4.09-75,35-20.33,27.68,3.79,106.68,52,111.92C488.929,426.009,596.649,389.8,544.058,325.6Z"/>
    <path class="cls-7" d="M139.559,70.4c61.92-33,162.86-34.56,187.07,43.62,24.1,77.65-20.17,85.11,11.77,136.53s112.46,27.22,80.87,93.89-95.78,83.68-148.3,53.45c-52-30.34-231.1-44.85-247.43-131.76S43.169,121.4,139.559,70.4Z"/>
    <path class="cls-8" d="M690.049,16.479c-56-8.73-129,25.41-118.78,106.46,10.12,80.53,44.5,71.82,39.729,130.79s-71.049,64.93-24.859,115.67,98.219,43.82,125.219-2.76c26.61-46.5,149.92-123.15,131-209.52S777.169,29.759,690.049,16.479Z"/>
    <path class="cls-9" d="M764.089,308.649c37.37-4.56,38.68,28.74,5.469,37.4-31,8.08-23.619,25.35-20.5,40.14,19.06,57,44.61-22.61,62.9-11.65,28.27,9.55,45.3,41.89,39,66.15-7.64,25.9-27.651,19.11-42.93,3.79-22.84-36.92-98.13,75.73-124.35-7.2C660.739,364.639,726.849,318.169,764.089,308.649Z"/>
    <path class="cls-10" d="M238.149,368.709c-31.44-38.21-49,48.32-84.64,29s42.74-60.92-12.76-91.8c-39.28-21.8-56.09-4.95-90.81,42.38-24.59,33.48,4.58,129.11,62.91,135.4C171.459,490.2,301.809,446.4,238.149,368.709Z"/>
    <circle class="cls-11" cx="397.569" cy="514.809" r="134.21"/>
  </g>
  <g id="bubles">
    <circle class="cls-12" cx="605.695" cy="609.008" r="45.34"/>
    <circle class="cls-13" cx="630.085" cy="360.118" r="20.95"/>
    <circle class="cls-14" cx="236.145" cy="581.688" r="20.95"/>
    <circle class="cls-15" cx="806.695" cy="525.578" r="36.64"/>
    <circle class="cls-16" cx="647.315" cy="474.178" r="13.88"/>
    <circle class="cls-17" cx="146.405" cy="238.288" r="14.81"/>
    <circle class="cls-18" cx="43.475" cy="444.238" r="14.81"/>
    <circle class="cls-19" cx="759.935" cy="264.138" r="34.07"/>
    <circle class="cls-20" cx="87.545" cy="117.618" r="58.88"/>
    <circle class="cls-21" cx="794.005" cy="117.618" r="58.88"/>
    <circle class="cls-22" cx="257.095" cy="176.498" r="38.3"/>
    <circle class="cls-23" cx="326.721" cy="308.222" r="38.3"/>
    <circle class="cls-24" cx="474.305" cy="176.498" r="38.3"/>
    <circle class="cls-25" cx="83.415" cy="585.958" r="54.75"/>
    <circle class="cls-26" cx="665.185" cy="228.058" r="40.08"/>
  </g>
</svg>
