<svg id="Warstwa_1" data-name="Warstwa 1" xmlns="http://www.w3.org/2000/svg" xmlns:xlink="http://www.w3.org/1999/xlink" viewBox="0 0 872 703.57">
  <defs>
    <style>
      .cls-1 {
        fill: url(#Gradient_bez_nazwy);
      }

      .cls-2 {
        fill: url(#Gradient_bez_nazwy_2);
      }

      .cls-3 {
        fill: url(#Gradient_bez_nazwy_3);
      }

      .cls-4 {
        fill: url(#Gradient_bez_nazwy_5);
      }

      .cls-5 {
        fill: url(#Gradient_bez_nazwy_6);
      }

      .cls-6 {
        fill: url(#Gradient_bez_nazwy_7);
      }

      .cls-7 {
        fill: url(#Gradient_bez_nazwy_8);
      }

      .cls-8 {
        fill: url(#Gradient_bez_nazwy_10);
      }

      .cls-9 {
        fill: url(#Gradient_bez_nazwy_10-2);
      }

      .cls-10 {
        fill: url(#Gradient_bez_nazwy_36);
      }

      .cls-11 {
        fill: url(#Gradient_bez_nazwy_36-2);
      }

      .cls-12 {
        fill: url(#Gradient_bez_nazwy_36-3);
      }

      .cls-13 {
        fill: url(#Gradient_bez_nazwy_36-4);
      }

      .cls-14 {
        fill: url(#Gradient_bez_nazwy_36-5);
      }

      .cls-15 {
        fill: url(#Gradient_bez_nazwy_36-6);
      }

      .cls-16 {
        fill: url(#Gradient_bez_nazwy_36-7);
      }

      .cls-17 {
        fill: url(#Gradient_bez_nazwy_36-8);
      }

      .cls-18 {
        fill: url(#Gradient_bez_nazwy_36-9);
      }

      .cls-19 {
        fill: url(#Gradient_bez_nazwy_36-10);
      }

      .cls-20 {
        fill: url(#Gradient_bez_nazwy_36-11);
      }

      .cls-21 {
        fill: url(#Gradient_bez_nazwy_36-12);
      }

      .cls-22 {
        fill: url(#Gradient_bez_nazwy_36-13);
      }

      .cls-23 {
        fill: url(#Gradient_bez_nazwy_36-14);
      }

      .cls-24 {
        fill: url(#Gradient_bez_nazwy_36-15);
      }
    </style>
    <linearGradient id="Gradient_bez_nazwy" data-name="Gradient bez nazwy" x1="436.005" y1="-416.77" x2="436.005" y2="290.57" gradientTransform="translate(0 416.21)" gradientUnits="userSpaceOnUse">
      <stop offset="0" stop-color="#00c09f"/>
      <stop offset="0.378" stop-color="#88fff7"/>
      <stop offset="0.415" stop-color="#8bfff7"/>
      <stop offset="0.448" stop-color="#96fff8"/>
      <stop offset="0.479" stop-color="#a8fff9"/>
      <stop offset="0.509" stop-color="#c2fffb"/>
      <stop offset="0.538" stop-color="#e2fffd"/>
      <stop offset="0.559" stop-color="#fff"/>
      <stop offset="0.603" stop-color="#d1f4ee"/>
      <stop offset="0.662" stop-color="#9ae6d9"/>
      <stop offset="0.721" stop-color="#6bdac7"/>
      <stop offset="0.78" stop-color="#45d1b9"/>
      <stop offset="0.837" stop-color="#27caae"/>
      <stop offset="0.894" stop-color="#11c4a5"/>
      <stop offset="0.949" stop-color="#04c1a1"/>
      <stop offset="1" stop-color="#00c09f"/>
    </linearGradient>
    <linearGradient id="Gradient_bez_nazwy_2" data-name="Gradient bez nazwy 2" x1="2091.554" y1="258.762" x2="1939.442" y2="183.911" gradientTransform="matrix(-0.47, -0.64, 0.63, -0.4, 1270.65, 1583.53)" gradientUnits="userSpaceOnUse">
      <stop offset="0" stop-color="#88fff7"/>
      <stop offset="0.156" stop-color="#83fdf4"/>
      <stop offset="0.331" stop-color="#76f7eb"/>
      <stop offset="0.515" stop-color="#5fecdd"/>
      <stop offset="0.705" stop-color="#40dec8"/>
      <stop offset="0.898" stop-color="#18cbaf"/>
      <stop offset="1" stop-color="#00c09f"/>
    </linearGradient>
    <linearGradient id="Gradient_bez_nazwy_3" data-name="Gradient bez nazwy 3" x1="1576.848" y1="1287.222" x2="1841.008" y2="1287.222" gradientTransform="matrix(-0.94, 0.31, -0.68, -0.66, 2710.42, 903.39)" xlink:href="#Gradient_bez_nazwy_2"/>
    <linearGradient id="Gradient_bez_nazwy_5" data-name="Gradient bez nazwy 5" x1="958.764" y1="-749.956" x2="748.836" y2="-853.26" gradientTransform="matrix(-0.73, 0.71, 0.72, 0.51, 1844.14, 306.02)" xlink:href="#Gradient_bez_nazwy_2"/>
    <linearGradient id="Gradient_bez_nazwy_6" data-name="Gradient bez nazwy 6" x1="844.002" y1="-959.332" x2="894.332" y2="-812.568" gradientTransform="matrix(-0.948, 0.319, 0.319, 0.948, 1576.227, 909.823)" xlink:href="#Gradient_bez_nazwy_2"/>
    <linearGradient id="Gradient_bez_nazwy_7" data-name="Gradient bez nazwy 7" x1="159.611" y1="2104.973" x2="500.401" y2="2091.883" gradientTransform="matrix(-0.22, 0.96, -0.91, -0.26, 2214.04, 450.37)" xlink:href="#Gradient_bez_nazwy_2"/>
    <linearGradient id="Gradient_bez_nazwy_8" data-name="Gradient bez nazwy 8" x1="-897.345" y1="-211.212" x2="-556.555" y2="-224.292" gradientTransform="matrix(0.5, 0.82, 0.56, -0.56, 1160.76, 660.16)" xlink:href="#Gradient_bez_nazwy_2"/>
    <linearGradient id="Gradient_bez_nazwy_10" data-name="Gradient bez nazwy 10" x1="1242.821" y1="-964.196" x2="1271.792" y2="-879.719" gradientTransform="matrix(-0.948, 0.319, 0.319, 0.948, 1576.227, 909.823)" xlink:href="#Gradient_bez_nazwy_2"/>
    <linearGradient id="Gradient_bez_nazwy_10-2" data-name="Gradient bez nazwy 10" x1="524.314" y1="-881.502" x2="553.285" y2="-797.025" gradientTransform="matrix(-0.948, 0.319, 0.319, 0.948, 1576.227, 909.823)" xlink:href="#Gradient_bez_nazwy_2"/>
    <linearGradient id="Gradient_bez_nazwy_36" data-name="Gradient bez nazwy 36" x1="246.041" y1="-1495.595" x2="246.041" y2="-1349.319" gradientTransform="translate(0 1593.583)" gradientUnits="userSpaceOnUse">
      <stop offset="0.005" stop-color="#fff"/>
      <stop offset="0.525" stop-color="#88fff7"/>
      <stop offset="1" stop-color="#00c09f"/>
    </linearGradient>
    <linearGradient id="Gradient_bez_nazwy_36-2" x1="660.428" y1="-1476.357" x2="660.428" y2="-1294.688" xlink:href="#Gradient_bez_nazwy_36"/>
    <linearGradient id="Gradient_bez_nazwy_36-3" x1="1369.766" y1="-640.702" x2="1250.301" y2="-525.551" gradientTransform="matrix(0.694, -0.72, 0.72, 0.694, -37.444, 1991.149)" xlink:href="#Gradient_bez_nazwy_36"/>
    <linearGradient id="Gradient_bez_nazwy_36-4" x1="104.522" y1="-1428.776" x2="104.522" y2="-1354.517" xlink:href="#Gradient_bez_nazwy_36"/>
    <linearGradient id="Gradient_bez_nazwy_36-5" x1="3056.146" y1="32.35" x2="2961.96" y2="-21.409" gradientTransform="translate(2325.466 3085.352) rotate(-119.716)" xlink:href="#Gradient_bez_nazwy_36"/>
    <linearGradient id="Gradient_bez_nazwy_36-6" x1="528.65" y1="-1170.554" x2="528.65" y2="-1078.26" xlink:href="#Gradient_bez_nazwy_36"/>
    <linearGradient id="Gradient_bez_nazwy_36-7" x1="259.337" y1="-375.276" x2="338.335" y2="-378.361" gradientTransform="matrix(0.039, 0.999, 0.999, -0.039, 405.938, 265.458)" xlink:href="#Gradient_bez_nazwy_36"/>
    <linearGradient id="Gradient_bez_nazwy_36-8" x1="-169.491" y1="462.44" x2="-90.492" y2="459.355" gradientTransform="matrix(0.039, 0.999, 0.999, -0.039, 405.938, 265.458)" xlink:href="#Gradient_bez_nazwy_36"/>
    <linearGradient id="Gradient_bez_nazwy_36-9" x1="-202.435" y1="-381.291" x2="-123.436" y2="-384.375" gradientTransform="matrix(0.039, 0.999, 0.999, -0.039, 405.938, 265.458)" xlink:href="#Gradient_bez_nazwy_36"/>
    <linearGradient id="Gradient_bez_nazwy_36-10" x1="4.699" y1="-68.009" x2="133.416" y2="-73.035" gradientTransform="matrix(0.039, 0.999, 0.999, -0.039, 405.938, 265.458)" xlink:href="#Gradient_bez_nazwy_36"/>
    <linearGradient id="Gradient_bez_nazwy_36-11" x1="307.552" y1="352.913" x2="476.233" y2="346.327" gradientTransform="matrix(0.039, 0.999, 0.999, -0.039, 405.938, 265.458)" xlink:href="#Gradient_bez_nazwy_36"/>
    <linearGradient id="Gradient_bez_nazwy_36-12" x1="342.745" y1="1569.892" x2="434.987" y2="1573.494" gradientTransform="translate(1745.919 212.663) rotate(87.764)" xlink:href="#Gradient_bez_nazwy_36"/>
    <linearGradient id="Gradient_bez_nazwy_36-13" x1="257.964" y1="-1108.232" x2="257.964" y2="-997.938" xlink:href="#Gradient_bez_nazwy_36"/>
    <linearGradient id="Gradient_bez_nazwy_36-14" x1="394.688" y1="-1108.28" x2="394.688" y2="-1056.979" xlink:href="#Gradient_bez_nazwy_36"/>
    <linearGradient id="Gradient_bez_nazwy_36-15" x1="104.078" y1="-1243.115" x2="104.078" y2="-1172.336" xlink:href="#Gradient_bez_nazwy_36"/>
  </defs>
  <g id="bggradient">
    <rect class="cls-1" x="-0.32" y="-0.56" width="872.65" height="707.34"/>
  </g>
  <g id="big-blobs">
    <path class="cls-2" d="M488.787,140.772c-22.252-2.216-65.387,3.051-92.672,11.92-27.4,9.072-41.311,37.188-27.013,69.427s30.708-3.941,59.351.966,17.5,22.953,53.206,38.918c35.928,16.091,66.923-20.183,74.349-52.536C567.673,159.219,530.391,144.921,488.787,140.772Z"/>
    <path class="cls-3" d="M401.534,621.4c18.37-41.34-38.42-54.75-62.66-19.66-22.6,32.71-50.17,18.09-74.69,9.22-92.54-42.31,51.39-43.21,37.75-68.16-8.43-35.91-59.14-67-102.55-68.52-46.61-.47-40.6,25-18.6,48,56.92,39.45-157.68,85.74-22.72,145.54C276.274,720.2,374.7,660.8,401.534,621.4Z"/>
    <path class="cls-4" d="M808.134,506.188c-3.76-52.79-47.771-114.29-115.391-91.88-67.19,22.23-52.8,52.38-104.45,57.49s-70.09-54.76-104.38-4.24-17.94,97.17,27.521,114.46c45.32,16.94,119.51,29.65,159.14,28.25C744.724,607.638,814.214,588.258,808.134,506.188Z"/>
    <path class="cls-5" d="M544.053,325.6c-26-31.58-40.54,39.94-70,24s35.331-50.35-10.549-75.88c-32.46-18-46.36-4.09-75,35-20.33,27.68,3.79,106.68,52,111.92C488.924,426.008,596.644,389.8,544.053,325.6Z"/>
    <path class="cls-6" d="M139.554,70.4c61.92-33,162.86-34.56,187.07,43.62,24.1,77.65-20.17,85.11,11.77,136.53s112.46,27.22,80.87,93.89-95.78,83.68-148.3,53.45c-52-30.34-231.1-44.85-247.43-131.76S43.164,121.4,139.554,70.4Z"/>
    <path class="cls-7" d="M690.044,16.478c-56-8.73-129,25.41-118.78,106.46,10.12,80.53,44.5,71.82,39.729,130.79s-71.049,64.93-24.859,115.67,98.219,43.82,125.219-2.76c26.61-46.5,149.92-123.15,131-209.52S777.164,29.758,690.044,16.478Z"/>
    <path class="cls-8" d="M133.165,426c-14.955-18.175-23.308,22.984-40.26,13.794s20.329-28.977-6.07-43.665c-18.683-10.369-26.679-2.355-43.194,20.158-11.7,15.925,2.178,61.413,29.924,64.405C101.443,483.786,163.445,462.952,133.165,426Z"/>
    <path class="cls-9" d="M840.477,275c-14.955-18.175-23.308,22.984-40.26,13.794s20.33-28.977-6.07-43.666c-18.683-10.369-26.679-2.354-43.194,20.159-11.7,15.925,2.178,61.412,29.924,64.4C808.755,332.788,870.757,311.954,840.477,275Z"/>
  </g>
  <g id="glow-scale-blobs">
    <path class="cls-10" d="M228.67,244.264a85.059,85.059,0,0,1-9.359-.48c-20.48-2.228-38.856-18.977-49.157-44.821-9.419-23.612-9.372-48.143.1-61.041,13.993-19.08,23.491-30.474,33.6-36.034,11.156-6.14,22.545-5.082,38.078,3.54,22.052,12.268,18.594,27.172,11.575,41.45-.693,1.409-1.409,2.805-2.116,4.187-6.526,12.716-8.35,18.349.047,22.908,9.75,5.288,17.247-2,27.566-13.731l1.531-1.736c6.8-7.691,13.1-14.04,20.817-13.906,4.933.089,9.569,2.854,14.17,8.453h0c10.6,12.935,14.966,25.575,12.978,37.573C326.432,203.07,317.349,214.612,302.23,224,280.021,237.8,249.978,244.264,228.67,244.264ZM218.454,103.986a23.756,23.756,0,0,0-11.722,3.148c-9.129,5.024-18.167,15.942-31.654,34.328-8.171,11.123-7.91,33.855.628,55.279,9.466,23.748,26.009,39.1,44.251,41.086,20.016,2.223,54.538-3.655,79.122-18.92,9.492-5.9,21.276-15.759,23.517-29.27,1.7-10.216-2.243-21.246-11.7-32.79h0c-3.425-4.163-6.585-6.215-9.658-6.27h-.127c-5.147,0-10.553,5.621-16.1,11.888l-1.517,1.722c-9.016,10.257-20.235,23.013-34.923,15.038-14.369-7.8-8.074-20.074-2.512-30.9.691-1.347,1.4-2.712,2.069-4.091,5.8-11.8,9.465-23.235-9.112-33.575C230.947,106.184,224.379,103.986,218.454,103.986Z"/>
    <path class="cls-11" d="M711.079,298.9c-18.316,0-40.129-6.686-66.6-20.414-11.827-6.134-27.95-17.313-44.223-30.673-16.745-13.745-31.631-28.048-41.923-40.287-11.664-14.024-15.908-30.286-11.986-45.817,4.091-16.185,16.4-29.776,35.6-39.305,22.292-11.066,31.894-2.534,38.954,8.332,1.172,1.805,2.283,3.663,3.454,5.64,5.276,8.855,10.733,18.012,22.406,23.154,14.5,6.392,21.5,4.545,31.189,1.989l.347-.091c10.5-2.774,23.565-6.226,48.058-1.41,23.323,4.573,39.824,19.288,46.461,41.432,5.538,18.489,3.646,40.5-5.067,58.888-11.75,24.979-30.216,37.948-54.88,38.542Q711.974,298.895,711.079,298.9ZM599.984,128.181c-3.262,0-7.446,1.21-13.164,4.049-16.236,8.059-26.552,19.183-29.835,32.166-3.044,12.036.419,24.853,9.764,36.084,9.708,11.54,24.465,25.707,40.468,38.846,15.707,12.894,31.132,23.614,42.307,29.409,25.657,13.3,46.3,19.558,63.063,19.164,20.455-.492,35.246-11.04,45.22-32.248l.007-.014c7.47-15.766,9.18-35.323,4.472-51.044-3.827-12.769-13.536-29-38.06-33.811-22.012-4.329-33.238-1.366-43.141,1.255l-.348.093c-10.49,2.767-20.394,5.38-38.41-2.556-14.882-6.558-21.828-18.211-27.41-27.581-1.12-1.884-2.177-3.653-3.234-5.279C608.446,131.721,605.559,128.181,599.984,128.181Z"/>
    <path class="cls-12" d="M553.73,678.7c-12.719,13.176-32.678,24.23-60.942,33.747-12.63,4.252-31.866,8.088-52.779,10.519-21.519,2.5-42.152,3.278-58.1,2.188-18.188-1.346-32.842-9.58-41.288-23.194-8.806-14.184-10.035-32.482-3.558-52.91,7.519-23.724,20.326-24.707,33.047-22.242,2.112.41,4.224.905,6.46,1.428,10.035,2.353,20.414,4.791,32.221-.043,14.668-6,18.2-12.314,23.086-21.054l.174-.314c5.3-9.479,11.886-21.279,32.361-35.558,19.486-13.605,41.533-15.261,62.075-4.658,17.151,8.855,31.675,25.5,38.855,44.54,9.813,25.8,6.32,48.1-10.378,66.255Q554.354,678.054,553.73,678.7ZM353.746,640.078c-2.266,2.347-4.3,6.2-6.229,12.283-5.474,17.281-4.635,32.43,2.426,43.805,6.547,10.552,18.176,16.955,32.744,18.033,15.045,1.03,35.488.25,56.053-2.14,20.187-2.349,38.619-6,50.544-10.017,27.386-9.226,46.224-19.732,57.584-32.068,13.85-15.06,16.536-33.028,8.2-54.933v-.015c-6.156-16.326-19.042-31.131-33.626-38.665-11.849-6.116-30.27-10.4-50.76,3.906-18.4,12.831-24.065,22.968-29.058,31.91l-.176.314c-5.294,9.47-10.291,18.412-28.512,25.863-15.055,6.154-28.266,3.057-38.882.568-2.129-.5-4.14-.97-6.044-1.338-5.838-1.141-10.386-1.519-14.258,2.493Z"/>
    <path class="cls-13" d="M82.8,239.065a13.942,13.942,0,0,1-5.36-1.018c-4.789-1.965-8.288-6.618-10.692-14.222-5.826-18.426,1.177-32.13,8.076-40.372,8.731-10.437,20.765-16.424,28.416-18.382l.314-.058c6.577-.805,10.3.907,12.258,2.483a8.313,8.313,0,0,1,3.148,5.688c.439,4.566-3.164,10.543-12.107,12.873-6.521,1.7-7.775,4.081-8.152,5.728-.451,1.967.128,4.45.688,6.85.134.57.266,1.137.385,1.7,2.014,5.966,3.758,6.962,4.418,7.117,1.069.243,2.778-.848,5.094-3.238,1.015-1.047,2.063-2.254,3.077-3.421,3.96-4.552,8.436-9.7,13.212-7.116a28.386,28.386,0,0,1,15.167,12.959c3.44,6.046,4.564,12.8,3.083,18.533-2.5,8.478-7.695,9.5-10.577,9.366-3.782-.18-8.1-2.523-12.161-6.593l-.2-.2-.152-.246c-2.564-4.145-7.573-1.913-17.608,3.792-1.765,1-3.593,2.041-5.423,3.009C93.038,236.75,87.824,239.065,82.8,239.065Zm21.52-69.119a53.586,53.586,0,0,0-25.668,16.707c-6.1,7.292-12.291,19.4-7.146,35.668,1.9,6.023,4.538,9.761,7.828,11.112,4.62,1.9,10.7-.733,16.042-3.559,1.765-.932,3.559-1.95,5.289-2.93,8.791-4.989,18.734-10.648,24.147-2.336,3.073,3.029,6.226,4.828,8.681,4.945.942.046,3.792.18,5.527-5.711,1.137-4.408.193-9.808-2.616-14.737a23.7,23.7,0,0,0-12.659-10.78l-.253-.086-.229-.137c-1.287-.774-4.948,3.446-7.136,5.965-1.058,1.217-2.152,2.476-3.258,3.617-2.536,2.617-5.936,5.506-9.785,4.634-3.375-.768-5.945-4.113-8.089-10.53l-.074-.275c-.121-.572-.256-1.152-.392-1.736-.657-2.814-1.4-6-.693-9.1,1.046-4.562,4.889-7.65,11.756-9.441,5.845-1.526,8.65-4.964,8.4-7.572a3.268,3.268,0,0,0-1.306-2.279c-.979-.794-3.366-2.02-8.365-1.442Z"/>
    <path class="cls-14" d="M888.563,476.742a18.46,18.46,0,0,1,2.346,6.834c.884,6.8-2.172,13.876-9.344,21.634-17.373,18.791-37.726,19.726-51.742,17.2-17.733-3.194-32.519-13.108-39.791-20.627l-.276-.323c-5.24-7.038-5.713-12.44-5.189-15.731a11.008,11.008,0,0,1,4.477-7.354c4.966-3.5,14.205-3.279,22.759,5.478,6.23,6.384,9.8,6.264,11.937,5.617,2.56-.771,5.035-3.066,7.431-5.288.569-.523,1.134-1.047,1.7-1.555,5.547-6.233,5.547-8.9,5.282-9.749-.419-1.39-2.8-2.64-7.068-3.735-1.87-.48-3.946-.9-5.953-1.3-7.837-1.57-16.7-3.336-16.85-10.529a37.6,37.6,0,0,1,4.955-25.955c4.7-7.923,11.73-13.651,19.3-15.709,11.4-2.688,15.98,2.617,17.715,6.021,2.276,4.47,2.415,10.977.4,18.316l-.105.361-.183.335c-3.086,5.671,2.768,9.968,15.917,17.768,2.314,1.372,4.709,2.793,7.019,4.264C879.177,466.485,885.262,470.964,888.563,476.742Z"/>
    <path class="cls-15" d="M528.558,515.323a46.147,46.147,0,1,1,45.853-52.12h0a46.207,46.207,0,0,1-45.848,52.12Zm.175-86.311a40.75,40.75,0,0,0-5.282.344,40.015,40.015,0,1,0,5.282-.344Z"/>
    <path class="cls-16" d="M80.621,576.852a39.588,39.588,0,1,1-12.69-27.515A39.586,39.586,0,0,1,80.621,576.852Z"/>
    <path class="cls-17" d="M900.969,115.666a39.586,39.586,0,1,1-12.69-27.515A39.587,39.587,0,0,1,900.969,115.666Z"/>
    <path class="cls-18" d="M56.6,115.666a39.586,39.586,0,1,1-12.69-27.515A39.586,39.586,0,0,1,56.6,115.666Z"/>
    <path class="cls-19" d="M402.614,334.092a64.5,64.5,0,1,1-20.677-44.832A64.5,64.5,0,0,1,402.614,334.092Z"/>
    <path class="cls-20" d="M855.043,639.319a84.526,84.526,0,1,1-27.1-58.751A84.526,84.526,0,0,1,855.043,639.319Z"/>
    <path class="cls-21" d="M144.848,664.407a46.148,46.148,0,1,1,53.9,43.761h0a46.21,46.21,0,0,1-53.894-43.756Zm86.252-3.23a41.1,41.1,0,0,0-.553-5.263,40.01,40.01,0,1,0,.553,5.263Z"/>
    <path class="cls-22" d="M257.927,595.923a55.286,55.286,0,1,1,7.254-.473A55.855,55.855,0,0,1,257.927,595.923Zm.217-104.317a49.935,49.935,0,0,0-6.467.419A49.156,49.156,0,1,0,306.784,534.4h0a49.174,49.174,0,0,0-48.638-42.8Z"/>
    <path class="cls-23" d="M394.689,536.6a25.649,25.649,0,1,1,18.138-7.513A25.651,25.651,0,0,1,394.689,536.6Zm0-45.317a19.656,19.656,0,1,0,13.911,5.756,19.658,19.658,0,0,0-13.911-5.756Z"/>
    <path class="cls-24" d="M104.073,421.247A35.39,35.39,0,1,1,129.1,410.886,35.389,35.389,0,0,1,104.073,421.247Zm0-64.792a29.4,29.4,0,1,0,20.8,8.615A29.4,29.4,0,0,0,104.073,356.455Z"/>
  </g>
</svg>
