<svg xmlns="http://www.w3.org/2000/svg" xmlns:xlink="http://www.w3.org/1999/xlink" viewBox="0 0 872 703.572">
  <defs>
    <style>
      .cls-1 {
        fill: url(#Gradient_bez_nazwy_35);
      }

      .cls-2 {
        fill: url(#Gradient_bez_nazwy_17);
      }

      .cls-3 {
        fill: url(#Gradient_bez_nazwy_46);
      }

      .cls-4 {
        fill: url(#Gradient_bez_nazwy_43);
      }

      .cls-5 {
        fill: url(#Gradient_bez_nazwy_43-2);
      }

      .cls-6 {
        fill: url(#Gradient_bez_nazwy_17-2);
      }

      .cls-7 {
        fill: url(#Gradient_bez_nazwy_17-3);
      }

      .cls-8 {
        fill: url(#Gradient_bez_nazwy_43-3);
      }

      .cls-9 {
        fill: url(#Gradient_bez_nazwy_43-4);
      }

      .cls-10 {
        fill: url(#Gradient_bez_nazwy_48);
      }

      .cls-11 {
        fill: url(#Gradient_bez_nazwy_17-4);
      }

      .cls-12 {
        fill: url(#Gradient_bez_nazwy_39);
      }
    </style>
    <linearGradient id="Gradient_bez_nazwy_35" data-name="Gradient bez nazwy 35" x1="436" y1="251.234" x2="436" y2="958.575" gradientTransform="translate(0 -251.79)" gradientUnits="userSpaceOnUse">
      <stop offset="0.005" stop-color="#404040"/>
      <stop offset="0.152" stop-color="#3d4644"/>
      <stop offset="0.34" stop-color="#355650"/>
      <stop offset="0.551" stop-color="#287064"/>
      <stop offset="0.776" stop-color="#16947f"/>
      <stop offset="1" stop-color="#00c09f"/>
    </linearGradient>
    <linearGradient id="Gradient_bez_nazwy_17" data-name="Gradient bez nazwy 17" x1="64.633" y1="564.099" x2="-114.052" y2="415.745" gradientTransform="matrix(-0.549, -0.781, 0.754, -0.347, 9.499, 359.519)" gradientUnits="userSpaceOnUse">
      <stop offset="0.005" stop-color="#fff"/>
      <stop offset="0.525" stop-color="#88fff7"/>
      <stop offset="1" stop-color="#00c09f"/>
    </linearGradient>
    <linearGradient id="Gradient_bez_nazwy_46" data-name="Gradient bez nazwy 46" x1="632.908" y1="405.193" x2="816.718" y2="150.895" gradientTransform="matrix(-0.94, 0.314, -0.679, -0.655, 1088.58, 494.553)" gradientUnits="userSpaceOnUse">
      <stop offset="0.525" stop-color="#88fff7"/>
      <stop offset="1" stop-color="#00c09f"/>
    </linearGradient>
    <linearGradient id="Gradient_bez_nazwy_43" data-name="Gradient bez nazwy 43" x1="56.796" y1="389.644" x2="229.865" y2="564.431" gradientTransform="matrix(-0.729, 0.711, 0.721, 0.511, 397.86, 231.583)" xlink:href="#Gradient_bez_nazwy_46"/>
    <linearGradient id="Gradient_bez_nazwy_43-2" data-name="Gradient bez nazwy 43" x1="-623.086" y1="2.524" x2="-453.565" y2="-14.36" gradientTransform="matrix(0.099, 0.995, 0.995, -0.099, 513.261, 863.032)" xlink:href="#Gradient_bez_nazwy_46"/>
    <linearGradient id="Gradient_bez_nazwy_17-2" x1="39.56" y1="1019.022" x2="-134.885" y2="1251.469" gradientTransform="matrix(0.755, -0.636, 0.566, 0.755, -446.866, -693.663)" xlink:href="#Gradient_bez_nazwy_17"/>
    <linearGradient id="Gradient_bez_nazwy_17-3" x1="-501.261" y1="378.236" x2="-244.004" y2="149.637" gradientTransform="matrix(0.496, 0.816, 0.559, -0.562, 742.762, 677.681)" xlink:href="#Gradient_bez_nazwy_17"/>
    <linearGradient id="Gradient_bez_nazwy_43-3" data-name="Gradient bez nazwy 43" x1="-307.922" y1="917.678" x2="-120.468" y2="1103.678" gradientTransform="matrix(-0.44, 0.498, 0.443, 0.485, 195.418, -47.529)" xlink:href="#Gradient_bez_nazwy_46"/>
    <linearGradient id="Gradient_bez_nazwy_43-4" data-name="Gradient bez nazwy 43" x1="-319.653" y1="-140.624" x2="-258.723" y2="37.054" gradientTransform="matrix(-0.946, 0.324, 0.324, 0.946, -53.287, 508.157)" xlink:href="#Gradient_bez_nazwy_46"/>
    <linearGradient id="Gradient_bez_nazwy_48" data-name="Gradient bez nazwy 48" x1="613.974" y1="348.761" x2="613.974" y2="231.15" gradientTransform="matrix(1, 0, 0, -1, 0, 766.38)" xlink:href="#Gradient_bez_nazwy_46"/>
    <linearGradient id="Gradient_bez_nazwy_17-4" x1="587.693" y1="592.964" x2="587.693" y2="482.004" gradientTransform="matrix(1, 0, 0, -1, 0, 766.38)" xlink:href="#Gradient_bez_nazwy_17"/>
    <linearGradient id="Gradient_bez_nazwy_39" data-name="Gradient bez nazwy 39" x1="403.368" y1="430.003" x2="403.368" y2="178.174" gradientTransform="matrix(1, 0, 0, -1, 0, 766.38)" gradientUnits="userSpaceOnUse">
      <stop offset="0" stop-color="#88fff7"/>
      <stop offset="1" stop-color="#00c09f"/>
    </linearGradient>
  </defs>
  <g id="Warstwa_2" data-name="Warstwa 2">
    <rect class="cls-1" x="-0.324" y="-0.556" width="872.649" height="707.341"/>
  </g>
  <g id="Warstwa_1" data-name="Warstwa 1">
    <path class="cls-2" d="M440.377,123.708c-36.937-8.291-108.794-9.429-154.307-1.5-45.709,8.22-69.281,49.118-46.009,102.574s51.134.516,98.7,14.4,28.743,39.648,87.873,72.34c59.5,32.939,111.63-16.992,124.472-65.911C571.287,169.652,509.5,139.225,440.377,123.708Z"/>
    <path class="cls-3" d="M371.013,578.186c19.629-44.16-41.045-58.486-66.936-21.008-24.146,34.951-53.593,19.325-79.787,9.848-98.86-45.19,54.9-46.154,40.32-72.808-9-38.366-63.178-71.627-109.552-73.2-49.794-.5-43.371,26.661-19.867,51.288C196,514.452-33.255,563.9,110.923,627.78,237.2,683.727,342.34,620.276,371.013,578.186Z"/>
    <path class="cls-4" d="M822.38,563.62C818.32,506.568,770.8,440.2,697.77,464.4c-72.565,24-57.025,56.561-112.8,62.079s-75.694-59.135-112.732-4.573-19.375,104.938,29.724,123.606c48.942,18.3,129.064,32.022,171.86,30.509C753.907,673.191,828.951,652.257,822.38,563.62Z"/>
    <path class="cls-5" d="M457.771,249.884c-36.7,18.061,29.589,48.61,7.3,73.587s-40.924-45.919-76.276-7.109c-24.978,27.475-14.6,44.191,16.907,81.08,22.288,26.13,104.713,20.751,120.852-24.977C542.886,326.545,532.319,213.379,457.771,249.884Z"/>
    <path class="cls-6" d="M129.064,332.667C80.911,324.994,24.273,283.575,43.615,230.08c19.182-53.158,46.852-38.739,50.694-80.64S43.36,87.215,88.817,63.488,177,57.224,193.447,96c16.137,38.629,109.349,121.726,81.982,176.761S203.879,344.79,129.064,332.667Z"/>
    <path class="cls-7" d="M690.646,53.842c-48.01-7.473-110.507,21.771-101.747,91.2,8.667,68.981,38.117,61.523,34.038,112.035s-60.863,55.62-21.3,99.039,84.138,37.538,107.266-2.361c22.8-39.831,128.428-105.492,112.192-179.478S765.276,65.217,690.646,53.842Z"/>
    <path class="cls-8" d="M735.472,244.7c42.979-5.248,44.484,33.049,6.3,43.011-35.615,9.292-27.159,29.148-23.576,46.163,21.914,65.6,51.3-26,72.339-13.4,32.506,10.986,52.084,48.177,44.879,76.076-8.791,29.782-31.795,21.974-49.373,4.347-26.261-42.447-112.845,87.095-143-8.275C616.629,309.09,692.658,255.646,735.472,244.7Z"/>
    <path class="cls-9" d="M293.409,343.669c-31.44-38.214-49.049,48.317-84.641,28.991s42.739-60.922-12.765-91.8c-39.28-21.8-56.091-4.951-90.8,42.381C80.6,356.727,109.778,452.31,168.1,458.645,226.71,465.154,357.06,421.349,293.409,343.669Z"/>
  </g>
  <g id="Warstwa_4" data-name="Warstwa 4">
    <circle class="cls-10" cx="613.974" cy="476.509" r="58.89"/>
    <circle class="cls-11" cx="587.693" cy="228.975" r="55.56"/>
    <circle class="cls-12" cx="403.368" cy="462.472" r="126.096"/>
  </g>
</svg>
