<svg xmlns="http://www.w3.org/2000/svg" xmlns:xlink="http://www.w3.org/1999/xlink" viewBox="0 0 872 703.572">
  <defs>
    <style>
      .cls-1 {
        fill: url(#Gradient_bez_nazwy_2);
      }

      .cls-2 {
        fill: url(#Gradient_bez_nazwy_835);
      }

      .cls-3 {
        fill: url(#Gradient_bez_nazwy_835-2);
      }

      .cls-4 {
        fill: url(#Gradient_bez_nazwy_835-3);
      }

      .cls-5 {
        fill: url(#Gradient_bez_nazwy_835-4);
      }

      .cls-6 {
        fill: url(#Gradient_bez_nazwy_835-5);
      }

      .cls-7 {
        fill: url(#Gradient_bez_nazwy_835-6);
      }

      .cls-8 {
        fill: url(#Gradient_bez_nazwy_835-7);
      }

      .cls-9 {
        fill: url(#Gradient_bez_nazwy_835-8);
      }

      .cls-10 {
        fill: url(#Gradient_bez_nazwy_835-9);
      }

      .cls-11 {
        fill: url(#Gradient_bez_nazwy_835-10);
      }

      .cls-12 {
        fill: url(#Gradient_bez_nazwy_835-11);
      }

      .cls-13 {
        fill: url(#Gradient_bez_nazwy_835-12);
      }

      .cls-14 {
        fill: url(#Gradient_bez_nazwy_835-13);
      }

      .cls-15 {
        fill: url(#Gradient_bez_nazwy_835-14);
      }

      .cls-16 {
        fill: url(#Gradient_bez_nazwy_835-15);
      }

      .cls-17 {
        fill: url(#Gradient_bez_nazwy_835-16);
      }

      .cls-18 {
        fill: url(#Gradient_bez_nazwy_835-17);
      }

      .cls-19 {
        fill: url(#Gradient_bez_nazwy_835-18);
      }

      .cls-20 {
        fill: url(#Gradient_bez_nazwy_835-19);
      }
    </style>
    <radialGradient id="Gradient_bez_nazwy_2" data-name="Gradient bez nazwy 2" cx="436" cy="604.904" r="397.153" gradientTransform="translate(0 -251.79)" gradientUnits="userSpaceOnUse">
      <stop offset="0.005" stop-color="#fff"/>
      <stop offset="0.192" stop-color="#a7e3a9"/>
      <stop offset="0.525" stop-color="#4fd6b5"/>
      <stop offset="0.872" stop-color="#00c09f"/>
    </radialGradient>
    <linearGradient id="Gradient_bez_nazwy_835" data-name="Gradient bez nazwy 835" x1="87.735" y1="690.335" x2="-125.713" y2="585.297" gradientTransform="matrix(-0.469, -0.637, 0.632, -0.4, 41.73, 380.488)" xlink:href="#Gradient_bez_nazwy_2"/>
    <linearGradient id="Gradient_bez_nazwy_835-2" data-name="Gradient bez nazwy 835" x1="619.692" y1="226.451" x2="883.848" y2="226.451" gradientTransform="matrix(-0.94, 0.314, -0.679, -0.655, 1088.58, 494.553)" xlink:href="#Gradient_bez_nazwy_2"/>
    <linearGradient id="Gradient_bez_nazwy_835-3" data-name="Gradient bez nazwy 835" x1="239.428" y1="525.036" x2="12.873" y2="413.548" gradientTransform="matrix(-0.729, 0.711, 0.721, 0.511, 397.86, 231.583)" xlink:href="#Gradient_bez_nazwy_2"/>
    <linearGradient id="Gradient_bez_nazwy_835-4" data-name="Gradient bez nazwy 835" x1="-576.304" y1="-61.005" x2="-525.943" y2="85.851" gradientTransform="matrix(-0.946, 0.324, 0.324, 0.946, -53.287, 508.157)" xlink:href="#Gradient_bez_nazwy_2"/>
    <linearGradient id="Gradient_bez_nazwy_835-5" data-name="Gradient bez nazwy 835" x1="-244.733" y1="1121.299" x2="52.163" y2="1109.9" gradientTransform="matrix(-0.218, 0.962, -0.907, -0.261, 1194.115, 584.93)" xlink:href="#Gradient_bez_nazwy_2"/>
    <linearGradient id="Gradient_bez_nazwy_835-6" data-name="Gradient bez nazwy 835" x1="-593.996" y1="268.115" x2="-253.207" y2="255.031" gradientTransform="matrix(0.496, 0.816, 0.559, -0.562, 742.762, 677.681)" xlink:href="#Gradient_bez_nazwy_2"/>
    <linearGradient id="Gradient_bez_nazwy_835-7" data-name="Gradient bez nazwy 835" x1="-299.852" y1="1117.81" x2="-46.418" y2="1117.81" gradientTransform="matrix(-0.44, 0.498, 0.443, 0.485, 195.418, -47.529)" xlink:href="#Gradient_bez_nazwy_2"/>
    <linearGradient id="Gradient_bez_nazwy_835-8" data-name="Gradient bez nazwy 835" x1="-262.265" y1="-136.364" x2="-201.334" y2="41.314" gradientTransform="matrix(-0.946, 0.324, 0.324, 0.946, -53.287, 508.157)" xlink:href="#Gradient_bez_nazwy_2"/>
    <linearGradient id="Gradient_bez_nazwy_835-9" data-name="Gradient bez nazwy 835" x1="391.165" y1="393.492" x2="391.165" y2="175.727" gradientTransform="matrix(1, 0, 0, -1, 0, 766.38)" xlink:href="#Gradient_bez_nazwy_2"/>
    <linearGradient id="Gradient_bez_nazwy_835-10" data-name="Gradient bez nazwy 835" x1="634.246" y1="434.219" x2="634.246" y2="392.372" gradientTransform="matrix(1, 0, 0, -1, 0, 766.38)" xlink:href="#Gradient_bez_nazwy_2"/>
    <linearGradient id="Gradient_bez_nazwy_835-11" data-name="Gradient bez nazwy 835" x1="505.8" y1="187.43" x2="505.8" y2="89.004" gradientTransform="matrix(1, 0, 0, -1, 0, 766.38)" xlink:href="#Gradient_bez_nazwy_2"/>
    <linearGradient id="Gradient_bez_nazwy_835-12" data-name="Gradient bez nazwy 835" x1="555.084" y1="347.547" x2="555.084" y2="281.23" gradientTransform="matrix(1, 0, 0, -1, 0, 766.38)" xlink:href="#Gradient_bez_nazwy_2"/>
    <linearGradient id="Gradient_bez_nazwy_835-13" data-name="Gradient bez nazwy 835" x1="810.857" y1="284.453" x2="810.857" y2="211.279" gradientTransform="matrix(1, 0, 0, -1, 0, 766.38)" xlink:href="#Gradient_bez_nazwy_2"/>
    <linearGradient id="Gradient_bez_nazwy_835-14" data-name="Gradient bez nazwy 835" x1="651.477" y1="313.088" x2="651.477" y2="285.368" gradientTransform="matrix(1, 0, 0, -1, 0, 766.38)" xlink:href="#Gradient_bez_nazwy_2"/>
    <linearGradient id="Gradient_bez_nazwy_835-15" data-name="Gradient bez nazwy 835" x1="173.925" y1="592.96" x2="173.925" y2="475.349" gradientTransform="matrix(1, 0, 0, -1, 0, 766.38)" xlink:href="#Gradient_bez_nazwy_2"/>
    <linearGradient id="Gradient_bez_nazwy_835-16" data-name="Gradient bez nazwy 835" x1="68.966" y1="285.328" x2="68.966" y2="234.538" gradientTransform="matrix(1, 0, 0, -1, 0, 766.38)" xlink:href="#Gradient_bez_nazwy_2"/>
    <linearGradient id="Gradient_bez_nazwy_835-17" data-name="Gradient bez nazwy 835" x1="792.13" y1="673.07" x2="792.13" y2="605.036" gradientTransform="matrix(1, 0, 0, -1, 0, 766.38)" xlink:href="#Gradient_bez_nazwy_2"/>
    <linearGradient id="Gradient_bez_nazwy_835-18" data-name="Gradient bez nazwy 835" x1="106.521" y1="211.174" x2="106.521" y2="93.588" gradientTransform="matrix(1, 0, 0, -1, 0, 766.38)" xlink:href="#Gradient_bez_nazwy_2"/>
    <linearGradient id="Gradient_bez_nazwy_835-19" data-name="Gradient bez nazwy 835" x1="694.928" y1="585.407" x2="694.928" y2="454.271" gradientTransform="matrix(1, 0, 0, -1, 0, 766.38)" xlink:href="#Gradient_bez_nazwy_2"/>
  </defs>
  <g id="Warstwa_2" data-name="Warstwa 2">
    <rect class="cls-1" x="-0.324" y="-0.556" width="872.649" height="707.341"/>
  </g>
  <g id="Warstwa_1" data-name="Warstwa 1">
    <path class="cls-2" d="M490.474,47.328c-31.195-3.112-91.756,4.286-130.042,16.728-38.448,12.73-57.968,52.186-37.908,97.42s43.094-5.528,83.289,1.36,24.555,32.2,74.657,54.608c50.416,22.582,93.923-28.323,104.334-73.718C601.173,73.212,548.852,53.151,490.474,47.328Z"/>
    <path class="cls-3" d="M403.889,619c18.374-41.337-38.422-54.747-62.658-19.666-22.6,32.718-50.168,18.091-74.687,9.219-92.542-42.3,51.388-43.2,37.742-68.154-8.426-35.914-59.139-67.049-102.55-68.519-46.611-.47-40.6,24.956-18.6,48.009,56.919,39.451-157.679,85.742-22.717,145.536C278.629,717.8,377.048,658.4,403.889,619Z"/>
    <path class="cls-4" d="M822.38,563.62C818.32,506.568,770.8,440.2,697.77,464.4c-72.565,24-57.025,56.561-112.8,62.079s-75.694-59.135-112.732-4.573-19.375,104.938,29.724,123.606c48.942,18.3,129.064,32.022,171.86,30.509C753.907,673.191,828.951,652.257,822.38,563.62Z"/>
    <path class="cls-5" d="M546.413,323.2c-25.986-31.585-40.541,39.936-69.959,23.962s35.326-50.354-10.55-75.878c-32.466-18.02-46.36-4.092-75.052,35.029-20.331,27.68,3.785,106.682,51.993,111.918C491.285,423.611,599.022,387.405,546.413,323.2Z"/>
    <path class="cls-6" d="M122.41,71.072c53.949-28.72,141.886-30.11,162.975,38,21,67.651-17.57,74.147,10.257,118.947s97.972,23.714,70.451,81.8S282.655,382.719,236.9,356.377C191.568,329.948,35.56,317.305,21.332,241.591S38.439,115.493,122.41,71.072Z"/>
    <path class="cls-7" d="M692.4,14.079c-56.046-8.724-129,25.415-118.777,106.466,10.118,80.526,44.5,71.82,39.736,130.786S542.3,316.26,588.487,366.945s98.22,43.822,125.219-2.755c26.613-46.5,149.924-123.148,130.97-209.517S779.517,27.358,692.4,14.079Z"/>
    <path class="cls-8" d="M766.435,306.249c37.375-4.564,38.683,28.739,5.475,37.4-30.97,8.08-23.617,25.346-20.5,40.142,19.056,57.043,44.609-22.608,62.9-11.653,28.267,9.553,45.292,41.894,39.027,66.155-7.645,25.9-27.649,19.108-42.934,3.78-22.837-36.911-98.13,75.737-124.351-7.2C663.091,362.243,729.205,315.769,766.435,306.249Z"/>
    <path class="cls-9" d="M240.5,366.314c-31.439-38.214-49.049,48.318-84.641,28.991s42.74-60.922-12.765-91.8c-39.279-21.8-56.09-4.952-90.8,42.38-24.6,33.49,4.579,129.072,62.906,135.408C173.806,487.8,304.155,443.994,240.5,366.314Z"/>
    <circle class="cls-10" cx="391.165" cy="481.927" r="109.039"/>
  </g>
  <g id="Warstwa_4" data-name="Warstwa 4">
    <circle class="cls-11" cx="634.246" cy="353.115" r="20.953"/>
    <circle class="cls-12" cx="505.8" cy="628.233" r="49.284"/>
    <circle class="cls-13" cx="555.084" cy="452.039" r="33.206"/>
    <circle class="cls-14" cx="810.857" cy="518.566" r="36.639"/>
    <circle class="cls-15" cx="651.477" cy="467.172" r="13.88"/>
    <circle class="cls-16" cx="173.925" cy="232.309" r="58.89"/>
    <circle class="cls-17" cx="68.966" cy="506.483" r="25.431"/>
    <circle class="cls-18" cx="792.13" cy="127.375" r="34.066"/>
    <circle class="cls-19" cx="106.521" cy="614.083" r="58.877"/>
    <circle class="cls-20" cx="694.928" cy="246.635" r="65.662"/>
  </g>
</svg>
