<svg xmlns="http://www.w3.org/2000/svg" xmlns:xlink="http://www.w3.org/1999/xlink"  viewBox="0 0 872 703.57">
  <defs>
    <style>
      .cls-1 {
        fill: url(#Gradient_bez_nazwy_10);
      }

      .cls-2 {
        fill: url(#Gradient_bez_nazwy_61);
      }

      .cls-3 {
        fill: url(#Gradient_bez_nazwy_61-2);
      }

      .cls-4 {
        fill: url(#Gradient_bez_nazwy_61-3);
      }

      .cls-5 {
        fill: url(#Gradient_bez_nazwy_61-4);
      }

      .cls-6 {
        fill: url(#Gradient_bez_nazwy_61-5);
      }

      .cls-7 {
        fill: url(#Gradient_bez_nazwy_61-6);
      }

      .cls-8 {
        fill: url(#Gradient_bez_nazwy_61-7);
      }

      .cls-9 {
        fill: url(#Gradient_bez_nazwy_61-8);
      }

      .cls-10 {
        fill: url(#Gradient_bez_nazwy_61-9);
      }

      .cls-11 {
        fill: url(#Gradient_bez_nazwy_61-10);
      }

      .cls-12 {
        fill: url(#Gradient_bez_nazwy_61-11);
      }

      .cls-13 {
        fill: url(#Gradient_bez_nazwy_61-12);
      }

      .cls-14 {
        fill: url(#Gradient_bez_nazwy_61-13);
      }

      .cls-15 {
        fill: url(#Gradient_bez_nazwy_61-14);
      }

      .cls-16 {
        fill: url(#Gradient_bez_nazwy_61-15);
      }

      .cls-17 {
        fill: url(#Gradient_bez_nazwy_61-16);
      }

      .cls-18 {
        fill: url(#Gradient_bez_nazwy_61-17);
      }

      .cls-19 {
        fill: url(#Gradient_bez_nazwy_61-18);
      }

      .cls-20 {
        fill: url(#Gradient_bez_nazwy_61-19);
      }

      .cls-21 {
        fill: url(#Gradient_bez_nazwy_61-20);
      }

      .cls-22 {
        fill: url(#Gradient_bez_nazwy_61-21);
      }
    </style>
    <linearGradient id="Gradient_bez_nazwy_10" data-name="Gradient bez nazwy 10" x1="436" y1="251.23" x2="436" y2="958.57" gradientTransform="translate(0 -251.79)" gradientUnits="userSpaceOnUse">
      <stop offset="0" stop-color="#29272c"/>
      <stop offset="0.37" stop-color="#1d1c1f"/>
      <stop offset="1"/>
    </linearGradient>
    <linearGradient id="Gradient_bez_nazwy_61" data-name="Gradient bez nazwy 61" x1="89.82" y1="686.7" x2="-201.25" y2="543.47" gradientTransform="matrix(-0.47, -0.64, 0.63, -0.4, 41.73, 380.49)" gradientUnits="userSpaceOnUse">
      <stop offset="0" stop-color="#666368"/>
      <stop offset="0.53" stop-color="#29272c"/>
      <stop offset="1"/>
    </linearGradient>
    <linearGradient id="Gradient_bez_nazwy_61-2" x1="619.69" y1="226.45" x2="883.85" y2="226.45" gradientTransform="matrix(-0.94, 0.31, -0.68, -0.66, 1088.58, 494.55)" xlink:href="#Gradient_bez_nazwy_61"/>
    <linearGradient id="Gradient_bez_nazwy_61-3" x1="767.81" y1="205.63" x2="767.81" y2="89.03" gradientTransform="matrix(1, 0, 0, -1, 0, 766.38)" xlink:href="#Gradient_bez_nazwy_61"/>
    <linearGradient id="Gradient_bez_nazwy_61-4" x1="181.69" y1="472.83" x2="-28.09" y2="369.6" gradientTransform="matrix(-0.73, 0.71, 0.72, 0.51, 397.86, 231.58)" xlink:href="#Gradient_bez_nazwy_61"/>
    <linearGradient id="Gradient_bez_nazwy_61-5" x1="-576.3" y1="-61" x2="-525.94" y2="85.85" gradientTransform="matrix(-0.95, 0.32, 0.32, 0.95, -53.29, 508.16)" xlink:href="#Gradient_bez_nazwy_61"/>
    <linearGradient id="Gradient_bez_nazwy_61-6" x1="-259.73" y1="1085.83" x2="81.06" y2="1072.74" gradientTransform="matrix(-0.22, 0.96, -0.91, -0.26, 1194.12, 584.93)" xlink:href="#Gradient_bez_nazwy_61"/>
    <linearGradient id="Gradient_bez_nazwy_61-7" x1="-594" y1="268.11" x2="-253.21" y2="255.03" gradientTransform="matrix(0.5, 0.82, 0.56, -0.56, 742.76, 677.68)" xlink:href="#Gradient_bez_nazwy_61"/>
    <linearGradient id="Gradient_bez_nazwy_61-8" x1="-299.85" y1="1117.81" x2="-46.42" y2="1117.81" gradientTransform="matrix(-0.44, 0.5, 0.44, 0.49, 195.42, -47.53)" xlink:href="#Gradient_bez_nazwy_61"/>
    <linearGradient id="Gradient_bez_nazwy_61-9" x1="-262.26" y1="-136.36" x2="-201.33" y2="41.31" gradientTransform="matrix(-0.95, 0.32, 0.32, 0.95, -53.29, 508.16)" xlink:href="#Gradient_bez_nazwy_61"/>
    <linearGradient id="Gradient_bez_nazwy_61-10" x1="399.92" y1="388.18" x2="399.92" y2="120.14" gradientTransform="matrix(1, 0, 0, -1, 0, 766.38)" xlink:href="#Gradient_bez_nazwy_61"/>
    <linearGradient id="Gradient_bez_nazwy_61-11" x1="609.86" y1="209.71" x2="609.86" y2="119.17" gradientTransform="matrix(1, 0, 0, -1, 0, 766.38)" xlink:href="#Gradient_bez_nazwy_61"/>
    <linearGradient id="Gradient_bez_nazwy_61-12" x1="634.25" y1="434.22" x2="634.25" y2="392.37" gradientTransform="matrix(1, 0, 0, -1, 0, 766.38)" xlink:href="#Gradient_bez_nazwy_61"/>
    <linearGradient id="Gradient_bez_nazwy_61-13" x1="240.31" y1="212.65" x2="240.31" y2="170.81" gradientTransform="matrix(1, 0, 0, -1, 0, 766.38)" xlink:href="#Gradient_bez_nazwy_61"/>
    <linearGradient id="Gradient_bez_nazwy_61-14" x1="810.86" y1="284.45" x2="810.86" y2="211.28" gradientTransform="matrix(1, 0, 0, -1, 0, 766.38)" xlink:href="#Gradient_bez_nazwy_61"/>
    <linearGradient id="Gradient_bez_nazwy_61-15" x1="651.48" y1="313.09" x2="651.48" y2="285.37" gradientTransform="matrix(1, 0, 0, -1, 0, 766.38)" xlink:href="#Gradient_bez_nazwy_61"/>
    <linearGradient id="Gradient_bez_nazwy_61-16" x1="150.57" y1="549.91" x2="150.57" y2="520.32" gradientTransform="matrix(1, 0, 0, -1, 0, 766.38)" xlink:href="#Gradient_bez_nazwy_61"/>
    <linearGradient id="Gradient_bez_nazwy_61-17" x1="47.64" y1="343.97" x2="47.64" y2="314.38" gradientTransform="matrix(1, 0, 0, -1, 0, 766.38)" xlink:href="#Gradient_bez_nazwy_61"/>
    <linearGradient id="Gradient_bez_nazwy_61-18" x1="764.1" y1="543.31" x2="764.1" y2="475.28" gradientTransform="matrix(1, 0, 0, -1, 0, 766.38)" xlink:href="#Gradient_bez_nazwy_61"/>
    <linearGradient id="Gradient_bez_nazwy_61-19" x1="131.01" y1="328.54" x2="131.01" y2="210.95" gradientTransform="matrix(1, 0, 0, -1, 0, 766.38)" xlink:href="#Gradient_bez_nazwy_61"/>
    <linearGradient id="Gradient_bez_nazwy_61-20" x1="32.83" y1="578.95" x2="142.33" y2="578.95" gradientTransform="matrix(1, 0, 0, 1, 0, 0)" xlink:href="#Gradient_bez_nazwy_61"/>
    <linearGradient id="Gradient_bez_nazwy_61-21" x1="669.35" y1="585.41" x2="669.35" y2="505.36" gradientTransform="matrix(1, 0, 0, -1, 0, 766.38)" xlink:href="#Gradient_bez_nazwy_61"/>
  </defs>
  <g id="Warstwa_2" data-name="Warstwa 2">
    <rect class="cls-1" x="-0.32" y="-0.56" width="872.65" height="707.34"/>
  </g>
  <g id="Warstwa_1" data-name="Warstwa 1">
    <path class="cls-2" d="M506.58,46.92C464,42.68,381.46,52.76,329.25,69.73c-52.43,17.36-79.05,71.16-51.69,132.85s58.76-7.54,113.57,1.85,33.49,43.92,101.81,74.47C561.69,309.69,621,240.28,635.21,178.37,657.53,82.22,586.19,54.86,506.58,46.92Z"/>
    <path class="cls-3" d="M403.89,619c18.37-41.34-38.42-54.75-62.66-19.66-22.6,32.71-50.17,18.09-74.69,9.22-92.54-42.31,51.39-43.21,37.75-68.16-8.43-35.91-59.14-67-102.55-68.52-46.61-.47-40.6,25-18.6,48,56.92,39.45-157.68,85.74-22.72,145.54C278.63,717.8,377.05,658.4,403.89,619Z"/>
    <circle class="cls-4" cx="767.81" cy="619.13" r="58.38"/>
    <path class="cls-5" d="M810.49,503.79C806.73,451,762.72,389.5,695.1,411.91c-67.19,22.23-52.8,52.38-104.45,57.49s-70.09-54.76-104.38-4.24-17.94,97.17,27.52,114.46c45.32,16.94,119.51,29.65,159.14,28.25C747.08,605.24,816.57,585.86,810.49,503.79Z"/>
    <path class="cls-6" d="M546.41,323.2c-26-31.58-40.54,39.94-70,24s35.33-50.35-10.55-75.88c-32.46-18-46.36-4.09-75,35-20.33,27.68,3.79,106.68,52,111.92C491.28,423.61,599,387.4,546.41,323.2Z"/>
    <path class="cls-7" d="M141.91,68c61.92-33,162.86-34.56,187.07,43.62,24.1,77.65-20.17,85.11,11.77,136.53s112.46,27.22,80.87,93.89-95.78,83.68-148.3,53.45c-52-30.34-231.1-44.85-247.43-131.76S45.52,119,141.91,68Z"/>
    <path class="cls-8" d="M692.4,14.08c-56-8.73-129,25.41-118.78,106.46,10.12,80.53,44.5,71.82,39.73,130.79S542.3,316.26,588.49,367s98.22,43.82,125.22-2.76c26.61-46.5,149.92-123.15,131-209.52S779.52,27.36,692.4,14.08Z"/>
    <path class="cls-9" d="M766.44,306.25c37.37-4.56,38.68,28.74,5.47,37.4-31,8.08-23.62,25.35-20.5,40.14,19.06,57,44.61-22.61,62.9-11.65,28.27,9.55,45.3,41.89,39,66.15-7.64,25.9-27.65,19.11-42.93,3.79-22.84-36.92-98.13,75.73-124.35-7.2C663.09,362.24,729.2,315.77,766.44,306.25Z"/>
    <path class="cls-10" d="M240.5,366.31c-31.44-38.21-49,48.32-84.64,29s42.74-60.92-12.76-91.8c-39.28-21.8-56.09-4.95-90.81,42.38C27.7,379.37,56.87,475,115.2,481.29,173.81,487.8,304.16,444,240.5,366.31Z"/>
    <circle class="cls-11" cx="399.92" cy="512.41" r="134.21"/>
  </g>
  <g id="Warstwa_4" data-name="Warstwa 4">
    <circle class="cls-12" cx="609.86" cy="602" r="45.34"/>
    <circle class="cls-13" cx="634.25" cy="353.11" r="20.95"/>
    <circle class="cls-14" cx="240.31" cy="574.68" r="20.95"/>
    <circle class="cls-15" cx="810.86" cy="518.57" r="36.64"/>
    <circle class="cls-16" cx="651.48" cy="467.17" r="13.88"/>
    <circle class="cls-17" cx="150.57" cy="231.28" r="14.81"/>
    <circle class="cls-18" cx="47.64" cy="437.23" r="14.81"/>
    <circle class="cls-19" cx="764.1" cy="257.13" r="34.07"/>
    <circle class="cls-20" cx="131.01" cy="496.72" r="58.88"/>
    <circle class="cls-21" cx="87.58" cy="578.95" r="54.75"/>
    <circle class="cls-22" cx="669.35" cy="221.05" r="40.08"/>
  </g>
  <g id="Warstwa_5" data-name="Warstwa 5">
    <text/>  </g>
</svg>
