<?xml version="1.0" encoding="UTF-8" standalone="no"?><!DOCTYPE svg PUBLIC "-//W3C//DTD SVG 1.1//EN" "http://www.w3.org/Graphics/SVG/1.1/DTD/svg11.dtd"><svg width="100%" height="100%" viewBox="0 0 380 900" version="1.1" xmlns="http://www.w3.org/2000/svg" xmlns:xlink="http://www.w3.org/1999/xlink" xml:space="preserve" xmlns:serif="http://www.serif.com/" style="fill-rule:evenodd;clip-rule:evenodd;stroke-linejoin:round;stroke-miterlimit:2;"><path d="M57.062,77.177c-36.895,50.363 -53.964,135.564 7.108,160.581c61.07,25.017 73.899,-12.039 111.858,17.811c37.96,29.852 5.333,96.459 65.719,73.848c60.386,-22.611 118.592,-112.054 114.239,-160.914c-4.562,-51.205 -13.458,-114.542 -83.591,-133.689c-70.134,-19.149 -157.857,-36.094 -215.333,42.363Z" style="fill:#fff;"/><text x="105.154px" y="109.366px" style="font-family:'ArialMT', 'Arial', sans-serif;font-size:34.398px;fill:#605c5c;">K<tspan x="127.466px 145.737px 151.832px " y="109.366px 109.366px 109.366px ">aja</tspan></text><text x="83.837px" y="158.924px" style="font-family:'ArialMT', 'Arial', sans-serif;font-size:51.609px;fill:#83331c;">S<tspan x="115.376px 138.309px 164.136px 187.069px 212.895px 221.51px 244.443px 267.376px " y="158.924px 158.924px 158.924px 158.924px 158.924px 158.924px 158.924px 158.924px ">zokalska</tspan></text><text x="190.584px" y="196.811px" style="font-family:'ArialMT', 'Arial', sans-serif;font-size:34.398px;fill:#605c5c;">M<tspan x="218.949px 237.219px 253.443px 259.538px 275.762px " y="196.811px 196.811px 196.811px 196.811px 196.811px ">asłyk</tspan></text></svg>