<?xml version="1.0" encoding="UTF-8" standalone="no"?><!DOCTYPE svg PUBLIC "-//W3C//DTD SVG 1.1//EN" "http://www.w3.org/Graphics/SVG/1.1/DTD/svg11.dtd"><svg width="100%" height="100%" viewBox="0 0 422 96" version="1.1" xmlns="http://www.w3.org/2000/svg" xmlns:xlink="http://www.w3.org/1999/xlink" xml:space="preserve" xmlns:serif="http://www.serif.com/" style="fill-rule:evenodd;clip-rule:evenodd;stroke-linejoin:round;stroke-miterlimit:2;"><path d="M421.395,67.869c0,0 -55.619,28.234 -126.591,24.257c-70.971,-3.976 -111.566,-30.083 -169.239,-27.573c-59.614,2.594 -123.139,25.983 -124.352,30.357c-1.213,4.374 -1.213,-85.498 -1.213,-85.498l421.395,0l0,58.457Z" style="fill:#1f1c18;fill-opacity:0.33;"/><path d="M421.395,58.457c0,0 -55.619,28.234 -126.591,24.257c-70.971,-3.976 -111.566,-30.083 -169.239,-27.573c-59.614,2.594 -123.139,25.983 -124.352,30.357c-1.213,4.374 -1.213,-85.498 -1.213,-85.498l421.395,0l0,58.457Z" style="fill:#d1c3b2;"/></svg>