<?xml version="1.0" encoding="UTF-8" standalone="no"?><!DOCTYPE svg PUBLIC "-//W3C//DTD SVG 1.1//EN" "http://www.w3.org/Graphics/SVG/1.1/DTD/svg11.dtd"><svg width="100%" height="100%" viewBox="0 0 559 713" version="1.1" xmlns="http://www.w3.org/2000/svg" xmlns:xlink="http://www.w3.org/1999/xlink" xml:space="preserve" xmlns:serif="http://www.serif.com/" style="fill-rule:evenodd;clip-rule:evenodd;stroke-linejoin:round;stroke-miterlimit:2;"><path d="M348.128,445.657c-30.389,38.952 -47.385,113.489 -2.224,147.97c45.161,34.481 56.655,3.093 84.046,37.583c27.392,34.489 -0.528,89.085 46.372,79.95c46.9,-9.134 67.959,-53.244 57.088,-98.467c-10.87,-45.222 32.463,-133.823 -19.854,-164.672c-52.317,-30.85 -118.087,-63.043 -165.428,-2.364Z" style="fill:#ba9f91;"/><path d="M129.776,302.704c2.124,-6.948 0.906,-16.478 -6.464,-16.036c-7.371,0.443 -7.414,4.852 -12.504,3.668c-5.09,-1.184 -3.996,-9.58 -9.6,-4.312c-5.604,5.268 -6.296,11.914 -2.837,15.758c3.458,3.844 1.936,17.288 10.06,15.803c8.123,-1.486 18.035,-4.058 21.345,-14.881Z" style="fill:#bb9662;"/><path d="M186.504,534.595c-18.392,21.011 -29.564,59.818 -3.785,75.966c25.779,16.148 33.015,-0.342 48.423,16.415c15.408,16.757 -1.806,45.708 25.722,39.427c27.527,-6.281 40.56,-29.621 34.975,-52.445c-5.585,-22.823 21.197,-69.739 -8.82,-83.781c-30.017,-14.042 -67.864,-28.314 -96.515,4.418Z" style="fill:#808080;"/><path d="M367.873,322.932c12.216,-12.382 20.235,-34.225 4.16,-41.946c-16.076,-7.721 -21.071,1.672 -30.516,-6.851c-9.445,-8.522 2.202,-25.217 -15.504,-20.525c-17.706,4.691 -26.557,18.112 -23.518,30.412c3.039,12.301 -15.124,39.305 3.703,45.678c18.828,6.372 42.645,12.52 61.675,-6.768Z" style="fill:#b28340;fill-opacity:0.71;"/><path d="M110.618,400.176c13.4,36.115 48.327,-23.116 69.582,0c21.255,23.116 -46.825,34.031 -13.85,70.728c23.338,25.973 39.953,17.867 77.582,-8.285c26.618,-18.499 29.241,-96.206 -12.168,-115.577c-41.408,-19.371 -148.289,-20.02 -121.146,53.134Z" style="fill:#a47c70;fill-opacity:0.71;"/><path d="M86.986,134.414c26.238,-11.392 -19.088,-34.903 -2.804,-51.594c16.283,-16.692 27.12,33.348 53.001,7.419c18.318,-18.351 11.638,-30.344 -9.269,-57.192c-14.789,-18.99 -72.513,-17.804 -85.208,13.68c-12.694,31.484 -8.869,110.76 44.28,87.687Z" style="fill:#a47c70;"/><path d="M478.71,290.816c-0.882,16.354 22.76,-0.843 27.142,11.769c4.381,12.612 -24.021,5.355 -17.365,25.246c4.71,14.078 12.562,13.727 31.664,9.89c13.511,-2.714 27.677,-32.582 14.801,-47.141c-12.876,-14.559 -54.457,-32.89 -56.242,0.236Z" style="fill:#808080;"/><path d="M230.114,204.766c-7.449,-22.608 -33.407,-50.281 -60.491,-42.997c-27.084,7.284 -17.387,20.58 -39.422,21.13c-22.036,0.55 -36.65,-25.579 -46.211,-5.211c-9.562,20.368 2.671,40.912 24.443,49.677c21.771,8.765 46.05,50.421 73.669,39.392c27.619,-11.029 59.618,-26.772 48.012,-61.991Z" style="fill:#808080;"/><path d="M77.743,607.627c25.588,-8.682 55.739,-37.655 45.451,-66.981c-10.288,-29.326 -24.967,-18.427 -27.13,-42.421c-2.164,-23.994 26.993,-40.57 2.812,-50.477c-24.18,-9.908 -47.052,3.934 -55.663,27.873c-8.611,23.94 -55.025,51.433 -40.375,81.248c14.649,29.815 35.045,64.283 74.905,50.758Z" style="fill:#a47c70;"/><path d="M558.072,0c-2.491,43.863 -26.778,97.423 -18.772,129.446c13.132,52.526 -22.794,107.464 -95.709,123.817c-72.916,16.353 -25.595,-51.862 -65.009,-89.688c-39.415,-37.826 -59.605,0.859 -126.37,-34.878c-48.688,-26.061 -44.804,-81.33 -19.788,-128.697l325.648,0Z" style="fill:#b19183;fill-opacity:0.54;"/></svg>