<?xml version="1.0" encoding="UTF-8" standalone="no"?><!DOCTYPE svg PUBLIC "-//W3C//DTD SVG 1.1//EN" "http://www.w3.org/Graphics/SVG/1.1/DTD/svg11.dtd"><svg width="100%" height="100%" viewBox="0 0 421 400" version="1.1" xmlns="http://www.w3.org/2000/svg" xmlns:xlink="http://www.w3.org/1999/xlink" xml:space="preserve" xmlns:serif="http://www.serif.com/" style="fill-rule:evenodd;clip-rule:evenodd;stroke-linejoin:round;stroke-miterlimit:2;"><path d="M42.143,74c-46.724,63.782 -68.34,171.681 9.001,203.362c77.341,31.681 93.588,-15.247 141.659,22.557c48.072,37.804 6.754,122.155 83.227,93.521c76.474,-28.634 150.187,-141.907 144.675,-203.783c-5.777,-64.847 -17.044,-145.058 -105.862,-169.307c-88.818,-24.249 -199.912,-45.71 -272.7,53.65Z" style="fill:#fff;"/><text x="153.48px" y="118.058px" style="font-family:'ArialMT', 'Arial', sans-serif;font-size:48.315px;fill:#605c5c;">K<tspan x="183.049px 207.263px 215.339px " y="118.058px 118.058px 118.058px ">aja</tspan></text><text x="57.897px" y="181px" style="font-family:'ArialMT', 'Arial', sans-serif;font-size:72.49px;fill:#83331c;">S<tspan x="99.693px 130.085px 164.312px 194.703px 228.93px 240.347px 270.739px 301.13px " y="181px 181px 181px 181px 181px 181px 181px 181px ">zokalska</tspan></text><text x="169.94px" y="224.523px" style="font-family:'ArialMT', 'Arial', sans-serif;font-size:48.315px;fill:#605c5c;">M<tspan x="207.53px 231.743px 253.243px 261.32px 282.821px " y="224.523px 224.523px 224.523px 224.523px 224.523px ">asłyk</tspan></text></svg>