<?xml version="1.0" encoding="utf-8"?>
<!-- Generator: Adobe Illustrator 25.4.1, SVG Export Plug-In . SVG Version: 6.00 Build 0)  -->
<svg version="1.1" id="Warstwa_1" xmlns="http://www.w3.org/2000/svg" xmlns:xlink="http://www.w3.org/1999/xlink" x="0px" y="0px"
	 viewBox="0 0 36 36" style="enable-background:new 0 0 36 36;" xml:space="preserve">
<style type="text/css">
	.st0{fill-rule:evenodd;clip-rule:evenodd;fill:#00EAD3;}
	.st1{fill:#00EAD3;}
</style>
<g id="g3013">
	<path class="st0" d="M31.2,7.1l-2.3,26L18.4,36L8,33.1l-2.3-26L31.2,7.1z M22.3,22.1H11.3L11,18.9h11.6l0.3-3.3H10.7l-0.3-3.2h16
		l-0.6,6.5l-0.1,0.9L25,28.1l0,0.5l-6.5,1.8l0,0l-6.5-1.8l-0.4-5h3.2l0.2,2.5l3.6,1l0,0l3.6-1L22.3,22.1z"/>
	<path id="path2999" class="st1" d="M11.7,0h3.9v1.6h-2.2v1.6h2.2v1.6h-3.9V0z"/>
	<path id="path3001" class="st1" d="M16.3,0h3.9v1.4h-2.2v0.3h2.2v3.2h-3.9V3.5h2.2V3.2h-2.2V0z"/>
	<path id="path3003" class="st1" d="M20.9,0h3.9v1.4h-2.3v0.3h2.2v3.2h-3.9V3.5h2.2V3.2h-2.2V0z"/>
</g>
</svg>
