<?xml version="1.0" encoding="UTF-8" standalone="no"?><!DOCTYPE svg PUBLIC "-//W3C//DTD SVG 1.1//EN" "http://www.w3.org/Graphics/SVG/1.1/DTD/svg11.dtd"><svg width="100%" height="100%" viewBox="0 0 29 40" version="1.1" xmlns="http://www.w3.org/2000/svg" xmlns:xlink="http://www.w3.org/1999/xlink" xml:space="preserve" style="fill-rule:evenodd;clip-rule:evenodd;stroke-linejoin:round;stroke-miterlimit:2;"><rect id="Artboard1" x="0" y="0" width="28.339" height="40" style="fill:none;"/><g id="g3013"><path d="M28.339,7.861l-2.582,28.922l-11.605,3.217l-11.573,-3.213l-2.579,-28.926l28.339,0Zm-9.803,16.641l-12.295,0l-0.318,-3.548l12.921,0l0.323,-3.632l-13.561,0l-0.322,-3.548l17.771,0l-0.641,7.18l-0.086,0.953l-0.834,9.34l-0.053,0.599l-7.261,2.013l-0.016,0.005l-7.268,-2.018l-0.497,-5.57l3.562,0l0.252,2.829l3.951,1.067l0.004,-0.001l3.956,-1.068l0.412,-4.601Z" style="fill:#fff;"/><path id="path2999" d="M6.669,0l4.297,0l0,1.797l-2.5,0l0,1.797l2.5,0l0,1.797l-4.297,0l0,-5.391Z" style="fill:#fff;fill-rule:nonzero;"/><path id="path3001" d="M11.826,0l4.296,0l0,1.562l-2.5,0l0,0.313l2.5,0l0,3.594l-4.296,0l0,-1.641l2.5,0l0,-0.312l-2.5,0l0,-3.516Z" style="fill:#fff;fill-rule:nonzero;"/><path id="path3003" d="M16.982,0l4.297,0l0,1.562l-2.5,0l0,0.313l2.5,0l0,3.594l-4.297,0l0,-1.641l2.5,0l0,-0.312l-2.5,0l0,-3.516Z" style="fill:#fff;fill-rule:nonzero;"/></g></svg>