<svg id="Warstwa_1" data-name="Warstwa 1" xmlns="http://www.w3.org/2000/svg" viewBox="0 0 47.1 28.9">
  <g>
    <path fill="#00EAD3" d="M10.184,13.123H7.21a5.167,5.167,0,0,0-.147.589A3.3,3.3,0,0,0,7,14.33a1.423,1.423,0,0,0,.157.721.877.877,0,0,0,.471.381,2.29,2.29,0,0,0,.769.113H9.43c-.027.449-.044.886-.044,1.3v1.375l-.028.006a7.418,7.418,0,0,1-1.691.176,2.913,2.913,0,0,1-2.418-1.053,5.3,5.3,0,0,1-.841-3.316,7,7,0,0,1,.394-2.56,2.945,2.945,0,0,1,1.116-1.444A3.082,3.082,0,0,1,7.61,9.57a5.016,5.016,0,0,1,1.643.285,6.3,6.3,0,0,1,1.52.76,3.066,3.066,0,0,0,.851-.879,2.487,2.487,0,0,0,.451-1.211,8.992,8.992,0,0,0-2.142-.984,8.233,8.233,0,0,0-2.485-.375,6.058,6.058,0,0,0-2.213.418A5.6,5.6,0,0,0,3.306,8.853,6.08,6.08,0,0,0,1.948,10.99a8.283,8.283,0,0,0-.5,3.026,10.237,10.237,0,0,0,.342,2.741,5.823,5.823,0,0,0,1.045,2.108,4.641,4.641,0,0,0,1.781,1.354,6.288,6.288,0,0,0,2.551.475A15.19,15.19,0,0,0,9.1,20.575a16.943,16.943,0,0,0,1.691-.3,13.59,13.59,0,0,0,1.321-.371V14.918a1.951,1.951,0,0,0-.418-1.3A1.893,1.893,0,0,0,10.184,13.123Z"/>
    <path fill="#00EAD3" d="M21.854,13.869a5.537,5.537,0,0,0-1.542-.927l-2.329-.968a2.561,2.561,0,0,1-.906-.566,1.006,1.006,0,0,1-.271-.7,1.176,1.176,0,0,1,.384-.827,1.674,1.674,0,0,1,1.231-.389,6.11,6.11,0,0,1,1.719.285,11.361,11.361,0,0,1,1.691.637,3.008,3.008,0,0,0,.684-.974,3.383,3.383,0,0,0,.3-1.2,10.509,10.509,0,0,0-1.91-.732,8.84,8.84,0,0,0-2.5-.342,5.333,5.333,0,0,0-2.322.495A4.082,4.082,0,0,0,14.44,9.038a3.532,3.532,0,0,0-.607,2.052,3.041,3.041,0,0,0,.764,2.166,5.549,5.549,0,0,0,1.943,1.311l2.289.959a2.075,2.075,0,0,1,1.041.737,1.545,1.545,0,0,1,.233.764,1.293,1.293,0,0,1-.4.917,1.705,1.705,0,0,1-1.273.413,5.776,5.776,0,0,1-2.024-.379,11.033,11.033,0,0,1-1.824-.866,3.431,3.431,0,0,0-.746.96,3.112,3.112,0,0,0-.384,1.216,8.574,8.574,0,0,0,2.331,1.04,8.963,8.963,0,0,0,2.447.366,6.285,6.285,0,0,0,2.75-.532,3.754,3.754,0,0,0,1.643-1.444,3.909,3.909,0,0,0,.547-2.052,3.515,3.515,0,0,0-.338-1.534A3.869,3.869,0,0,0,21.854,13.869Z"/>
    <path fill="#00EAD3" d="M30.623,7.366q-.489-.028-.841-.029c-.241,0-.522.01-.845.029s-.6.044-.836.076L23.893,20.2l.1.153a2.977,2.977,0,0,0,.665.142,6.6,6.6,0,0,0,.74.047q.333,0,.647-.019a3.062,3.062,0,0,0,.579-.086l.836-2.808c.038,0,.067,0,.109,0l.375.009c.127,0,.235,0,.323,0H30.96c.089,0,.2,0,.318,0l.375-.009c.046,0,.076,0,.117,0l.4,1.384a2.494,2.494,0,0,0,.655,1.249,1.651,1.651,0,0,0,1.074.318,4.817,4.817,0,0,0,.893-.09,2.538,2.538,0,0,0,.778-.262L31.454,7.461A6.251,6.251,0,0,0,30.623,7.366Zm.441,7.985-.36-.01c-.121,0-.225,0-.313,0H28.937c-.083,0-.184,0-.3,0l-.362.01-.129,0,.519-1.746q.219-.741.489-1.733t.413-1.763h.115q.228.922.517,1.976t.518,1.862l.4,1.4Z"/>
    <path fill="#00EAD3" d="M45.729,9.3a3.686,3.686,0,0,0-1.635-1.477,5.578,5.578,0,0,0-2.38-.485q-1.063,0-2.1.024l-2.237.053-.133.123V20.419a5.576,5.576,0,0,0,.77.085q.417.019.683.019c.2,0,.429-.006.7-.019a5.528,5.528,0,0,0,.754-.085V16.286h1.568a5.394,5.394,0,0,0,2.38-.5,3.785,3.785,0,0,0,1.635-1.5,4.763,4.763,0,0,0,.593-2.47A4.841,4.841,0,0,0,45.729,9.3Zm-2.514,3.506a1.847,1.847,0,0,1-.541.893,1.708,1.708,0,0,1-1.188.365c-.132,0-.372,0-.716.015-.206.005-.415.013-.624.019V9.551q.39.009.713.014t.627.005a1.69,1.69,0,0,1,1.188.37,1.872,1.872,0,0,1,.541.889,3.665,3.665,0,0,1,.142.983A3.77,3.77,0,0,1,43.215,12.805Z"/>
  </g>
</svg>
