<?xml version="1.0" encoding="utf-8"?>
<!-- Generator: Adobe Illustrator 25.4.1, SVG Export Plug-In . SVG Version: 6.00 Build 0)  -->
<svg version="1.1" id="Warstwa_1" xmlns="http://www.w3.org/2000/svg" xmlns:xlink="http://www.w3.org/1999/xlink" x="0px" y="0px"
	 viewBox="0 0 47.1 28.9" style="enable-background:new 0 0 47.1 28.9;" xml:space="preserve">
<style type="text/css">
	.st0{fill:#00EAD3;}
</style>
<g>
	<path class="st0" d="M10.2,13.1h-3c-0.1,0.2-0.1,0.4-0.1,0.6C7,13.9,7,14.1,7,14.3c0,0.2,0,0.5,0.2,0.7c0.1,0.2,0.3,0.3,0.5,0.4
		c0.2,0.1,0.5,0.1,0.8,0.1h1c0,0.4,0,0.9,0,1.3v1.4l0,0c-0.6,0.1-1.1,0.2-1.7,0.2c-0.9,0.1-1.8-0.3-2.4-1.1c-0.6-1-0.9-2.1-0.8-3.3
		c0-0.9,0.1-1.7,0.4-2.6C5,10.9,5.4,10.4,5.9,10C6.4,9.7,7,9.6,7.6,9.6c0.6,0,1.1,0.1,1.6,0.3c0.5,0.2,1,0.4,1.5,0.8
		c0.3-0.2,0.6-0.5,0.9-0.9C11.9,9.4,12,9,12.1,8.5c-0.7-0.4-1.4-0.8-2.1-1C9.1,7.3,8.3,7.2,7.4,7.2c-0.8,0-1.5,0.1-2.2,0.4
		C4.5,7.9,3.9,8.3,3.3,8.9C2.7,9.5,2.2,10.2,1.9,11c-0.4,1-0.5,2-0.5,3c0,0.9,0.1,1.8,0.3,2.7c0.2,0.8,0.6,1.5,1,2.1
		c0.5,0.6,1.1,1.1,1.8,1.4c0.8,0.3,1.7,0.5,2.6,0.5c0.6,0,1.3,0,1.9-0.1c0.6-0.1,1.1-0.2,1.7-0.3c0.4-0.1,0.9-0.2,1.3-0.4v-5
		c0-0.5-0.1-0.9-0.4-1.3C11.3,13.2,10.7,13.1,10.2,13.1z"/>
	<path class="st0" d="M21.9,13.9c-0.5-0.4-1-0.7-1.5-0.9L18,12c-0.3-0.1-0.6-0.3-0.9-0.6c-0.2-0.2-0.3-0.4-0.3-0.7
		c0-0.3,0.1-0.6,0.4-0.8c0.3-0.3,0.8-0.4,1.2-0.4c0.6,0,1.2,0.1,1.7,0.3c0.6,0.2,1.1,0.4,1.7,0.6c0.3-0.3,0.5-0.6,0.7-1
		c0.2-0.4,0.3-0.8,0.3-1.2c-0.6-0.3-1.3-0.6-1.9-0.7c-0.8-0.2-1.7-0.3-2.5-0.3c-0.8,0-1.6,0.2-2.3,0.5C15.4,8,14.9,8.4,14.4,9
		c-0.4,0.6-0.6,1.3-0.6,2.1c0,0.8,0.2,1.6,0.8,2.2c0.5,0.6,1.2,1,1.9,1.3l2.3,1c0.4,0.1,0.8,0.4,1,0.7c0.1,0.2,0.2,0.5,0.2,0.8
		c0,0.3-0.1,0.7-0.4,0.9c-0.4,0.3-0.8,0.5-1.3,0.4c-0.7,0-1.4-0.1-2-0.4c-0.6-0.2-1.2-0.5-1.8-0.9c-0.3,0.3-0.6,0.6-0.7,1
		c-0.2,0.4-0.3,0.8-0.4,1.2c0.7,0.5,1.5,0.8,2.3,1c0.8,0.2,1.6,0.4,2.4,0.4c0.9,0,1.9-0.2,2.8-0.5c0.7-0.3,1.3-0.8,1.6-1.4
		c0.4-0.6,0.6-1.3,0.5-2.1c0-0.5-0.1-1.1-0.3-1.5C22.6,14.6,22.3,14.2,21.9,13.9z"/>
	<path class="st0" d="M30.6,7.4c-0.3,0-0.6,0-0.8,0c-0.2,0-0.5,0-0.8,0s-0.6,0-0.8,0.1l-4.2,12.8l0.1,0.2c0.2,0.1,0.4,0.1,0.7,0.1
		c0.2,0,0.5,0,0.7,0c0.2,0,0.4,0,0.6,0c0.2,0,0.4,0,0.6-0.1l0.8-2.8c0,0,0.1,0,0.1,0l0.4,0c0.1,0,0.2,0,0.3,0H31c0.1,0,0.2,0,0.3,0
		l0.4,0c0,0,0.1,0,0.1,0l0.4,1.4c0.1,0.5,0.3,0.9,0.7,1.2c0.3,0.2,0.7,0.3,1.1,0.3c0.3,0,0.6,0,0.9-0.1c0.3,0,0.5-0.1,0.8-0.3
		L31.5,7.5C31.2,7.4,30.9,7.4,30.6,7.4z M31.1,15.4l-0.4,0c-0.1,0-0.2,0-0.3,0h-1.5c-0.1,0-0.2,0-0.3,0l-0.4,0h-0.1l0.5-1.7
		c0.1-0.5,0.3-1.1,0.5-1.7s0.3-1.2,0.4-1.8h0.1c0.2,0.6,0.3,1.3,0.5,2s0.4,1.3,0.5,1.9L31.1,15.4L31.1,15.4z"/>
	<path class="st0" d="M45.7,9.3c-0.4-0.6-1-1.2-1.6-1.5c-0.7-0.3-1.6-0.5-2.4-0.5c-0.7,0-1.4,0-2.1,0l-2.2,0.1l-0.1,0.1v12.9
		c0.3,0,0.5,0.1,0.8,0.1c0.3,0,0.5,0,0.7,0c0.2,0,0.4,0,0.7,0c0.3,0,0.5,0,0.8-0.1v-4.1h1.6c0.8,0,1.6-0.2,2.4-0.5
		c0.7-0.3,1.3-0.8,1.6-1.5c0.4-0.8,0.6-1.6,0.6-2.5C46.4,10.9,46.2,10.1,45.7,9.3z M43.2,12.8c-0.1,0.3-0.3,0.7-0.5,0.9
		c-0.3,0.3-0.8,0.4-1.2,0.4c-0.1,0-0.4,0-0.7,0c-0.2,0-0.4,0-0.6,0V9.6c0.3,0,0.5,0,0.7,0c0.2,0,0.4,0,0.6,0c0.4,0,0.9,0.1,1.2,0.4
		c0.3,0.2,0.4,0.5,0.5,0.9c0.1,0.3,0.1,0.7,0.1,1C43.4,12.1,43.3,12.5,43.2,12.8L43.2,12.8z"/>
</g>
</svg>
