<?xml version="1.0" encoding="UTF-8" standalone="no"?><!DOCTYPE svg PUBLIC "-//W3C//DTD SVG 1.1//EN" "http://www.w3.org/Graphics/SVG/1.1/DTD/svg11.dtd"><svg width="100%" height="100%" viewBox="0 0 29 40" version="1.1" xmlns="http://www.w3.org/2000/svg" xmlns:xlink="http://www.w3.org/1999/xlink" xml:space="preserve"  style="fill-rule:evenodd;clip-rule:evenodd;stroke-linejoin:round;stroke-miterlimit:2;"><path d="M2.578,36.796l-2.578,-28.936l28.344,0l-2.578,28.921l-11.618,3.219l-11.57,-3.204Zm20.469,-23.022l-17.781,0l0.968,10.718l7.922,0l0,0.008l4.375,0l-0.414,4.609l-3.953,1.061l-3.961,-1.061l-0.25,-2.836l-3.562,0l0.499,5.57l7.282,2.032l0,-0.02l7.25,-2.012l0.977,-10.89l-12.915,0l-0.328,-3.633l13.563,0l0.328,-3.546Zm-18.594,-8.384l-1.812,0l0,-5.39l1.796,0l0,1.781l1.657,0l0,-1.781l1.797,0l0,5.39l-1.797,0l0,-1.796l-1.641,0l0,1.796Zm9.203,-3.593l-1.594,0l0,3.593l-1.797,0l0,-3.593l-1.585,0l0,-1.797l4.976,0l0,1.797Zm2.555,3.593l-1.766,0l0,-5.39l1.883,0l1.156,1.898l1.157,-1.898l1.883,0l0,5.39l-1.797,0l0,-2.671l-1.258,1.937l-1.258,-1.937l0,2.671Zm7,-1.78l2.547,0l0,1.78l-4.344,0l0,-5.39l1.797,0l0,3.61Z" style="fill:#fff;fill-rule:nonzero;"/></svg>