<?xml version="1.0" encoding="utf-8"?>
<!-- Generator: Adobe Illustrator 25.4.1, SVG Export Plug-In . SVG Version: 6.00 Build 0)  -->
<svg version="1.1" id="Warstwa_1" xmlns="http://www.w3.org/2000/svg" xmlns:xlink="http://www.w3.org/1999/xlink" x="0px" y="0px"
	 viewBox="0 0 36 36" style="enable-background:new 0 0 36 36;" xml:space="preserve">
<path fill="#00EAD3" d="M7.6,33.1l-2.3-26h25.5l-2.3,26L18,36L7.6,33.1z M26,12.4H10l0.9,9.6h11.1l-0.4,4.1l-3.5,1l-3.6-1l-0.2-2.5H11
	l0.4,5l6.6,1.8l0,0l6.5-1.8l0.9-9.8H13.8l-0.3-3.3h12.2L26,12.4z M9.2,4.8H7.6V0h1.6v1.6h1.5V0h1.6v4.8h-1.6V3.2H9.2V4.8z M17.5,1.6
	h-1.4v3.2h-1.6V1.6h-1.4V0h4.5L17.5,1.6z M19.8,4.8h-1.6V0h1.7L21,1.7L22,0h1.7v4.8h-1.6V2.5L21,4.2l-1.2-1.7L19.8,4.8z M26.1,3.2
	h2.3v1.6h-3.9V0h1.6L26.1,3.2z"/>
</svg>
