<svg id="Warstwa_1" data-name="Warstwa 1" xmlns="http://www.w3.org/2000/svg" viewBox="0 0 36 36">
  <defs>
    <style>
      .cls-1 {
        fill: #00ead3;
        fill-rule: evenodd;
      }
    </style>
  </defs>
  <g id="Warstwa_2" data-name="Warstwa 2">
    <g id="Warstwa_1-2" data-name="Warstwa 1-2">
      <path class="cls-1" d="M36,3V33a3,3,0,0,1-3,3H3a3,3,0,0,1-3-3V3A3,3,0,0,1,3,0H33A3,3,0,0,1,36,3ZM24.2,28.1a3.628,3.628,0,0,0,3.3,2.1c1.4,0,2.3-.7,2.3-1.7,0-1.2-.9-1.6-2.5-2.2l-.8-.4c-2.4-1-4.1-2.3-4.1-5.1,0-2.5,1.9-4.5,5-4.5A4.857,4.857,0,0,1,32.2,19l-2.6,1.7a2.388,2.388,0,0,0-2.2-1.5,1.456,1.456,0,0,0-1.6,1.3v.1c0,1,.6,1.4,2.1,2l.9.4c2.9,1.2,4.5,2.5,4.5,5.3,0,3-2.4,4.7-5.6,4.7a6.434,6.434,0,0,1-6.2-3.5Zm-12,.3c.5.9,1,1.7,2.2,1.7s1.8-.4,1.8-2.1V16.5h3.4V28c0,3.5-2,5.1-5.1,5.1A5.271,5.271,0,0,1,9.4,30Z"/>
    </g>
  </g>
</svg>
