<?xml version="1.0" encoding="utf-8"?>
<!-- Generator: Adobe Illustrator 25.4.1, SVG Export Plug-In . SVG Version: 6.00 Build 0)  -->
<svg version="1.1" id="Warstwa_1" xmlns="http://www.w3.org/2000/svg" xmlns:xlink="http://www.w3.org/1999/xlink" x="0px" y="0px"
	 viewBox="0 0 36 36" style="enable-background:new 0 0 36 36;" xml:space="preserve">
<style type="text/css">
	.st0{fill-rule:evenodd;clip-rule:evenodd;fill:#00EAD3;}
</style>
<g id="Warstwa_2_00000121998305726565475710000000349241753231753867_">
	<g id="Warstwa_1-2">
		<path class="st0" d="M36,0v36H0V0H36z M24.2,28.1c0.6,1.3,1.9,2.1,3.3,2.1c1.4,0,2.3-0.7,2.3-1.7c0-1.2-0.9-1.6-2.5-2.2l-0.8-0.4
			c-2.4-1-4.1-2.3-4.1-5.1c0-2.5,1.9-4.5,5-4.5c2-0.2,3.9,0.9,4.8,2.7l-2.6,1.7c-0.4-0.9-1.2-1.5-2.2-1.5c-0.8-0.1-1.5,0.5-1.6,1.3
			c0,0,0,0.1,0,0.1c0,1,0.6,1.4,2.1,2l0.9,0.4c2.9,1.2,4.5,2.5,4.5,5.3c0,3-2.4,4.7-5.6,4.7c-2.6,0.2-5-1.2-6.2-3.5L24.2,28.1z
			 M12.2,28.4c0.5,0.9,1,1.7,2.2,1.7s1.8-0.4,1.8-2.1V16.5h3.4v11.5c0,3.5-2,5.1-5.1,5.1c-2.2,0.1-4.2-1.1-5.1-3.1L12.2,28.4z"/>
	</g>
</g>
</svg>
