<?xml version="1.0" encoding="UTF-8" standalone="no"?><!DOCTYPE svg PUBLIC "-//W3C//DTD SVG 1.1//EN" "http://www.w3.org/Graphics/SVG/1.1/DTD/svg11.dtd"><svg width="100%" height="100%" viewBox="0 0 40 40" version="1.1" xmlns="http://www.w3.org/2000/svg" xmlns:xlink="http://www.w3.org/1999/xlink" xml:space="preserve" style="fill-rule:evenodd;clip-rule:evenodd;stroke-linejoin:round;stroke-miterlimit:2;"><path d="M40,0l0,40l-40,0l0,-40l40,0Zm-13.13,31.25c0.806,1.316 1.854,2.283 3.708,2.283c1.557,0 2.552,-0.779 2.552,-1.854c0,-1.289 -1.022,-1.746 -2.736,-2.496l-0.94,-0.403c-2.712,-1.155 -4.514,-2.603 -4.514,-5.663c0,-2.819 2.148,-4.965 5.504,-4.965c2.39,0 4.108,0.831 5.346,3.009l-2.927,1.88c-0.644,-1.156 -1.339,-1.611 -2.419,-1.611c-1.101,0 -1.798,0.698 -1.798,1.611c0,1.127 0.698,1.584 2.311,2.282l0.94,0.403c3.193,1.369 4.996,2.765 4.996,5.904c0,3.385 -2.658,5.239 -6.228,5.239c-3.491,0 -5.746,-1.664 -6.85,-3.844l3.055,-1.775Zm-13.278,0.326c0.59,1.047 1.127,1.933 2.419,1.933c1.235,0 2.014,-0.483 2.014,-2.362l0,-12.781l3.758,0l0,12.832c0,3.892 -2.281,5.664 -5.612,5.664c-3.01,0 -4.753,-1.558 -5.639,-3.434l3.06,-1.852Z" style="fill:#fff;"/></svg>