<?xml version="1.0" encoding="UTF-8" standalone="no"?><!DOCTYPE svg PUBLIC "-//W3C//DTD SVG 1.1//EN" "http://www.w3.org/Graphics/SVG/1.1/DTD/svg11.dtd"><svg width="100%" height="100%" viewBox="0 0 51 40" version="1.1" xmlns="http://www.w3.org/2000/svg" xmlns:xlink="http://www.w3.org/1999/xlink" xml:space="preserve" style="fill-rule:evenodd;clip-rule:evenodd;stroke-linejoin:round;stroke-miterlimit:2;"><path d="M31.489,40l-12.595,-7.272l0,-7.272l12.595,7.272l12.596,-7.272l0,-7.272l6.298,-3.636l0,14.544l-18.894,10.908Zm-12.595,-21.816l-12.596,-7.272l0,14.544l-6.298,-3.636l0,-21.816l18.894,10.908l0,-0.004l18.893,-10.908l0,21.816l-12.595,7.272l-6.298,-3.636l12.595,-7.272l0,-7.272l-12.595,7.272l0,0.004Zm25.191,-7.272l0,-7.272l6.298,-3.636l0,7.272l-6.298,3.636Z" style="fill:#fff;fill-rule:nonzero;"/></svg>