<?xml version="1.0" encoding="utf-8"?>
<!-- Generator: Adobe Illustrator 25.4.1, SVG Export Plug-In . SVG Version: 6.00 Build 0)  -->
<svg version="1.1" id="Warstwa_1" xmlns="http://www.w3.org/2000/svg" xmlns:xlink="http://www.w3.org/1999/xlink" x="0px" y="0px"
	 viewBox="0 0 47.1 28.9" style="enable-background:new 0 0 47.1 28.9;" xml:space="preserve">
<style type="text/css">
	.st0{fill-rule:evenodd;clip-rule:evenodd;fill:#00EAD3;}
</style>
<g id="Warstwa_2_00000112602045965671363100000011323306265086056633_">
	<g id="Warstwa_1-2">
		<path fill="#00EAD3" class="st0" d="M23.3,28.9c-0.2,0-0.3,0-0.5-0.1l-1.4-0.9c-0.2-0.1-0.1-0.2,0-0.2c0.2-0.1,0.4-0.2,0.6-0.3c0,0,0.1,0,0.1,0
			l1.1,0.6h0.1l4.2-2.5c0,0,0.1-0.1,0.1-0.1v-4.9c0,0,0-0.1-0.1-0.1l-4.2-2.5c0,0-0.1,0-0.1,0L19,20.5c0,0-0.1,0.1-0.1,0.1v4.9
			c0,0,0,0.1,0.1,0.1l1.2,0.7c0.6,0.3,1,0,1-0.4v-4.8c0-0.1,0-0.1,0.1-0.1c0,0,0,0,0,0h0.5c0.1,0,0.1,0.1,0.1,0.1v0v4.9
			c0.1,0.7-0.4,1.2-1,1.3c0,0,0,0,0,0h-0.2c-0.4,0-0.7-0.1-1-0.3l-1.1-0.6c-0.3-0.2-0.5-0.5-0.5-0.8v-5c0-0.3,0.2-0.6,0.5-0.8
			l4.3-2.5c0.3-0.2,0.6-0.2,0.9,0l4.3,2.5c0.3,0.2,0.5,0.5,0.5,0.8v4.9c0,0.3-0.2,0.6-0.5,0.8l-4.2,2.5c-0.1,0.1-0.3,0.1-0.5,0.1
			L23.3,28.9z M26.4,22.4h-0.5c-0.1,0-0.1-0.1-0.1-0.1c-0.1-0.6-0.5-0.8-1.3-0.8s-1.1,0.4-1.1,0.6s0.1,0.4,1.5,0.6s1.9,0.4,1.9,1.3
			s-0.7,1.5-2.1,1.5l0,0c-1.9,0-2.2-0.9-2.2-1.6c0-0.1,0.1-0.1,0.1-0.1h0H23c0.1,0,0.1,0,0.1,0.1c0.1,0.6,0.3,0.9,1.5,0.9
			c0.9,0,1.3-0.2,1.3-0.7c0-0.3-0.1-0.5-1.5-0.6c-1.2-0.1-1.9-0.4-1.9-1.3s0.7-1.3,1.9-1.3s2,0.5,2.1,1.5c0,0,0,0.1,0,0.1
			C26.5,22.4,26.5,22.4,26.4,22.4z M31.8,0c-0.1-0.1-0.2-0.1-0.3,0c-0.1,0-0.1,0.1-0.1,0.2v7c0,0.1,0,0.1-0.1,0.2
			c-0.1,0-0.1,0-0.2,0L30,6.7c-0.2-0.1-0.4-0.1-0.5,0l-4.5,2.6c-0.2,0.1-0.3,0.3-0.3,0.5V15c0,0.2,0.1,0.4,0.3,0.5l4.5,2.6
			c0.2,0.1,0.4,0.1,0.5,0l4.5-2.6c0.2-0.1,0.3-0.3,0.3-0.5V2c0-0.2-0.1-0.4-0.3-0.5L31.8,0z M17.1,6.7c0.2-0.1,0.4-0.1,0.5,0
			l4.5,2.6c0.2,0.1,0.3,0.3,0.3,0.5V15c0,0.2-0.1,0.4-0.3,0.5l-4.5,2.7c-0.2,0.1-0.4,0.1-0.5,0l-4.5-2.7c-0.2-0.1-0.3-0.3-0.3-0.5
			V9.7c0-0.2,0.1-0.4,0.3-0.5L17.1,6.7z M46.9,11.5c0.2-0.1,0.3-0.3,0.3-0.5V9.7c0-0.2-0.1-0.4-0.3-0.5l-4.5-2.6
			c-0.2-0.1-0.4-0.1-0.5,0l-4.5,2.6C37.1,9.3,37,9.5,37,9.7v5.2c0,0.2,0.1,0.4,0.3,0.5l4.5,2.6c0.2,0.1,0.4,0.1,0.5,0l2.7-1.5
			c0.1,0,0.1-0.1,0.2-0.2c0-0.1-0.1-0.2-0.2-0.2l-4.6-2.7c-0.1-0.1-0.1-0.1-0.1-0.2v-1.5c0-0.1,0-0.2,0.1-0.2l1.5-0.8
			c0.1,0,0.2,0,0.3,0l1.4,0.8c0.1,0.1,0.1,0.1,0.1,0.2v1.3c0,0.1,0.1,0.2,0.2,0.2c0.1,0,0.2,0,0.3,0L46.9,11.5z M5,6.5
			c0.1,0,0.2,0,0.2,0.1l4.6,2.6c0.2,0.1,0.3,0.3,0.3,0.5v7c0,0.1-0.1,0.2-0.1,0.2c-0.1,0-0.2,0-0.3,0L7,15.4
			c-0.2-0.1-0.3-0.3-0.3-0.5v-3.3c0-0.2-0.1-0.4-0.3-0.5l-1.2-0.7c-0.1,0-0.2,0-0.2,0c-0.1,0-0.2,0-0.3,0.1l-1.2,0.7
			c-0.2,0.1-0.3,0.3-0.3,0.5V15c0,0.2-0.1,0.4-0.3,0.5L0.4,17c-0.1,0.1-0.2,0.1-0.3,0C0,16.9,0,16.8,0,16.7V9.7
			c0-0.2,0.1-0.4,0.2-0.5l4.5-2.6C4.8,6.5,4.9,6.5,5,6.5L5,6.5z M31.4,13.3c0,0,0,0.1,0,0.1l-1.5,0.9c0,0-0.1,0-0.1,0l-1.5-0.9
			c0,0,0-0.1,0-0.1v-1.8c0,0,0-0.1,0-0.1l1.5-0.9c0,0,0.1,0,0.1,0l1.5,0.9c0,0,0,0.1,0,0.1L31.4,13.3z M42,11.2h0.1l0.9,0.5
			c0,0,0,0.1,0,0.1v1c0,0,0,0.1,0,0.1l-0.9,0.5c0,0-0.1,0-0.1,0l-0.9-0.5c0,0,0-0.1,0-0.1v-1c0,0,0-0.1,0-0.1L42,11.2z"/>
	</g>
</g>
</svg>
