<?xml version="1.0" encoding="UTF-8" standalone="no"?><!DOCTYPE svg PUBLIC "-//W3C//DTD SVG 1.1//EN" "http://www.w3.org/Graphics/SVG/1.1/DTD/svg11.dtd"><svg width="100%" height="100%" viewBox="0 0 66 40" version="1.1" xmlns="http://www.w3.org/2000/svg" xmlns:xlink="http://www.w3.org/1999/xlink" xml:space="preserve" style="fill-rule:evenodd;clip-rule:evenodd;stroke-linejoin:round;stroke-miterlimit:2;"><path d="M32.281,40c-0.216,0 -0.43,-0.057 -0.619,-0.165l-1.969,-1.166c-0.294,-0.165 -0.15,-0.223 -0.053,-0.256c0.392,-0.138 0.471,-0.169 0.89,-0.406c0.044,-0.025 0.102,-0.017 0.147,0.01l1.512,0.898c0.055,0.029 0.132,0.029 0.183,0l5.898,-3.405c0.055,-0.031 0.09,-0.094 0.09,-0.159l0,-6.807c0,-0.067 -0.035,-0.128 -0.091,-0.162l-5.896,-3.402c-0.054,-0.032 -0.127,-0.032 -0.181,0l-5.895,3.402c-0.057,0.033 -0.093,0.096 -0.093,0.161l0,6.806c0,0.065 0.035,0.127 0.091,0.158l1.615,0.933c0.877,0.439 1.413,-0.078 1.413,-0.598l0,-6.717c0,-0.096 0.075,-0.17 0.171,-0.17l0.747,0c0.094,0 0.17,0.074 0.17,0.17l0,6.72c0,1.17 -0.638,1.841 -1.746,1.841c-0.341,0 -0.61,0 -1.36,-0.369l-1.547,-0.892c-0.383,-0.221 -0.619,-0.634 -0.619,-1.076l0,-6.806c0,-0.443 0.236,-0.856 0.619,-1.075l5.904,-3.406c0.373,-0.211 0.869,-0.211 1.24,0l5.897,3.408c0.381,0.22 0.618,0.632 0.618,1.074l0,6.807c0,0.441 -0.237,0.853 -0.618,1.074l-5.897,3.407c-0.189,0.109 -0.403,0.165 -0.622,0.165l0.001,0.003Zm4.353,-8.972l-0.767,0c-0.079,0 -0.149,-0.056 -0.165,-0.133c-0.184,-0.816 -0.63,-1.078 -1.842,-1.078c-1.357,0 -1.515,0.473 -1.515,0.827c0,0.43 0.186,0.555 2.017,0.797c1.813,0.241 2.673,0.581 2.673,1.855c0,1.284 -1.072,2.021 -2.941,2.021l0.009,-0.007c-2.581,0 -3.122,-1.185 -3.122,-2.178c0,-0.095 0.076,-0.17 0.171,-0.17l0.762,0c0.084,0 0.155,0.061 0.168,0.144c0.115,0.777 0.458,1.168 2.018,1.168c1.243,0 1.772,-0.281 1.772,-0.94c0,-0.379 -0.151,-0.661 -2.082,-0.85c-1.615,-0.16 -2.613,-0.515 -2.613,-1.807c0,-1.19 1.004,-1.899 2.686,-1.899c1.888,0 2.824,0.656 2.942,2.064c0.004,0.049 -0.013,0.096 -0.046,0.131c-0.032,0.034 -0.078,0.055 -0.125,0.055Zm7.471,-30.98c-0.117,-0.065 -0.26,-0.064 -0.376,0.004c-0.115,0.068 -0.186,0.192 -0.186,0.326l0,9.597c0,0.094 -0.05,0.181 -0.132,0.228c-0.081,0.048 -0.182,0.048 -0.264,0l-1.567,-0.902c-0.233,-0.135 -0.52,-0.135 -0.754,0l-6.256,3.611c-0.234,0.134 -0.378,0.383 -0.378,0.652l0,7.223c0,0.27 0.144,0.518 0.378,0.654l6.256,3.612c0.233,0.135 0.521,0.135 0.755,0l6.256,-3.614c0.233,-0.136 0.378,-0.384 0.378,-0.654l0,-18c0,-0.274 -0.15,-0.526 -0.389,-0.66l-3.721,-2.077Zm-20.391,9.144c0.23,-0.136 0.518,-0.136 0.751,0l6.233,3.595c0.233,0.135 0.376,0.383 0.376,0.652l0,7.199c0,0.268 -0.143,0.516 -0.376,0.651l-6.233,3.596c-0.233,0.135 -0.521,0.135 -0.751,0l-6.229,-3.596c-0.238,-0.135 -0.383,-0.383 -0.383,-0.651l0,-7.199c0,-0.269 0.138,-0.517 0.375,-0.652l6.237,-3.595Zm41.222,6.677c0.232,-0.134 0.375,-0.384 0.375,-0.652l0,-1.751c0,-0.269 -0.143,-0.518 -0.376,-0.653l-6.215,-3.608c-0.235,-0.136 -0.523,-0.136 -0.758,0l-6.254,3.609c-0.234,0.136 -0.378,0.384 -0.378,0.654l0,7.22c0,0.272 0.147,0.523 0.381,0.657l6.214,3.542c0.229,0.131 0.51,0.133 0.742,0.004l3.758,-2.089c0.119,-0.066 0.194,-0.192 0.194,-0.328c0,-0.135 -0.072,-0.262 -0.191,-0.329l-6.292,-3.611c-0.118,-0.067 -0.19,-0.192 -0.19,-0.326l0,-2.265c0,-0.135 0.07,-0.26 0.189,-0.327l1.957,-1.13c0.117,-0.068 0.26,-0.068 0.377,0l1.959,1.13c0.117,0.066 0.189,0.192 0.189,0.326l0,1.78c0,0.135 0.072,0.26 0.189,0.328c0.117,0.067 0.261,0.067 0.378,-0.001l3.752,-2.18Zm-57.894,-6.853c0.119,0.004 0.238,0.037 0.343,0.099l6.254,3.597c0.234,0.136 0.377,0.385 0.377,0.657l-0.012,9.689c0,0.135 -0.072,0.26 -0.187,0.327c-0.116,0.069 -0.261,0.069 -0.378,0l-3.715,-2.128c-0.234,-0.139 -0.379,-0.387 -0.379,-0.655l0,-4.527c0,-0.271 -0.144,-0.52 -0.378,-0.655l-1.582,-0.911c-0.114,-0.068 -0.246,-0.101 -0.375,-0.101c-0.132,0 -0.261,0.033 -0.378,0.101l-1.583,0.912c-0.234,0.134 -0.377,0.384 -0.377,0.654l0,4.527c0,0.269 -0.143,0.516 -0.378,0.656l-3.718,2.129c-0.115,0.071 -0.26,0.071 -0.375,0c-0.118,-0.067 -0.187,-0.192 -0.187,-0.326l-0.014,-9.692c0,-0.271 0.145,-0.521 0.378,-0.657l6.253,-3.597c0.108,-0.062 0.226,-0.095 0.346,-0.099l0.065,0Zm36.483,9.398c0,0.068 -0.036,0.13 -0.095,0.164l-2.148,1.238c-0.058,0.033 -0.13,0.033 -0.188,0l-2.148,-1.238c-0.059,-0.034 -0.095,-0.096 -0.095,-0.164l0,-2.479c0,-0.068 0.036,-0.13 0.093,-0.164l2.147,-1.24c0.059,-0.034 0.131,-0.034 0.19,0l2.149,1.24c0.059,0.034 0.094,0.096 0.094,0.164l0.001,2.479Zm14.724,-2.882c0.045,-0.026 0.1,-0.026 0.145,0l1.2,0.692c0.045,0.026 0.073,0.074 0.073,0.126l0,1.386c0,0.052 -0.028,0.099 -0.073,0.125l-1.2,0.693c-0.045,0.026 -0.1,0.026 -0.145,0l-1.199,-0.693c-0.046,-0.026 -0.074,-0.073 -0.074,-0.125l0,-1.386c0,-0.052 0.027,-0.1 0.072,-0.126l1.201,-0.692Z" style="fill:#fff;"/></svg>