<?xml version="1.0" encoding="utf-8"?>
<!-- Generator: Adobe Illustrator 25.4.1, SVG Export Plug-In . SVG Version: 6.00 Build 0)  -->
<svg version="1.1" id="Warstwa_1" xmlns="http://www.w3.org/2000/svg" xmlns:xlink="http://www.w3.org/1999/xlink" x="0px" y="0px"
	 viewBox="0 0 36 36" style="enable-background:new 0 0 36 36;" xml:space="preserve">
<style type="text/css">
	.st0{fill:#00EAD3;}
</style>
<path class="st0" d="M36,17.8c0-2.4-3-4.6-7.6-6C29.5,7.1,29,3.4,27,2.2c-0.5-0.3-1.1-0.4-1.6-0.4v1.6c0.3,0,0.6,0.1,0.8,0.2
	c1,0.6,1.4,2.8,1.1,5.6c-0.1,0.7-0.2,1.4-0.4,2.2c-1.5-0.4-3.1-0.6-4.7-0.8c-0.9-1.3-2-2.5-3-3.7c2.4-2.2,4.6-3.4,6.2-3.4V1.8
	c-2,0-4.7,1.4-7.3,3.9c-2.7-2.5-5.3-3.9-7.3-3.9v1.6c1.5,0,3.8,1.2,6.2,3.4c-1.1,1.1-2.1,2.4-3,3.7c-1.6,0.2-3.1,0.4-4.7,0.8
	C9,10.6,8.9,9.9,8.8,9.2c-0.4-2.8,0.1-5,1.1-5.6c0.3-0.1,0.6-0.2,0.9-0.2V1.8C10.1,1.8,9.5,2,9,2.2c-2.1,1.2-2.5,4.9-1.5,9.5
	C3,13.2,0,15.5,0,17.8s3,4.6,7.6,6.1c-1.1,4.7-0.6,8.4,1.5,9.6c0.5,0.3,1.1,0.4,1.6,0.4c2,0,4.7-1.4,7.3-3.9
	c2.7,2.5,5.3,3.9,7.3,3.9c0.6,0,1.1-0.1,1.6-0.4c2.1-1.2,2.5-4.9,1.5-9.5C33,22.5,36,20.2,36,17.8z M26.5,12.9c-0.3,1-0.6,1.9-1,2.9
	c-0.3-0.6-0.6-1.2-1-1.8s-0.7-1.2-1-1.7C24.5,12.5,25.5,12.7,26.5,12.9z M23.1,20.8c-0.6,1-1.1,1.9-1.8,2.8
	c-1.1,0.1-2.2,0.1-3.3,0.1s-2.2,0-3.3-0.1c-0.6-0.9-1.2-1.8-1.8-2.8s-1.1-1.9-1.5-2.9c0.4-1,1-2,1.5-2.9s1.2-1.9,1.8-2.8
	C15.8,12,16.9,12,18,12s2.2,0,3.3,0.1c0.6,0.9,1.2,1.8,1.8,2.8s1.1,1.9,1.5,2.9C24.1,18.8,23.6,19.8,23.1,20.8z M25.5,19.8
	c0.4,1,0.7,2,1,2.9c-1,0.2-2,0.4-3,0.6c0.4-0.6,0.7-1.1,1-1.7S25.1,20.4,25.5,19.8z M18,27.6c-0.7-0.7-1.4-1.5-2-2.4
	c0.7,0,1.3,0,2,0s1.4,0,2,0C19.4,26.1,18.7,26.9,18,27.6z M12.6,23.3c-1.1-0.2-2.1-0.4-3-0.6c0.3-1,0.6-1.9,1-2.9
	c0.3,0.6,0.6,1.2,1,1.8S12.2,22.8,12.6,23.3L12.6,23.3z M18,8c0.7,0.7,1.4,1.5,2,2.4c-0.7,0-1.3-0.1-2-0.1s-1.4,0-2,0.1
	C16.6,9.5,17.3,8.7,18,8z M12.6,12.3c-0.4,0.6-0.7,1.1-1.1,1.7s-0.6,1.2-1,1.8c-0.4-1-0.7-1.9-1-2.9C10.5,12.7,11.5,12.5,12.6,12.3
	L12.6,12.3z M5.9,21.5c-2.6-1.1-4.3-2.5-4.3-3.7s1.7-2.6,4.3-3.7c0.6-0.3,1.3-0.5,2-0.7c0.5,1.5,1,3,1.7,4.5
	c-0.6,1.4-1.1,2.9-1.6,4.4C7.3,22.1,6.6,21.8,5.9,21.5z M9.9,32c-1-0.6-1.4-2.8-1.1-5.5C8.8,25.7,9,25,9.1,24.3
	c1.5,0.4,3.1,0.6,4.7,0.8c0.9,1.3,2,2.5,3,3.7c-2.4,2.2-4.6,3.4-6.2,3.4C10.4,32.2,10.1,32.1,9.9,32z M27.3,26.4
	c0.4,2.8-0.1,5-1.1,5.6c-0.3,0.1-0.6,0.2-0.9,0.2c-1.5,0-3.8-1.2-6.2-3.4c1.1-1.1,2.1-2.4,3-3.7c1.6-0.2,3.1-0.4,4.7-0.8
	C27,25,27.2,25.7,27.3,26.4L27.3,26.4z M30.1,21.5c-0.6,0.3-1.3,0.5-2,0.7c-0.4-1.5-1-3-1.6-4.5c0.6-1.4,1.1-2.9,1.6-4.4
	c0.7,0.2,1.4,0.5,2.1,0.8c2.6,1.1,4.3,2.6,4.3,3.7S32.7,20.5,30.1,21.5L30.1,21.5z"/>
<circle class="st0" cx="18" cy="17.8" r="3.4"/>
</svg>
