<?xml version="1.0" encoding="UTF-8" standalone="no"?><!DOCTYPE svg PUBLIC "-//W3C//DTD SVG 1.1//EN" "http://www.w3.org/Graphics/SVG/1.1/DTD/svg11.dtd"><svg width="100%" height="100%" viewBox="0 0 40 36" version="1.1" xmlns="http://www.w3.org/2000/svg" xmlns:xlink="http://www.w3.org/1999/xlink" xml:space="preserve" style="fill-rule:evenodd;clip-rule:evenodd;stroke-linejoin:round;stroke-miterlimit:2;"><path d="M40,17.815c0,-2.65 -3.318,-5.161 -8.406,-6.718c1.174,-5.186 0.652,-9.311 -1.647,-10.632c-0.53,-0.31 -1.15,-0.457 -1.826,-0.457l0,1.818c0.375,0 0.676,0.074 0.929,0.212c1.109,0.636 1.59,3.058 1.215,6.172c-0.09,0.767 -0.236,1.574 -0.416,2.397c-1.598,-0.391 -3.343,-0.693 -5.177,-0.888c-1.101,-1.509 -2.242,-2.878 -3.392,-4.077c2.658,-2.47 5.153,-3.824 6.849,-3.824l0,-1.818c-2.242,0 -5.178,1.598 -8.145,4.37c-2.968,-2.756 -5.903,-4.337 -8.145,-4.337l0,1.818c1.687,0 4.19,1.345 6.848,3.799c-1.141,1.199 -2.283,2.56 -3.367,4.069c-1.843,0.195 -3.587,0.497 -5.185,0.897c-0.188,-0.816 -0.327,-1.607 -0.424,-2.365c-0.384,-3.114 0.089,-5.536 1.19,-6.18c0.245,-0.147 0.563,-0.212 0.938,-0.212l0,-1.818c-0.685,0 -1.305,0.147 -1.843,0.456c-2.291,1.321 -2.805,5.439 -1.623,10.608c-5.071,1.565 -8.373,4.068 -8.373,6.71c0,2.65 3.318,5.161 8.406,6.718c-1.174,5.186 -0.652,9.311 1.647,10.632c0.53,0.31 1.15,0.457 1.834,0.457c2.243,0 5.178,-1.598 8.146,-4.37c2.967,2.755 5.903,4.337 8.145,4.337c0.685,0 1.304,-0.147 1.842,-0.457c2.291,-1.32 2.805,-5.438 1.623,-10.607c5.055,-1.557 8.357,-4.068 8.357,-6.71Zm-10.616,-5.438c-0.301,1.051 -0.676,2.136 -1.1,3.22c-0.335,-0.652 -0.685,-1.304 -1.068,-1.957c-0.375,-0.652 -0.775,-1.288 -1.174,-1.907c1.157,0.171 2.274,0.383 3.342,0.644Zm-3.734,8.683c-0.636,1.101 -1.288,2.144 -1.965,3.114c-1.215,0.106 -2.446,0.164 -3.685,0.164c-1.231,0 -2.462,-0.058 -3.669,-0.155c-0.677,-0.971 -1.337,-2.006 -1.973,-3.099c-0.62,-1.068 -1.182,-2.152 -1.696,-3.245c0.506,-1.092 1.076,-2.185 1.688,-3.253c0.636,-1.1 1.288,-2.144 1.965,-3.114c1.215,-0.106 2.446,-0.163 3.685,-0.163c1.231,0 2.462,0.057 3.669,0.155c0.677,0.97 1.337,2.005 1.973,3.098c0.62,1.068 1.182,2.152 1.696,3.245c-0.514,1.092 -1.076,2.185 -1.688,3.253Zm2.634,-1.06c0.44,1.093 0.815,2.185 1.125,3.245c-1.068,0.261 -2.193,0.481 -3.359,0.652c0.399,-0.628 0.799,-1.272 1.174,-1.932c0.375,-0.652 0.725,-1.313 1.06,-1.965Zm-8.268,8.7c-0.758,-0.783 -1.516,-1.656 -2.266,-2.609c0.733,0.032 1.484,0.057 2.242,0.057c0.766,0 1.525,-0.017 2.266,-0.057c-0.733,0.953 -1.492,1.826 -2.242,2.609Zm-6.066,-4.803c-1.158,-0.171 -2.275,-0.383 -3.343,-0.644c0.302,-1.052 0.677,-2.136 1.101,-3.22c0.334,0.652 0.685,1.304 1.068,1.956c0.383,0.653 0.775,1.289 1.174,1.908Zm6.026,-16.967c0.758,0.783 1.516,1.655 2.266,2.609c-0.734,-0.032 -1.484,-0.057 -2.242,-0.057c-0.766,0 -1.525,0.017 -2.267,0.057c0.734,-0.954 1.492,-1.826 2.243,-2.609Zm-6.034,4.803c-0.399,0.627 -0.799,1.271 -1.174,1.932c-0.375,0.652 -0.726,1.304 -1.06,1.957c-0.44,-1.093 -0.815,-2.185 -1.125,-3.245c1.068,-0.253 2.193,-0.473 3.359,-0.644Zm-7.379,10.207c-2.886,-1.231 -4.753,-2.845 -4.753,-4.125c0,-1.28 1.867,-2.903 4.753,-4.126c0.702,-0.301 1.468,-0.57 2.259,-0.823c0.465,1.598 1.076,3.261 1.834,4.965c-0.75,1.696 -1.353,3.351 -1.81,4.941c-0.807,-0.253 -1.573,-0.53 -2.283,-0.832Zm4.387,11.652c-1.109,-0.636 -1.59,-3.058 -1.215,-6.173c0.09,-0.766 0.236,-1.573 0.416,-2.397c1.598,0.392 3.343,0.693 5.177,0.889c1.101,1.508 2.242,2.878 3.392,4.077c-2.658,2.47 -5.153,3.824 -6.849,3.824c-0.367,-0.008 -0.677,-0.082 -0.921,-0.22Zm19.339,-6.213c0.384,3.114 -0.089,5.536 -1.19,6.18c-0.245,0.147 -0.563,0.212 -0.938,0.212c-1.687,0 -4.19,-1.345 -6.848,-3.8c1.141,-1.198 2.283,-2.56 3.367,-4.068c1.843,-0.196 3.587,-0.497 5.185,-0.897c0.188,0.824 0.335,1.614 0.424,2.373Zm3.139,-5.439c-0.701,0.302 -1.467,0.571 -2.258,0.824c-0.465,-1.598 -1.076,-3.261 -1.834,-4.965c0.75,-1.696 1.353,-3.351 1.81,-4.941c0.807,0.252 1.573,0.53 2.291,0.831c2.886,1.232 4.753,2.846 4.753,4.126c-0.008,1.28 -1.875,2.902 -4.762,4.125Z" style="fill:#fff;fill-rule:nonzero;"/><circle cx="19.992" cy="17.815" r="3.726" style="fill:#fff;"/></svg>