<svg id="Warstwa_1" data-name="Warstwa 1" xmlns="http://www.w3.org/2000/svg" viewBox="0 0 36 36">
  <circle fill="#00EAD3"  cx="18" cy="17.912" r="17.714"/>
  <path fill="#FFFFFF"  d="M30.216,18.464a6.068,6.068,0,0,0-2.672.622,5.607,5.607,0,0,1-.6-1.384,3.676,3.676,0,0,1-.051-1.163,10.044,10.044,0,0,1,.349-1.254c0-.052-.065-.306-.659-.31s-1.1.114-1.164.271a5.9,5.9,0,0,0-.245.879,21.1,21.1,0,0,1-1.8,3.468,3.615,3.615,0,0,1-.408-1.012,3.7,3.7,0,0,1-.052-1.163,10.23,10.23,0,0,1,.349-1.254c0-.053-.064-.306-.659-.31s-1.1.114-1.163.271-.124.524-.246.879-1.561,3.563-1.938,4.394c-.192.424-.36.764-.478,1v0l-.02.042c-.1.2-.161.307-.161.307v0c-.08.146-.166.281-.208.281a1.864,1.864,0,0,1,.013-.918c.214-1.113.729-2.848.724-2.908,0-.031.095-.333-.336-.491a.538.538,0,0,0-.608.1c-.037,0-.064.091-.064.091s.467-1.952-.892-1.952a4.054,4.054,0,0,0-2.608,1.773c-.366.2-1.149.627-1.98,1.084l-.954.524-.063-.069c-1.649-1.759-4.695-3-4.566-5.366.047-.86.346-3.123,5.854-5.868,4.513-2.248,8.125-1.63,8.75-.258.891,1.959-1.931,5.6-6.617,6.126a3.52,3.52,0,0,1-2.96-.75c-.246-.271-.283-.284-.375-.233-.149.083-.054.323,0,.466A2.78,2.78,0,0,0,13.4,15.712a8.978,8.978,0,0,0,5.493-.543c2.839-1.1,5.057-4.154,4.405-6.707-.662-2.6-4.969-3.452-9.045-2a20.5,20.5,0,0,0-6.94,3.981c-2.245,2.1-2.6,3.927-2.455,4.691.524,2.714,4.264,4.481,5.762,5.79l-.207.114c-.75.372-3.6,1.864-4.314,3.44-.809,1.788.128,3.071.749,3.244a4.6,4.6,0,0,0,4.958-2.01,4.985,4.985,0,0,0,.444-4.581l-.019-.035.588-.346c.382-.225.757-.434,1.083-.611a7.265,7.265,0,0,0-.385,1.961,4.075,4.075,0,0,0,.879,2.843.964.964,0,0,0,.71.233c.634,0,.923-.527,1.241-1.15.39-.765.737-1.655.737-1.655s-.435,2.4.749,2.4c.432,0,.866-.559,1.059-.845v.005l.033-.056c.045-.068.07-.112.07-.112l0-.012c.173-.3.558-.988,1.135-2.12.745-1.463,1.46-3.3,1.46-3.3a9.7,9.7,0,0,0,.284,1.189A11.2,11.2,0,0,0,22.5,20.9c-.172.24-.279.378-.279.378l0,.007c-.138.183-.293.381-.455.574A16.75,16.75,0,0,0,20.381,23.6a.473.473,0,0,0,.129.633,1.16,1.16,0,0,0,.724.117,3.3,3.3,0,0,0,1.084-.247,3.627,3.627,0,0,0,.932-.49,2.074,2.074,0,0,0,.892-1.835,3.731,3.731,0,0,0-.339-1.3c.053-.075.105-.151.158-.228a24.532,24.532,0,0,0,1.615-2.792,9.859,9.859,0,0,0,.285,1.189,8.327,8.327,0,0,0,.523,1.186,5.068,5.068,0,0,0-1.57,2.032c-.341.98-.074,1.424.426,1.525a1.539,1.539,0,0,0,.788-.16,3.608,3.608,0,0,0,1-.512,2.231,2.231,0,0,0,1.1-1.822,3.4,3.4,0,0,0-.249-1.078,5.642,5.642,0,0,1,2.86-.331c2.565.3,3.069,1.9,2.972,2.572a1.688,1.688,0,0,1-.814,1.15c-.18.112-.235.15-.219.233.021.12.105.116.258.09a2,2,0,0,0,1.4-1.783C34.387,20.176,32.882,18.45,30.216,18.464ZM10.442,25.131c-.849.927-2.037,1.277-2.546.982-.549-.319-.332-1.683.711-2.667a13.447,13.447,0,0,1,2-1.492c.123-.074.3-.184.527-.316l.057-.033h0l.132-.079A3.687,3.687,0,0,1,10.442,25.131Zm6.191-4.209c-.3.722-.916,2.568-1.293,2.469-.323-.085-.52-1.488-.064-2.869a6.382,6.382,0,0,1,1.008-1.848c.464-.519.974-.689,1.1-.478A9.453,9.453,0,0,1,16.633,20.922Zm5.114,2.441c-.125.065-.24.107-.294.075-.039-.024.052-.11.052-.11s.64-.688.892-1c.146-.182.316-.4.5-.64q0,.036,0,.072A2.144,2.144,0,0,1,21.747,23.363Zm3.94-.9c-.093-.067-.078-.282.23-.953a3.6,3.6,0,0,1,.876-1.13,1.612,1.612,0,0,1-1.106,2.083Z"/>
</svg>
