<svg id="Warstwa_1" data-name="Warstwa 1" xmlns="http://www.w3.org/2000/svg" viewBox="0 0 36 36">
  <g id="Warstwa_2" data-name="Warstwa 2">
    <g id="Warstwa_1-2" data-name="Warstwa 1-2">
      <path fill="#00EAD3" fillRule="evenodd"  d="M36,3V33a3,3,0,0,1-3,3H3a3,3,0,0,1-3-3V3A3,3,0,0,1,3,0H33A3,3,0,0,1,36,3Z"/>
    </g>
  </g>
  <path fill="#FFFFFF" fillRule="evenodd" d="M22.289,28.774v3.515a7.513,7.513,0,0,0,2.039.661,13.272,13.272,0,0,0,2.461.218,11.474,11.474,0,0,0,2.391-.239,6.078,6.078,0,0,0,1.968-.773,3.474,3.474,0,0,0,1.336-1.477,5.3,5.3,0,0,0,.5-2.25,4.629,4.629,0,0,0-.289-1.687,3.319,3.319,0,0,0-.843-1.266,5.582,5.582,0,0,0-1.266-.984,15.5,15.5,0,0,0-1.688-.844c-.464-.19-.843-.373-1.265-.556a5.4,5.4,0,0,1-.914-.548,2.524,2.524,0,0,1-.6-.591,1.232,1.232,0,0,1-.211-.7,1.182,1.182,0,0,1,.19-.654,1.644,1.644,0,0,1,.527-.5,2.734,2.734,0,0,1,.844-.323,4.875,4.875,0,0,1,1.125-.113,6.535,6.535,0,0,1,.914.066,7.739,7.739,0,0,1,.985.2,7.9,7.9,0,0,1,.984.345,4.609,4.609,0,0,1,.844.485v-3.3A8.726,8.726,0,0,0,30.565,17a14.152,14.152,0,0,0-2.18-.148,10.578,10.578,0,0,0-2.39.268,5.556,5.556,0,0,0-1.969.843,4.042,4.042,0,0,0-1.336,1.477,4.176,4.176,0,0,0-.492,2.109,3.961,3.961,0,0,0,.914,2.672,7.32,7.32,0,0,0,2.742,1.9c.485.2.914.393,1.336.583a6.029,6.029,0,0,1,1.055.591,2.587,2.587,0,0,1,.7.668,1.392,1.392,0,0,1,.267.844,1.3,1.3,0,0,1-.162.632,1.388,1.388,0,0,1-.5.507,2.855,2.855,0,0,1-.844.337,5.151,5.151,0,0,1-1.2.12,6.375,6.375,0,0,1-2.25-.4,6.683,6.683,0,0,1-2.11-1.2Zm-5.906-8.649h4.5V17.242H8.3v2.883h4.5V32.992h3.586Z"/>
</svg>
